<?xml version="1.0" encoding="utf-8" standalone="no"?>
<!DOCTYPE svg PUBLIC "-//W3C//DTD SVG 1.1//EN"
  "http://www.w3.org/Graphics/SVG/1.1/DTD/svg11.dtd">
<svg xmlns:xlink="http://www.w3.org/1999/xlink" width="509.76pt" height="288pt" viewBox="0 0 509.76 288" xmlns="http://www.w3.org/2000/svg" version="1.1">
 <metadata>
  <rdf:RDF xmlns:dc="http://purl.org/dc/elements/1.1/" xmlns:cc="http://creativecommons.org/ns#" xmlns:rdf="http://www.w3.org/1999/02/22-rdf-syntax-ns#">
   <cc:Work>
    <dc:type rdf:resource="http://purl.org/dc/dcmitype/StillImage"/>
    <dc:date>2024-05-30T19:08:21.708093</dc:date>
    <dc:format>image/svg+xml</dc:format>
    <dc:creator>
     <cc:Agent>
      <dc:title>Matplotlib v3.8.0, https://matplotlib.org/</dc:title>
     </cc:Agent>
    </dc:creator>
   </cc:Work>
  </rdf:RDF>
 </metadata>
 <defs>
  <style type="text/css">*{stroke-linejoin: round; stroke-linecap: butt}</style>
 </defs>
 <g id="figure_1">
  <g id="patch_1">
   <path d="M 0 288 
L 509.76 288 
L 509.76 0 
L 0 0 
z
" style="fill: #ffffff"/>
  </g>
  <g id="axes_1">
   <g id="patch_2">
    <path d="M 37.1 228.961533 
L 498.96 228.961533 
L 498.96 10.8 
L 37.1 10.8 
z
" style="fill: #ffffff"/>
   </g>
   <g id="PolyCollection_1">
    <defs>
     <path id="mc804c7401a" d="M 63.072124 -78.409761 
L 62.445654 -78.409761 
L 62.303329 -79.244154 
L 62.111218 -80.078546 
L 61.858345 -80.912939 
L 61.533649 -81.747332 
L 61.126807 -82.581724 
L 60.629184 -83.416117 
L 60.034831 -84.25051 
L 59.341429 -85.084902 
L 58.551084 -85.919295 
L 57.670881 -86.753688 
L 56.713122 -87.58808 
L 55.69521 -88.422473 
L 54.639153 -89.256866 
L 53.57069 -90.091259 
L 52.518063 -90.925651 
L 51.51048 -91.760044 
L 50.576366 -92.594437 
L 49.741492 -93.428829 
L 49.027188 -94.263222 
L 48.448808 -95.097615 
L 48.014689 -95.932007 
L 47.725756 -96.7664 
L 47.575919 -97.600793 
L 47.553223 -98.435186 
L 47.641622 -99.269578 
L 47.82312 -100.103971 
L 48.079904 -100.938364 
L 48.396125 -101.772756 
L 48.759025 -102.607149 
L 49.159243 -103.441542 
L 49.59033 -104.275934 
L 50.04764 -105.110327 
L 50.526929 -105.94472 
L 51.023024 -106.779112 
L 51.528882 -107.613505 
L 52.035278 -108.447898 
L 52.531183 -109.282291 
L 53.004737 -110.116683 
L 53.444628 -110.951076 
L 53.841561 -111.785469 
L 54.189557 -112.619861 
L 54.486833 -113.454254 
L 54.736112 -114.288647 
L 54.944341 -115.123039 
L 55.12187 -115.957432 
L 55.281238 -116.791825 
L 55.43577 -117.626217 
L 55.598181 -118.46061 
L 55.77938 -119.295003 
L 55.987613 -120.129396 
L 56.228013 -120.963788 
L 56.502557 -121.798181 
L 56.810366 -122.632574 
L 57.148234 -123.466966 
L 57.511259 -124.301359 
L 57.893454 -125.135752 
L 58.288244 -125.970144 
L 58.688822 -126.804537 
L 59.08837 -127.63893 
L 59.480193 -128.473323 
L 59.857843 -129.307715 
L 60.215276 -130.142108 
L 60.5471 -130.976501 
L 60.848874 -131.810893 
L 61.117435 -132.645286 
L 61.351176 -133.479679 
L 61.550185 -134.314071 
L 61.716207 -135.148464 
L 61.852396 -135.982857 
L 61.962894 -136.817249 
L 62.052282 -137.651642 
L 62.125019 -138.486035 
L 62.184946 -139.320428 
L 62.234953 -140.15482 
L 62.276846 -140.989213 
L 62.311432 -141.823606 
L 62.338777 -142.657998 
L 62.358595 -143.492391 
L 62.370653 -144.326784 
L 62.375138 -145.161176 
L 62.372902 -145.995569 
L 62.365549 -146.829962 
L 62.355346 -147.664354 
L 62.344992 -148.498747 
L 62.337286 -149.33314 
L 62.334759 -150.167533 
L 62.339344 -151.001925 
L 62.352136 -151.836318 
L 62.373283 -152.670711 
L 62.402019 -153.505103 
L 62.436823 -154.339496 
L 62.475675 -155.173889 
L 62.516342 -156.008281 
L 62.556661 -156.842674 
L 62.594775 -157.677067 
L 62.629277 -158.51146 
L 62.659281 -159.345852 
L 62.684405 -160.180245 
L 62.704698 -161.014638 
L 62.81308 -161.014638 
L 62.81308 -161.014638 
L 62.833373 -160.180245 
L 62.858497 -159.345852 
L 62.888501 -158.51146 
L 62.923003 -157.677067 
L 62.961116 -156.842674 
L 63.001436 -156.008281 
L 63.042102 -155.173889 
L 63.080954 -154.339496 
L 63.115759 -153.505103 
L 63.144495 -152.670711 
L 63.165642 -151.836318 
L 63.178434 -151.001925 
L 63.183019 -150.167533 
L 63.180492 -149.33314 
L 63.172786 -148.498747 
L 63.162432 -147.664354 
L 63.152229 -146.829962 
L 63.144876 -145.995569 
L 63.14264 -145.161176 
L 63.147125 -144.326784 
L 63.159182 -143.492391 
L 63.179 -142.657998 
L 63.206346 -141.823606 
L 63.240932 -140.989213 
L 63.282825 -140.15482 
L 63.332832 -139.320428 
L 63.392759 -138.486035 
L 63.465495 -137.651642 
L 63.554884 -136.817249 
L 63.665382 -135.982857 
L 63.801571 -135.148464 
L 63.967593 -134.314071 
L 64.166601 -133.479679 
L 64.400342 -132.645286 
L 64.668904 -131.810893 
L 64.970678 -130.976501 
L 65.302501 -130.142108 
L 65.659935 -129.307715 
L 66.037584 -128.473323 
L 66.429408 -127.63893 
L 66.828956 -126.804537 
L 67.229534 -125.970144 
L 67.624324 -125.135752 
L 68.006518 -124.301359 
L 68.369544 -123.466966 
L 68.707412 -122.632574 
L 69.01522 -121.798181 
L 69.289764 -120.963788 
L 69.530165 -120.129396 
L 69.738398 -119.295003 
L 69.919597 -118.46061 
L 70.082007 -117.626217 
L 70.23654 -116.791825 
L 70.395908 -115.957432 
L 70.573437 -115.123039 
L 70.781666 -114.288647 
L 71.030945 -113.454254 
L 71.328221 -112.619861 
L 71.676217 -111.785469 
L 72.07315 -110.951076 
L 72.51304 -110.116683 
L 72.986595 -109.282291 
L 73.4825 -108.447898 
L 73.988896 -107.613505 
L 74.494754 -106.779112 
L 74.990849 -105.94472 
L 75.470138 -105.110327 
L 75.927448 -104.275934 
L 76.358535 -103.441542 
L 76.758753 -102.607149 
L 77.121653 -101.772756 
L 77.437874 -100.938364 
L 77.694658 -100.103971 
L 77.876156 -99.269578 
L 77.964555 -98.435186 
L 77.941858 -97.600793 
L 77.792022 -96.7664 
L 77.503089 -95.932007 
L 77.068969 -95.097615 
L 76.49059 -94.263222 
L 75.776286 -93.428829 
L 74.941412 -92.594437 
L 74.007297 -91.760044 
L 72.999715 -90.925651 
L 71.947087 -90.091259 
L 70.878624 -89.256866 
L 69.822568 -88.422473 
L 68.804656 -87.58808 
L 67.846897 -86.753688 
L 66.966693 -85.919295 
L 66.176349 -85.084902 
L 65.482946 -84.25051 
L 64.888594 -83.416117 
L 64.390971 -82.581724 
L 63.984129 -81.747332 
L 63.659433 -80.912939 
L 63.40656 -80.078546 
L 63.214449 -79.244154 
L 63.072124 -78.409761 
z
" style="stroke: #515151; stroke-width: 1.5"/>
    </defs>
    <g clip-path="url(#p83f8ad44b2)">
     <use xlink:href="#mc804c7401a" x="0" y="288" style="fill: #e1812c; stroke: #515151; stroke-width: 1.5"/>
    </g>
   </g>
   <g id="PolyCollection_2">
    <defs>
     <path id="mde2aa3ed08" d="M 114.238725 -76.775972 
L 113.914608 -76.775972 
L 113.857495 -77.50419 
L 113.784208 -78.232408 
L 113.691558 -78.960626 
L 113.576161 -79.688844 
L 113.434571 -80.417062 
L 113.263454 -81.14528 
L 113.059801 -81.873498 
L 112.821174 -82.601717 
L 112.545976 -83.329935 
L 112.233703 -84.058153 
L 111.885176 -84.786371 
L 111.50269 -85.514589 
L 111.090063 -86.242807 
L 110.652546 -86.971025 
L 110.196569 -87.699243 
L 109.729328 -88.427461 
L 109.258217 -89.155679 
L 108.790153 -89.883898 
L 108.330865 -90.612116 
L 107.884214 -91.340334 
L 107.451648 -92.068552 
L 107.031871 -92.79677 
L 106.6208 -93.524988 
L 106.21184 -94.253206 
L 105.796494 -94.981424 
L 105.365241 -95.709642 
L 104.908624 -96.43786 
L 104.418432 -97.166079 
L 103.888848 -97.894297 
L 103.317446 -98.622515 
L 102.705927 -99.350733 
L 102.060527 -100.078951 
L 101.392046 -100.807169 
L 100.715495 -101.535387 
L 100.049408 -102.263605 
L 99.414857 -102.991823 
L 98.834262 -103.720041 
L 98.330082 -104.44826 
L 97.923474 -105.176478 
L 97.633 -105.904696 
L 97.47348 -106.632914 
L 97.455041 -107.361132 
L 97.582435 -108.08935 
L 97.85466 -108.817568 
L 98.264922 -109.545786 
L 98.800939 -110.274004 
L 99.445574 -111.002222 
L 100.177762 -111.730441 
L 100.973661 -112.458659 
L 101.80797 -113.186877 
L 102.655286 -113.915095 
L 103.491442 -114.643313 
L 104.294701 -115.371531 
L 105.046744 -116.099749 
L 105.73339 -116.827967 
L 106.345009 -117.556185 
L 106.876619 -118.284403 
L 107.3277 -119.012622 
L 107.701737 -119.74084 
L 108.005576 -120.469058 
L 108.248632 -121.197276 
L 108.442033 -121.925494 
L 108.597753 -122.653712 
L 108.727796 -123.38193 
L 108.843474 -124.110148 
L 108.954823 -124.838366 
L 109.07016 -125.566584 
L 109.195823 -126.294803 
L 109.336063 -127.023021 
L 109.493098 -127.751239 
L 109.6673 -128.479457 
L 109.857488 -129.207675 
L 110.061299 -129.935893 
L 110.275584 -130.664111 
L 110.496812 -131.392329 
L 110.721431 -132.120547 
L 110.946168 -132.848765 
L 111.168237 -133.576984 
L 111.385465 -134.305202 
L 111.596314 -135.03342 
L 111.799835 -135.761638 
L 111.99555 -136.489856 
L 112.18331 -137.218074 
L 112.363137 -137.946292 
L 112.535081 -138.67451 
L 112.699109 -139.402728 
L 112.855041 -140.130946 
L 113.002527 -140.859165 
L 113.141076 -141.587383 
L 113.27011 -142.315601 
L 113.389043 -143.043819 
L 113.49737 -143.772037 
L 113.594736 -144.500255 
L 113.681 -145.228473 
L 113.756265 -145.956691 
L 113.820886 -146.684909 
L 113.875452 -147.413127 
L 113.920744 -148.141346 
L 113.957686 -148.869564 
L 114.195647 -148.869564 
L 114.195647 -148.869564 
L 114.23259 -148.141346 
L 114.277881 -147.413127 
L 114.332447 -146.684909 
L 114.397068 -145.956691 
L 114.472333 -145.228473 
L 114.558597 -144.500255 
L 114.655963 -143.772037 
L 114.76429 -143.043819 
L 114.883224 -142.315601 
L 115.012257 -141.587383 
L 115.150806 -140.859165 
L 115.298292 -140.130946 
L 115.454224 -139.402728 
L 115.618252 -138.67451 
L 115.790196 -137.946292 
L 115.970023 -137.218074 
L 116.157783 -136.489856 
L 116.353498 -135.761638 
L 116.557019 -135.03342 
L 116.767868 -134.305202 
L 116.985096 -133.576984 
L 117.207166 -132.848765 
L 117.431902 -132.120547 
L 117.656522 -131.392329 
L 117.87775 -130.664111 
L 118.092035 -129.935893 
L 118.295845 -129.207675 
L 118.486034 -128.479457 
L 118.660235 -127.751239 
L 118.81727 -127.023021 
L 118.95751 -126.294803 
L 119.083173 -125.566584 
L 119.198511 -124.838366 
L 119.309859 -124.110148 
L 119.425537 -123.38193 
L 119.55558 -122.653712 
L 119.7113 -121.925494 
L 119.904701 -121.197276 
L 120.147757 -120.469058 
L 120.451596 -119.74084 
L 120.825634 -119.012622 
L 121.276714 -118.284403 
L 121.808325 -117.556185 
L 122.419943 -116.827967 
L 123.106589 -116.099749 
L 123.858632 -115.371531 
L 124.661891 -114.643313 
L 125.498047 -113.915095 
L 126.345364 -113.186877 
L 127.179672 -112.458659 
L 127.975572 -111.730441 
L 128.707759 -111.002222 
L 129.352394 -110.274004 
L 129.888412 -109.545786 
L 130.298674 -108.817568 
L 130.570898 -108.08935 
L 130.698292 -107.361132 
L 130.679854 -106.632914 
L 130.520334 -105.904696 
L 130.22986 -105.176478 
L 129.823251 -104.44826 
L 129.319072 -103.720041 
L 128.738477 -102.991823 
L 128.103925 -102.263605 
L 127.437838 -101.535387 
L 126.761288 -100.807169 
L 126.092806 -100.078951 
L 125.447407 -99.350733 
L 124.835888 -98.622515 
L 124.264485 -97.894297 
L 123.734901 -97.166079 
L 123.244709 -96.43786 
L 122.788092 -95.709642 
L 122.356839 -94.981424 
L 121.941493 -94.253206 
L 121.532534 -93.524988 
L 121.121462 -92.79677 
L 120.701685 -92.068552 
L 120.269119 -91.340334 
L 119.822468 -90.612116 
L 119.36318 -89.883898 
L 118.895117 -89.155679 
L 118.424005 -88.427461 
L 117.956764 -87.699243 
L 117.500787 -86.971025 
L 117.06327 -86.242807 
L 116.650643 -85.514589 
L 116.268157 -84.786371 
L 115.91963 -84.058153 
L 115.607358 -83.329935 
L 115.332159 -82.601717 
L 115.093533 -81.873498 
L 114.889879 -81.14528 
L 114.718762 -80.417062 
L 114.577172 -79.688844 
L 114.461775 -78.960626 
L 114.369125 -78.232408 
L 114.295839 -77.50419 
L 114.238725 -76.775972 
z
" style="stroke: #515151; stroke-width: 1.5"/>
    </defs>
    <g clip-path="url(#p83f8ad44b2)">
     <use xlink:href="#mde2aa3ed08" x="0" y="288" style="fill: #e1812c; stroke: #515151; stroke-width: 1.5"/>
    </g>
   </g>
   <g id="PolyCollection_3">
    <defs>
     <path id="m0080af7e50" d="M 165.572781 -79.589647 
L 165.216108 -79.589647 
L 165.148897 -80.184028 
L 165.064009 -80.77841 
L 164.959617 -81.372791 
L 164.834547 -81.967172 
L 164.688428 -82.561554 
L 164.521723 -83.155935 
L 164.335602 -83.750316 
L 164.131633 -84.344698 
L 163.911319 -84.939079 
L 163.675528 -85.533461 
L 163.423898 -86.127842 
L 163.154339 -86.722223 
L 162.862724 -87.316605 
L 162.54285 -87.910986 
L 162.186719 -88.505368 
L 161.785101 -89.099749 
L 161.328346 -89.69413 
L 160.807321 -90.288512 
L 160.214385 -90.882893 
L 159.544286 -91.477275 
L 158.794922 -92.071656 
L 157.967895 -92.666037 
L 157.068852 -93.260419 
L 156.107567 -93.8548 
L 155.097775 -94.449182 
L 154.05669 -95.043563 
L 153.004224 -95.637944 
L 151.961868 -96.232326 
L 150.951316 -96.826707 
L 149.9929 -97.421089 
L 149.104044 -98.01547 
L 148.297933 -98.609851 
L 147.582647 -99.204233 
L 146.960946 -99.798614 
L 146.430826 -100.392996 
L 145.986815 -100.987377 
L 145.621835 -101.581758 
L 145.329339 -102.17614 
L 145.105322 -102.770521 
L 144.949809 -103.364903 
L 144.867491 -103.959284 
L 144.867333 -104.553665 
L 144.96117 -105.148047 
L 145.161515 -105.742428 
L 145.478996 -106.33681 
L 145.919873 -106.931191 
L 146.484141 -107.525572 
L 147.164559 -108.119954 
L 147.946775 -108.714335 
L 148.810498 -109.308717 
L 149.731471 -109.903098 
L 150.683838 -110.497479 
L 151.642507 -111.091861 
L 152.5851 -111.686242 
L 153.493275 -112.280624 
L 154.353293 -112.875005 
L 155.155947 -113.469386 
L 155.895999 -114.063768 
L 156.571392 -114.658149 
L 157.182457 -115.252531 
L 157.73129 -115.846912 
L 158.221357 -116.441293 
L 158.657331 -117.035675 
L 159.045052 -117.630056 
L 159.391511 -118.224438 
L 159.704722 -118.818819 
L 159.99342 -119.4132 
L 160.266553 -120.007582 
L 160.532617 -120.601963 
L 160.798923 -121.196345 
L 161.070905 -121.790726 
L 161.351594 -122.385107 
L 161.641357 -122.979489 
L 161.93795 -123.57387 
L 162.236905 -124.168252 
L 162.532187 -124.762633 
L 162.81705 -125.357014 
L 163.084952 -125.951396 
L 163.330416 -126.545777 
L 163.549706 -127.140159 
L 163.741222 -127.73454 
L 163.905587 -128.328921 
L 164.045409 -128.923303 
L 164.164788 -129.517684 
L 164.268655 -130.112066 
L 164.362058 -130.706447 
L 164.449506 -131.300828 
L 164.534479 -131.89521 
L 164.619146 -132.489591 
L 164.70431 -133.083973 
L 164.789573 -133.678354 
L 164.873637 -134.272735 
L 164.954697 -134.867117 
L 165.030823 -135.461498 
L 165.100297 -136.05588 
L 165.161841 -136.650261 
L 165.214744 -137.244642 
L 165.258869 -137.839024 
L 165.294588 -138.433405 
L 165.4943 -138.433405 
L 165.4943 -138.433405 
L 165.53002 -137.839024 
L 165.574145 -137.244642 
L 165.627048 -136.650261 
L 165.688592 -136.05588 
L 165.758066 -135.461498 
L 165.834192 -134.867117 
L 165.915252 -134.272735 
L 165.999316 -133.678354 
L 166.084579 -133.083973 
L 166.169743 -132.489591 
L 166.25441 -131.89521 
L 166.339383 -131.300828 
L 166.426831 -130.706447 
L 166.520233 -130.112066 
L 166.624101 -129.517684 
L 166.74348 -128.923303 
L 166.883302 -128.328921 
L 167.047667 -127.73454 
L 167.239183 -127.140159 
L 167.458472 -126.545777 
L 167.703937 -125.951396 
L 167.971839 -125.357014 
L 168.256702 -124.762633 
L 168.551984 -124.168252 
L 168.850939 -123.57387 
L 169.147532 -122.979489 
L 169.437295 -122.385107 
L 169.717984 -121.790726 
L 169.989966 -121.196345 
L 170.256272 -120.601963 
L 170.522336 -120.007582 
L 170.795468 -119.4132 
L 171.084166 -118.818819 
L 171.397378 -118.224438 
L 171.743837 -117.630056 
L 172.131558 -117.035675 
L 172.567531 -116.441293 
L 173.057599 -115.846912 
L 173.606432 -115.252531 
L 174.217497 -114.658149 
L 174.89289 -114.063768 
L 175.632941 -113.469386 
L 176.435596 -112.875005 
L 177.295614 -112.280624 
L 178.203788 -111.686242 
L 179.146382 -111.091861 
L 180.105051 -110.497479 
L 181.057418 -109.903098 
L 181.97839 -109.308717 
L 182.842114 -108.714335 
L 183.62433 -108.119954 
L 184.304748 -107.525572 
L 184.869016 -106.931191 
L 185.309893 -106.33681 
L 185.627374 -105.742428 
L 185.827719 -105.148047 
L 185.921556 -104.553665 
L 185.921398 -103.959284 
L 185.83908 -103.364903 
L 185.683567 -102.770521 
L 185.45955 -102.17614 
L 185.167054 -101.581758 
L 184.802074 -100.987377 
L 184.358063 -100.392996 
L 183.827943 -99.798614 
L 183.206242 -99.204233 
L 182.490956 -98.609851 
L 181.684845 -98.01547 
L 180.795989 -97.421089 
L 179.837573 -96.826707 
L 178.827021 -96.232326 
L 177.784665 -95.637944 
L 176.732199 -95.043563 
L 175.691114 -94.449182 
L 174.681322 -93.8548 
L 173.720037 -93.260419 
L 172.820994 -92.666037 
L 171.993967 -92.071656 
L 171.244603 -91.477275 
L 170.574504 -90.882893 
L 169.981567 -90.288512 
L 169.460543 -89.69413 
L 169.003788 -89.099749 
L 168.60217 -88.505368 
L 168.246039 -87.910986 
L 167.926165 -87.316605 
L 167.63455 -86.722223 
L 167.364991 -86.127842 
L 167.113361 -85.533461 
L 166.87757 -84.939079 
L 166.657256 -84.344698 
L 166.453287 -83.750316 
L 166.267166 -83.155935 
L 166.100461 -82.561554 
L 165.954342 -81.967172 
L 165.829272 -81.372791 
L 165.72488 -80.77841 
L 165.639992 -80.184028 
L 165.572781 -79.589647 
z
" style="stroke: #515151; stroke-width: 1.5"/>
    </defs>
    <g clip-path="url(#p83f8ad44b2)">
     <use xlink:href="#m0080af7e50" x="0" y="288" style="fill: #e1812c; stroke: #515151; stroke-width: 1.5"/>
    </g>
   </g>
   <g id="PolyCollection_4">
    <defs>
     <path id="mca38c6b192" d="M 217.067913 -71.355744 
L 216.356531 -71.355744 
L 216.234737 -72.548295 
L 216.081356 -73.740846 
L 215.891765 -74.933398 
L 215.661775 -76.125949 
L 215.388012 -77.318501 
L 215.068308 -78.511052 
L 214.702082 -79.703604 
L 214.290652 -80.896155 
L 213.837448 -82.088707 
L 213.348067 -83.281258 
L 212.830159 -84.47381 
L 212.293118 -85.666361 
L 211.7476 -86.858913 
L 211.204894 -88.051464 
L 210.676206 -89.244015 
L 210.171918 -90.436567 
L 209.700916 -91.629118 
L 209.270043 -92.82167 
L 208.883738 -94.014221 
L 208.543919 -95.206773 
L 208.250089 -96.399324 
L 207.999666 -97.591876 
L 207.78849 -98.784427 
L 207.611436 -99.976979 
L 207.46307 -101.16953 
L 207.33827 -102.362081 
L 207.232769 -103.554633 
L 207.143553 -104.747184 
L 207.069117 -105.939736 
L 207.009552 -107.132287 
L 206.966486 -108.324839 
L 206.942897 -109.51739 
L 206.942827 -110.709942 
L 206.971007 -111.902493 
L 207.032455 -113.095045 
L 207.132036 -114.287596 
L 207.274033 -115.480147 
L 207.461755 -116.672699 
L 207.697191 -117.86525 
L 207.980753 -119.057802 
L 208.311126 -120.250353 
L 208.685234 -121.442905 
L 209.098335 -122.635456 
L 209.544241 -123.828008 
L 210.015639 -125.020559 
L 210.504485 -126.213111 
L 211.002434 -127.405662 
L 211.501271 -128.598214 
L 211.993287 -129.790765 
L 212.471591 -130.983316 
L 212.930317 -132.175868 
L 213.364739 -133.368419 
L 213.771279 -134.560971 
L 214.147443 -135.753522 
L 214.491696 -136.946074 
L 214.803302 -138.138625 
L 215.082158 -139.331177 
L 215.328638 -140.523728 
L 215.543457 -141.71628 
L 215.72757 -142.908831 
L 215.882102 -144.101382 
L 216.008303 -145.293934 
L 216.107537 -146.486485 
L 216.181278 -147.679037 
L 216.231129 -148.871588 
L 216.258846 -150.06414 
L 216.266355 -151.256691 
L 216.255783 -152.449243 
L 216.229465 -153.641794 
L 216.189954 -154.834346 
L 216.140007 -156.026897 
L 216.082558 -157.219449 
L 216.020666 -158.412 
L 215.957448 -159.604551 
L 215.895989 -160.797103 
L 215.839241 -161.989654 
L 215.789916 -163.182206 
L 215.750372 -164.374757 
L 215.722517 -165.567309 
L 215.707722 -166.75986 
L 215.70677 -167.952412 
L 215.719822 -169.144963 
L 215.746431 -170.337515 
L 215.785578 -171.530066 
L 215.835752 -172.722617 
L 215.89505 -173.915169 
L 215.961297 -175.10772 
L 216.032178 -176.300272 
L 216.105374 -177.492823 
L 216.178679 -178.685375 
L 216.250113 -179.877926 
L 216.317996 -181.070478 
L 216.381009 -182.263029 
L 216.438209 -183.455581 
L 216.489033 -184.648132 
L 216.533263 -185.840684 
L 216.570983 -187.033235 
L 216.602519 -188.225786 
L 216.628373 -189.418338 
L 216.796071 -189.418338 
L 216.796071 -189.418338 
L 216.821926 -188.225786 
L 216.853462 -187.033235 
L 216.891182 -185.840684 
L 216.935412 -184.648132 
L 216.986235 -183.455581 
L 217.043436 -182.263029 
L 217.106448 -181.070478 
L 217.174332 -179.877926 
L 217.245765 -178.685375 
L 217.319071 -177.492823 
L 217.392266 -176.300272 
L 217.463147 -175.10772 
L 217.529394 -173.915169 
L 217.588692 -172.722617 
L 217.638867 -171.530066 
L 217.678014 -170.337515 
L 217.704622 -169.144963 
L 217.717674 -167.952412 
L 217.716722 -166.75986 
L 217.701928 -165.567309 
L 217.674072 -164.374757 
L 217.634528 -163.182206 
L 217.585203 -161.989654 
L 217.528456 -160.797103 
L 217.466996 -159.604551 
L 217.403778 -158.412 
L 217.341886 -157.219449 
L 217.284437 -156.026897 
L 217.234491 -154.834346 
L 217.19498 -153.641794 
L 217.168662 -152.449243 
L 217.158089 -151.256691 
L 217.165599 -150.06414 
L 217.193315 -148.871588 
L 217.243167 -147.679037 
L 217.316908 -146.486485 
L 217.416141 -145.293934 
L 217.542343 -144.101382 
L 217.696874 -142.908831 
L 217.880988 -141.71628 
L 218.095807 -140.523728 
L 218.342286 -139.331177 
L 218.621142 -138.138625 
L 218.932748 -136.946074 
L 219.277001 -135.753522 
L 219.653165 -134.560971 
L 220.059705 -133.368419 
L 220.494127 -132.175868 
L 220.952853 -130.983316 
L 221.431157 -129.790765 
L 221.923173 -128.598214 
L 222.42201 -127.405662 
L 222.91996 -126.213111 
L 223.408805 -125.020559 
L 223.880203 -123.828008 
L 224.32611 -122.635456 
L 224.739211 -121.442905 
L 225.113319 -120.250353 
L 225.443692 -119.057802 
L 225.727254 -117.86525 
L 225.962689 -116.672699 
L 226.150411 -115.480147 
L 226.292409 -114.287596 
L 226.391989 -113.095045 
L 226.453437 -111.902493 
L 226.481618 -110.709942 
L 226.481547 -109.51739 
L 226.457959 -108.324839 
L 226.414892 -107.132287 
L 226.355327 -105.939736 
L 226.280891 -104.747184 
L 226.191676 -103.554633 
L 226.086174 -102.362081 
L 225.961375 -101.16953 
L 225.813008 -99.976979 
L 225.635955 -98.784427 
L 225.424779 -97.591876 
L 225.174356 -96.399324 
L 224.880525 -95.206773 
L 224.540706 -94.014221 
L 224.154402 -92.82167 
L 223.723528 -91.629118 
L 223.252527 -90.436567 
L 222.748239 -89.244015 
L 222.21955 -88.051464 
L 221.676844 -86.858913 
L 221.131326 -85.666361 
L 220.594286 -84.47381 
L 220.076377 -83.281258 
L 219.586997 -82.088707 
L 219.133793 -80.896155 
L 218.722363 -79.703604 
L 218.356136 -78.511052 
L 218.036432 -77.318501 
L 217.762669 -76.125949 
L 217.53268 -74.933398 
L 217.343089 -73.740846 
L 217.189707 -72.548295 
L 217.067913 -71.355744 
z
" style="stroke: #515151; stroke-width: 1.5"/>
    </defs>
    <g clip-path="url(#p83f8ad44b2)">
     <use xlink:href="#mca38c6b192" x="0" y="288" style="fill: #e1812c; stroke: #515151; stroke-width: 1.5"/>
    </g>
   </g>
   <g id="PolyCollection_5">
    <defs>
     <path id="m57d603d046" d="M 268.184483 -73.540636 
L 267.875517 -73.540636 
L 267.747633 -75.497635 
L 267.54462 -77.454634 
L 267.244254 -79.411634 
L 266.829951 -81.368633 
L 266.296803 -83.325632 
L 265.655689 -85.282631 
L 264.933163 -87.239631 
L 264.166216 -89.19663 
L 263.393418 -91.153629 
L 262.64588 -93.110629 
L 261.941682 -95.067628 
L 261.285644 -97.024627 
L 260.673542 -98.981627 
L 260.098035 -100.938626 
L 259.5537 -102.895625 
L 259.040242 -104.852624 
L 258.564529 -106.809624 
L 258.142264 -108.766623 
L 257.798912 -110.723622 
L 257.568193 -112.680622 
L 257.486697 -114.637621 
L 257.585005 -116.59462 
L 257.8781 -118.55162 
L 258.358956 -120.508619 
L 258.998072 -122.465618 
L 259.749083 -124.422618 
L 260.558024 -126.379617 
L 261.372883 -128.336616 
L 262.15092 -130.293615 
L 262.862911 -132.250615 
L 263.494627 -134.207614 
L 264.046088 -136.164613 
L 264.528742 -138.121613 
L 264.96064 -140.078612 
L 265.360287 -142.035611 
L 265.740704 -143.992611 
L 266.105611 -145.94961 
L 266.449079 -147.906609 
L 266.758609 -149.863608 
L 267.020287 -151.820608 
L 267.223983 -153.777607 
L 267.366835 -155.734606 
L 267.454189 -157.691606 
L 267.498152 -159.648605 
L 267.51463 -161.605604 
L 267.519927 -163.562604 
L 267.527818 -165.519603 
L 267.547616 -167.476602 
L 267.583414 -169.433602 
L 267.634386 -171.390601 
L 267.695923 -173.3476 
L 267.761257 -175.304599 
L 267.823217 -177.261599 
L 267.875733 -179.218598 
L 267.914836 -181.175597 
L 267.939065 -183.132597 
L 267.949347 -185.089596 
L 267.948545 -187.046595 
L 267.940789 -189.003595 
L 267.930675 -190.960594 
L 267.922391 -192.917593 
L 267.918873 -194.874592 
L 267.921201 -196.831592 
L 267.928459 -198.788591 
L 267.938124 -200.74559 
L 267.946943 -202.70259 
L 267.951987 -204.659589 
L 267.951588 -206.616588 
L 267.945861 -208.573588 
L 267.936652 -210.530587 
L 267.926943 -212.487586 
L 267.919869 -214.444586 
L 267.917678 -216.401585 
L 267.920969 -218.358584 
L 267.928486 -220.315583 
L 267.937549 -222.272583 
L 267.944975 -224.229582 
L 267.948136 -226.186581 
L 267.945824 -228.143581 
L 267.938597 -230.10058 
L 267.92851 -232.057579 
L 267.918327 -234.014579 
L 267.910489 -235.971578 
L 267.906254 -237.928577 
L 267.905352 -239.885576 
L 267.906314 -241.842576 
L 267.907346 -243.799575 
L 267.907318 -245.756574 
L 267.906393 -247.713574 
L 267.906008 -249.670573 
L 267.908209 -251.627572 
L 267.914705 -253.584572 
L 267.926089 -255.541571 
L 267.94158 -257.49857 
L 267.959337 -259.455569 
L 267.977129 -261.412569 
L 267.993033 -263.369568 
L 268.005872 -265.326567 
L 268.015309 -267.283567 
L 268.044691 -267.283567 
L 268.044691 -267.283567 
L 268.054128 -265.326567 
L 268.066967 -263.369568 
L 268.082871 -261.412569 
L 268.100663 -259.455569 
L 268.11842 -257.49857 
L 268.133911 -255.541571 
L 268.145295 -253.584572 
L 268.151791 -251.627572 
L 268.153992 -249.670573 
L 268.153607 -247.713574 
L 268.152682 -245.756574 
L 268.152654 -243.799575 
L 268.153686 -241.842576 
L 268.154648 -239.885576 
L 268.153746 -237.928577 
L 268.149511 -235.971578 
L 268.141673 -234.014579 
L 268.13149 -232.057579 
L 268.121403 -230.10058 
L 268.114176 -228.143581 
L 268.111864 -226.186581 
L 268.115025 -224.229582 
L 268.122451 -222.272583 
L 268.131514 -220.315583 
L 268.139031 -218.358584 
L 268.142322 -216.401585 
L 268.140131 -214.444586 
L 268.133057 -212.487586 
L 268.123348 -210.530587 
L 268.114139 -208.573588 
L 268.108412 -206.616588 
L 268.108013 -204.659589 
L 268.113057 -202.70259 
L 268.121876 -200.74559 
L 268.131541 -198.788591 
L 268.138799 -196.831592 
L 268.141127 -194.874592 
L 268.137609 -192.917593 
L 268.129325 -190.960594 
L 268.119211 -189.003595 
L 268.111455 -187.046595 
L 268.110653 -185.089596 
L 268.120935 -183.132597 
L 268.145164 -181.175597 
L 268.184267 -179.218598 
L 268.236783 -177.261599 
L 268.298743 -175.304599 
L 268.364077 -173.3476 
L 268.425614 -171.390601 
L 268.476586 -169.433602 
L 268.512384 -167.476602 
L 268.532182 -165.519603 
L 268.540073 -163.562604 
L 268.54537 -161.605604 
L 268.561848 -159.648605 
L 268.605811 -157.691606 
L 268.693165 -155.734606 
L 268.836017 -153.777607 
L 269.039713 -151.820608 
L 269.301391 -149.863608 
L 269.610921 -147.906609 
L 269.954389 -145.94961 
L 270.319296 -143.992611 
L 270.699713 -142.035611 
L 271.09936 -140.078612 
L 271.531258 -138.121613 
L 272.013912 -136.164613 
L 272.565373 -134.207614 
L 273.197089 -132.250615 
L 273.90908 -130.293615 
L 274.687117 -128.336616 
L 275.501976 -126.379617 
L 276.310917 -124.422618 
L 277.061928 -122.465618 
L 277.701044 -120.508619 
L 278.1819 -118.55162 
L 278.474995 -116.59462 
L 278.573303 -114.637621 
L 278.491807 -112.680622 
L 278.261088 -110.723622 
L 277.917736 -108.766623 
L 277.495471 -106.809624 
L 277.019758 -104.852624 
L 276.5063 -102.895625 
L 275.961965 -100.938626 
L 275.386458 -98.981627 
L 274.774356 -97.024627 
L 274.118318 -95.067628 
L 273.41412 -93.110629 
L 272.666582 -91.153629 
L 271.893784 -89.19663 
L 271.126837 -87.239631 
L 270.404311 -85.282631 
L 269.763197 -83.325632 
L 269.230049 -81.368633 
L 268.815746 -79.411634 
L 268.51538 -77.454634 
L 268.312367 -75.497635 
L 268.184483 -73.540636 
z
" style="stroke: #515151; stroke-width: 1.5"/>
    </defs>
    <g clip-path="url(#p83f8ad44b2)">
     <use xlink:href="#m57d603d046" x="0" y="288" style="fill: #e1812c; stroke: #515151; stroke-width: 1.5"/>
    </g>
   </g>
   <g id="PolyCollection_6">
    <defs>
     <path id="m307180eb3c" d="M 319.584951 -78.125259 
L 319.110604 -78.125259 
L 318.987 -79.148895 
L 318.813211 -80.172531 
L 318.576004 -81.196166 
L 318.261738 -82.219802 
L 317.85767 -83.243438 
L 317.353624 -84.267073 
L 316.743842 -85.290709 
L 316.028803 -86.314345 
L 315.216673 -87.337981 
L 314.324075 -88.361616 
L 313.375862 -89.385252 
L 312.403744 -90.408888 
L 311.443745 -91.432524 
L 310.532739 -92.456159 
L 309.704484 -93.479795 
L 308.985783 -94.503431 
L 308.393422 -95.527067 
L 307.932485 -96.550702 
L 307.596406 -97.574338 
L 307.368812 -98.597974 
L 307.226844 -99.621609 
L 307.145331 -100.645245 
L 307.101019 -101.668881 
L 307.076053 -102.692517 
L 307.06011 -103.716152 
L 307.050879 -104.739788 
L 307.052982 -105.763424 
L 307.075733 -106.78706 
L 307.130356 -107.810695 
L 307.227301 -108.834331 
L 307.374205 -109.857967 
L 307.574802 -110.881602 
L 307.828824 -111.905238 
L 308.132715 -112.928874 
L 308.480821 -113.95251 
L 308.866657 -114.976145 
L 309.283949 -115.999781 
L 309.727222 -117.023417 
L 310.19191 -118.047053 
L 310.674077 -119.070688 
L 311.16994 -120.094324 
L 311.675408 -121.11796 
L 312.185814 -122.141595 
L 312.69593 -123.165231 
L 313.200259 -124.188867 
L 313.693489 -125.212503 
L 314.170981 -126.236138 
L 314.629142 -127.259774 
L 315.065592 -128.28341 
L 315.479098 -129.307046 
L 315.869329 -130.330681 
L 316.236503 -131.354317 
L 316.581058 -132.377953 
L 316.903391 -133.401588 
L 317.203734 -134.425224 
L 317.482151 -135.44886 
L 317.738602 -136.472496 
L 317.973062 -137.496131 
L 318.185605 -138.519767 
L 318.376473 -139.543403 
L 318.546095 -140.567039 
L 318.695086 -141.590674 
L 318.82423 -142.61431 
L 318.934471 -143.637946 
L 319.026897 -144.661582 
L 319.102719 -145.685217 
L 319.163238 -146.708853 
L 319.209778 -147.732489 
L 319.243604 -148.756124 
L 319.265825 -149.77976 
L 319.277311 -150.803396 
L 319.278632 -151.827032 
L 319.270065 -152.850667 
L 319.251664 -153.874303 
L 319.223405 -154.897939 
L 319.185391 -155.921575 
L 319.138097 -156.94521 
L 319.0826 -157.968846 
L 319.020755 -158.992482 
L 318.955272 -160.016117 
L 318.889641 -161.039753 
L 318.827913 -162.063389 
L 318.774342 -163.087025 
L 318.732926 -164.11066 
L 318.706938 -165.134296 
L 318.698508 -166.157932 
L 318.708338 -167.181568 
L 318.735616 -168.205203 
L 318.778119 -169.228839 
L 318.832517 -170.252475 
L 318.894797 -171.27611 
L 318.96075 -172.299746 
L 319.026425 -173.323382 
L 319.088505 -174.347018 
L 319.14453 -175.370653 
L 319.192987 -176.394289 
L 319.233263 -177.417925 
L 319.265492 -178.441561 
L 319.290354 -179.465196 
L 319.405202 -179.465196 
L 319.405202 -179.465196 
L 319.430064 -178.441561 
L 319.462292 -177.417925 
L 319.502568 -176.394289 
L 319.551026 -175.370653 
L 319.607051 -174.347018 
L 319.66913 -173.323382 
L 319.734806 -172.299746 
L 319.800758 -171.27611 
L 319.863038 -170.252475 
L 319.917436 -169.228839 
L 319.959939 -168.205203 
L 319.987217 -167.181568 
L 319.997048 -166.157932 
L 319.988617 -165.134296 
L 319.96263 -164.11066 
L 319.921214 -163.087025 
L 319.867642 -162.063389 
L 319.805915 -161.039753 
L 319.740283 -160.016117 
L 319.6748 -158.992482 
L 319.612956 -157.968846 
L 319.557459 -156.94521 
L 319.510165 -155.921575 
L 319.472151 -154.897939 
L 319.443891 -153.874303 
L 319.42549 -152.850667 
L 319.416924 -151.827032 
L 319.418245 -150.803396 
L 319.42973 -149.77976 
L 319.451952 -148.756124 
L 319.485777 -147.732489 
L 319.532317 -146.708853 
L 319.592836 -145.685217 
L 319.668659 -144.661582 
L 319.761085 -143.637946 
L 319.871326 -142.61431 
L 320.00047 -141.590674 
L 320.149461 -140.567039 
L 320.319083 -139.543403 
L 320.509951 -138.519767 
L 320.722494 -137.496131 
L 320.956953 -136.472496 
L 321.213405 -135.44886 
L 321.491821 -134.425224 
L 321.792165 -133.401588 
L 322.114498 -132.377953 
L 322.459052 -131.354317 
L 322.826227 -130.330681 
L 323.216457 -129.307046 
L 323.629964 -128.28341 
L 324.066414 -127.259774 
L 324.524575 -126.236138 
L 325.002067 -125.212503 
L 325.495296 -124.188867 
L 325.999625 -123.165231 
L 326.509742 -122.141595 
L 327.020147 -121.11796 
L 327.525615 -120.094324 
L 328.021479 -119.070688 
L 328.503646 -118.047053 
L 328.968334 -117.023417 
L 329.411606 -115.999781 
L 329.828898 -114.976145 
L 330.214735 -113.95251 
L 330.56284 -112.928874 
L 330.866732 -111.905238 
L 331.120753 -110.881602 
L 331.32135 -109.857967 
L 331.468255 -108.834331 
L 331.5652 -107.810695 
L 331.619822 -106.78706 
L 331.642573 -105.763424 
L 331.644676 -104.739788 
L 331.635446 -103.716152 
L 331.619502 -102.692517 
L 331.594537 -101.668881 
L 331.550224 -100.645245 
L 331.468712 -99.621609 
L 331.326744 -98.597974 
L 331.09915 -97.574338 
L 330.76307 -96.550702 
L 330.302133 -95.527067 
L 329.709772 -94.503431 
L 328.991071 -93.479795 
L 328.162816 -92.456159 
L 327.25181 -91.432524 
L 326.291812 -90.408888 
L 325.319694 -89.385252 
L 324.371481 -88.361616 
L 323.478882 -87.337981 
L 322.666753 -86.314345 
L 321.951714 -85.290709 
L 321.341932 -84.267073 
L 320.837886 -83.243438 
L 320.433818 -82.219802 
L 320.119551 -81.196166 
L 319.882344 -80.172531 
L 319.708556 -79.148895 
L 319.584951 -78.125259 
z
" style="stroke: #515151; stroke-width: 1.5"/>
    </defs>
    <g clip-path="url(#p83f8ad44b2)">
     <use xlink:href="#m307180eb3c" x="0" y="288" style="fill: #e1812c; stroke: #515151; stroke-width: 1.5"/>
    </g>
   </g>
   <g id="PolyCollection_7">
    <defs>
     <path id="mdf1b73b85f" d="M 370.77807 -75.350495 
L 370.553041 -75.350495 
L 370.500068 -76.390005 
L 370.428016 -77.429514 
L 370.332617 -78.469024 
L 370.20963 -79.508533 
L 370.05521 -80.548043 
L 369.866341 -81.587552 
L 369.641286 -82.627062 
L 369.37997 -83.666571 
L 369.084244 -84.706081 
L 368.757937 -85.74559 
L 368.406639 -86.7851 
L 368.037198 -87.824609 
L 367.656958 -88.864119 
L 367.272833 -89.903628 
L 366.890376 -90.943138 
L 366.513005 -91.982647 
L 366.14157 -93.022157 
L 365.774381 -94.061666 
L 365.407701 -95.101176 
L 365.036646 -96.140685 
L 364.656319 -97.180195 
L 364.262955 -98.219704 
L 363.854862 -99.259214 
L 363.433024 -100.298723 
L 363.001275 -101.338233 
L 362.566086 -102.377742 
L 362.136061 -103.417252 
L 361.721265 -104.456761 
L 361.33248 -105.496271 
L 360.980477 -106.53578 
L 360.675307 -107.57529 
L 360.425602 -108.614799 
L 360.237886 -109.654309 
L 360.11592 -110.693818 
L 360.06015 -111.733328 
L 360.067398 -112.772837 
L 360.130924 -113.812347 
L 360.24098 -114.851856 
L 360.385888 -115.891366 
L 360.553555 -116.930875 
L 360.733221 -117.970385 
L 360.917119 -119.009894 
L 361.101699 -120.049404 
L 361.288102 -121.088913 
L 361.48171 -122.128423 
L 361.690762 -123.167932 
L 361.924285 -124.207442 
L 362.189714 -125.246951 
L 362.490729 -126.286461 
L 362.82579 -127.32597 
L 363.187723 -128.36548 
L 363.564502 -129.404989 
L 363.941089 -130.444499 
L 364.301985 -131.484008 
L 364.633955 -132.523518 
L 364.928374 -133.563027 
L 365.182725 -134.602537 
L 365.400955 -135.642046 
L 365.592659 -136.681556 
L 365.771288 -137.721065 
L 365.951772 -138.760575 
L 366.148023 -139.800084 
L 366.370789 -140.839594 
L 366.626185 -141.879103 
L 366.915098 -142.918613 
L 367.233437 -143.958122 
L 367.573076 -144.997632 
L 367.923229 -146.037141 
L 368.271963 -147.076651 
L 368.607613 -148.11616 
L 368.919902 -149.15567 
L 369.200699 -150.195179 
L 369.444406 -151.234689 
L 369.64802 -152.274198 
L 369.810976 -153.313708 
L 369.934831 -154.353217 
L 370.022887 -155.392727 
L 370.079778 -156.432236 
L 370.11107 -157.471746 
L 370.122872 -158.511255 
L 370.121468 -159.550765 
L 370.11296 -160.590274 
L 370.102944 -161.629784 
L 370.096209 -162.669293 
L 370.096491 -163.708803 
L 370.106296 -164.748312 
L 370.126822 -165.787822 
L 370.157985 -166.827331 
L 370.198569 -167.866841 
L 370.246471 -168.90635 
L 370.299024 -169.94586 
L 370.353355 -170.985369 
L 370.406719 -172.024879 
L 370.456778 -173.064388 
L 370.501785 -174.103898 
L 370.540665 -175.143407 
L 370.572992 -176.182917 
L 370.598897 -177.222426 
L 370.618924 -178.261936 
L 370.712188 -178.261936 
L 370.712188 -178.261936 
L 370.732215 -177.222426 
L 370.75812 -176.182917 
L 370.790446 -175.143407 
L 370.829326 -174.103898 
L 370.874333 -173.064388 
L 370.924392 -172.024879 
L 370.977756 -170.985369 
L 371.032087 -169.94586 
L 371.08464 -168.90635 
L 371.132542 -167.866841 
L 371.173126 -166.827331 
L 371.20429 -165.787822 
L 371.224815 -164.748312 
L 371.23462 -163.708803 
L 371.234902 -162.669293 
L 371.228167 -161.629784 
L 371.218151 -160.590274 
L 371.209643 -159.550765 
L 371.208239 -158.511255 
L 371.220041 -157.471746 
L 371.251333 -156.432236 
L 371.308224 -155.392727 
L 371.39628 -154.353217 
L 371.520135 -153.313708 
L 371.683091 -152.274198 
L 371.886706 -151.234689 
L 372.130412 -150.195179 
L 372.411209 -149.15567 
L 372.723498 -148.11616 
L 373.059148 -147.076651 
L 373.407883 -146.037141 
L 373.758035 -144.997632 
L 374.097675 -143.958122 
L 374.416014 -142.918613 
L 374.704927 -141.879103 
L 374.960322 -140.839594 
L 375.183088 -139.800084 
L 375.379339 -138.760575 
L 375.559823 -137.721065 
L 375.738453 -136.681556 
L 375.930156 -135.642046 
L 376.148386 -134.602537 
L 376.402737 -133.563027 
L 376.697156 -132.523518 
L 377.029126 -131.484008 
L 377.390023 -130.444499 
L 377.76661 -129.404989 
L 378.143388 -128.36548 
L 378.505321 -127.32597 
L 378.840382 -126.286461 
L 379.141397 -125.246951 
L 379.406826 -124.207442 
L 379.640349 -123.167932 
L 379.849402 -122.128423 
L 380.043009 -121.088913 
L 380.229412 -120.049404 
L 380.413992 -119.009894 
L 380.59789 -117.970385 
L 380.777556 -116.930875 
L 380.945224 -115.891366 
L 381.090131 -114.851856 
L 381.200187 -113.812347 
L 381.263713 -112.772837 
L 381.270961 -111.733328 
L 381.215191 -110.693818 
L 381.093225 -109.654309 
L 380.90551 -108.614799 
L 380.655804 -107.57529 
L 380.350634 -106.53578 
L 379.998631 -105.496271 
L 379.609846 -104.456761 
L 379.19505 -103.417252 
L 378.765025 -102.377742 
L 378.329836 -101.338233 
L 377.898087 -100.298723 
L 377.476249 -99.259214 
L 377.068156 -98.219704 
L 376.674792 -97.180195 
L 376.294465 -96.140685 
L 375.923411 -95.101176 
L 375.55673 -94.061666 
L 375.189541 -93.022157 
L 374.818107 -91.982647 
L 374.440735 -90.943138 
L 374.058278 -89.903628 
L 373.674154 -88.864119 
L 373.293913 -87.824609 
L 372.924472 -86.7851 
L 372.573174 -85.74559 
L 372.246867 -84.706081 
L 371.951141 -83.666571 
L 371.689825 -82.627062 
L 371.46477 -81.587552 
L 371.275901 -80.548043 
L 371.121481 -79.508533 
L 370.998494 -78.469024 
L 370.903096 -77.429514 
L 370.831043 -76.390005 
L 370.77807 -75.350495 
z
" style="stroke: #515151; stroke-width: 1.5"/>
    </defs>
    <g clip-path="url(#p83f8ad44b2)">
     <use xlink:href="#mdf1b73b85f" x="0" y="288" style="fill: #e1812c; stroke: #515151; stroke-width: 1.5"/>
    </g>
   </g>
   <g id="PolyCollection_8">
    <defs>
     <path id="md4c62d9223" d="M 422.070883 -75.152407 
L 421.895784 -75.152407 
L 421.847524 -76.795806 
L 421.778824 -78.439205 
L 421.684021 -80.082604 
L 421.556994 -81.726004 
L 421.391405 -83.369403 
L 421.180928 -85.012802 
L 420.919428 -86.656201 
L 420.601062 -88.2996 
L 420.220367 -89.943 
L 419.772429 -91.586399 
L 419.253263 -93.229798 
L 418.660551 -94.873197 
L 417.994769 -96.516596 
L 417.260625 -98.159996 
L 416.468565 -99.803395 
L 415.635972 -101.446794 
L 414.787658 -103.090193 
L 413.9553 -104.733592 
L 413.175685 -106.376992 
L 412.487839 -108.020391 
L 411.929392 -109.66379 
L 411.532648 -111.307189 
L 411.320956 -112.950588 
L 411.305864 -114.593988 
L 411.485483 -116.237387 
L 411.844291 -117.880786 
L 412.354456 -119.524185 
L 412.978555 -121.167584 
L 413.673387 -122.810984 
L 414.394408 -124.454383 
L 415.100171 -126.097782 
L 415.756145 -127.741181 
L 416.337354 -129.38458 
L 416.829509 -131.02798 
L 417.228587 -132.671379 
L 417.539127 -134.314778 
L 417.771743 -135.958177 
L 417.940426 -137.601576 
L 418.060191 -139.244976 
L 418.145408 -140.888375 
L 418.208907 -142.531774 
L 418.261744 -144.175173 
L 418.313334 -145.818573 
L 418.37165 -147.461972 
L 418.44327 -149.105371 
L 418.533211 -150.74877 
L 418.644638 -152.392169 
L 418.778642 -154.035569 
L 418.934234 -155.678968 
L 419.10867 -157.322367 
L 419.298026 -158.965766 
L 419.497901 -160.609165 
L 419.704026 -162.252565 
L 419.912655 -163.895964 
L 420.120668 -165.539363 
L 420.325448 -167.182762 
L 420.524661 -168.826161 
L 420.716055 -170.469561 
L 420.897393 -172.11296 
L 421.066514 -173.756359 
L 421.221502 -175.399758 
L 421.360873 -177.043157 
L 421.483721 -178.686557 
L 421.589783 -180.329956 
L 421.679417 -181.973355 
L 421.753511 -183.616754 
L 421.813363 -185.260153 
L 421.860545 -186.903553 
L 421.896774 -188.546952 
L 421.923793 -190.190351 
L 421.943266 -191.83375 
L 421.956687 -193.477149 
L 421.965302 -195.120549 
L 421.970061 -196.763948 
L 421.971589 -198.407347 
L 421.970189 -200.050746 
L 421.965882 -201.694145 
L 421.958484 -203.337545 
L 421.947722 -204.980944 
L 421.933378 -206.624343 
L 421.915458 -208.267742 
L 421.894344 -209.911141 
L 421.870903 -211.554541 
L 421.846514 -213.19794 
L 421.822987 -214.841339 
L 421.802369 -216.484738 
L 421.786663 -218.128137 
L 421.77751 -219.771537 
L 421.775908 -221.414936 
L 421.782037 -223.058335 
L 421.795221 -224.701734 
L 421.814052 -226.345133 
L 421.836641 -227.988533 
L 421.860923 -229.631932 
L 421.88497 -231.275331 
L 421.90722 -232.91873 
L 421.926619 -234.562129 
L 421.942639 -236.205529 
L 421.955215 -237.848928 
L 422.011451 -237.848928 
L 422.011451 -237.848928 
L 422.024028 -236.205529 
L 422.040047 -234.562129 
L 422.059446 -232.91873 
L 422.081697 -231.275331 
L 422.105743 -229.631932 
L 422.130026 -227.988533 
L 422.152615 -226.345133 
L 422.171446 -224.701734 
L 422.184629 -223.058335 
L 422.190758 -221.414936 
L 422.189157 -219.771537 
L 422.180004 -218.128137 
L 422.164298 -216.484738 
L 422.14368 -214.841339 
L 422.120153 -213.19794 
L 422.095764 -211.554541 
L 422.072322 -209.911141 
L 422.051208 -208.267742 
L 422.033288 -206.624343 
L 422.018945 -204.980944 
L 422.008182 -203.337545 
L 422.000785 -201.694145 
L 421.996478 -200.050746 
L 421.995078 -198.407347 
L 421.996606 -196.763948 
L 422.001365 -195.120549 
L 422.00998 -193.477149 
L 422.0234 -191.83375 
L 422.042874 -190.190351 
L 422.069893 -188.546952 
L 422.106122 -186.903553 
L 422.153304 -185.260153 
L 422.213156 -183.616754 
L 422.28725 -181.973355 
L 422.376884 -180.329956 
L 422.482946 -178.686557 
L 422.605794 -177.043157 
L 422.745164 -175.399758 
L 422.900152 -173.756359 
L 423.069273 -172.11296 
L 423.250611 -170.469561 
L 423.442006 -168.826161 
L 423.641219 -167.182762 
L 423.845999 -165.539363 
L 424.054011 -163.895964 
L 424.26264 -162.252565 
L 424.468766 -160.609165 
L 424.668641 -158.965766 
L 424.857997 -157.322367 
L 425.032433 -155.678968 
L 425.188025 -154.035569 
L 425.322028 -152.392169 
L 425.433456 -150.74877 
L 425.523396 -149.105371 
L 425.595016 -147.461972 
L 425.653333 -145.818573 
L 425.704923 -144.175173 
L 425.75776 -142.531774 
L 425.821259 -140.888375 
L 425.906475 -139.244976 
L 426.026241 -137.601576 
L 426.194924 -135.958177 
L 426.427539 -134.314778 
L 426.73808 -132.671379 
L 427.137157 -131.02798 
L 427.629312 -129.38458 
L 428.210522 -127.741181 
L 428.866496 -126.097782 
L 429.572258 -124.454383 
L 430.293279 -122.810984 
L 430.988112 -121.167584 
L 431.61221 -119.524185 
L 432.122376 -117.880786 
L 432.481184 -116.237387 
L 432.660802 -114.593988 
L 432.64571 -112.950588 
L 432.434019 -111.307189 
L 432.037275 -109.66379 
L 431.478827 -108.020391 
L 430.790982 -106.376992 
L 430.011367 -104.733592 
L 429.179009 -103.090193 
L 428.330694 -101.446794 
L 427.498102 -99.803395 
L 426.706042 -98.159996 
L 425.971898 -96.516596 
L 425.306116 -94.873197 
L 424.713404 -93.229798 
L 424.194238 -91.586399 
L 423.746299 -89.943 
L 423.365605 -88.2996 
L 423.047239 -86.656201 
L 422.785738 -85.012802 
L 422.575262 -83.369403 
L 422.409672 -81.726004 
L 422.282645 -80.082604 
L 422.187842 -78.439205 
L 422.119143 -76.795806 
L 422.070883 -75.152407 
z
" style="stroke: #515151; stroke-width: 1.5"/>
    </defs>
    <g clip-path="url(#p83f8ad44b2)">
     <use xlink:href="#md4c62d9223" x="0" y="288" style="fill: #e1812c; stroke: #515151; stroke-width: 1.5"/>
    </g>
   </g>
   <g id="PolyCollection_9">
    <defs>
     <path id="m97876e3097" d="M 474.1529 -68.954901 
L 472.449323 -68.954901 
L 472.194598 -70.186297 
L 471.884252 -71.417693 
L 471.512719 -72.649089 
L 471.075825 -73.880485 
L 470.571379 -75.111881 
L 469.999759 -76.343278 
L 469.364426 -77.574674 
L 468.672299 -78.80607 
L 467.933938 -80.037466 
L 467.163478 -81.268862 
L 466.378283 -82.500258 
L 465.59831 -83.731654 
L 464.845205 -84.96305 
L 464.14118 -86.194446 
L 463.507747 -87.425843 
L 462.964414 -88.657239 
L 462.527446 -89.888635 
L 462.208809 -91.120031 
L 462.015394 -92.351427 
L 461.948586 -93.582823 
L 462.004231 -94.814219 
L 462.173002 -96.045615 
L 462.441121 -97.277012 
L 462.791384 -98.508408 
L 463.20439 -99.739804 
L 463.659866 -100.9712 
L 464.137977 -102.202596 
L 464.620523 -103.433992 
L 465.091929 -104.665388 
L 465.539971 -105.896784 
L 465.956189 -107.128181 
L 466.336004 -108.359577 
L 466.67852 -109.590973 
L 466.98609 -110.822369 
L 467.263671 -112.053765 
L 467.518055 -113.285161 
L 467.757041 -114.516557 
L 467.988616 -115.747953 
L 468.220217 -116.97935 
L 468.458114 -118.210746 
L 468.706959 -119.442142 
L 468.96952 -120.673538 
L 469.246597 -121.904934 
L 469.537113 -123.13633 
L 469.838353 -124.367726 
L 470.146302 -125.599122 
L 470.45606 -126.830519 
L 470.762272 -128.061915 
L 471.059545 -129.293311 
L 471.342816 -130.524707 
L 471.607637 -131.756103 
L 471.850387 -132.987499 
L 472.068382 -134.218895 
L 472.259905 -135.450291 
L 472.424163 -136.681688 
L 472.561187 -137.913084 
L 472.671698 -139.14448 
L 472.756953 -140.375876 
L 472.818584 -141.607272 
L 472.858456 -142.838668 
L 472.878538 -144.070064 
L 472.880803 -145.30146 
L 472.867157 -146.532856 
L 472.839398 -147.764253 
L 472.799202 -148.995649 
L 472.748139 -150.227045 
L 472.687704 -151.458441 
L 472.619366 -152.689837 
L 472.544631 -153.921233 
L 472.465103 -155.152629 
L 472.382534 -156.384025 
L 472.298865 -157.615422 
L 472.216241 -158.846818 
L 472.136994 -160.078214 
L 472.063597 -161.30961 
L 471.998573 -162.541006 
L 471.944392 -163.772402 
L 471.903329 -165.003798 
L 471.877321 -166.235194 
L 471.867832 -167.466591 
L 471.875731 -168.697987 
L 471.901211 -169.929383 
L 471.943748 -171.160779 
L 472.002115 -172.392175 
L 472.074444 -173.623571 
L 472.158342 -174.854967 
L 472.251034 -176.086363 
L 472.349536 -177.31776 
L 472.450831 -178.549156 
L 472.552039 -179.780552 
L 472.650559 -181.011948 
L 472.744185 -182.243344 
L 472.831179 -183.47474 
L 472.910301 -184.706136 
L 472.980805 -185.937532 
L 473.042403 -187.168929 
L 473.095198 -188.400325 
L 473.139611 -189.631721 
L 473.176298 -190.863117 
L 473.425924 -190.863117 
L 473.425924 -190.863117 
L 473.462611 -189.631721 
L 473.507025 -188.400325 
L 473.55982 -187.168929 
L 473.621417 -185.937532 
L 473.691921 -184.706136 
L 473.771043 -183.47474 
L 473.858037 -182.243344 
L 473.951663 -181.011948 
L 474.050183 -179.780552 
L 474.151391 -178.549156 
L 474.252686 -177.31776 
L 474.351188 -176.086363 
L 474.44388 -174.854967 
L 474.527778 -173.623571 
L 474.600108 -172.392175 
L 474.658474 -171.160779 
L 474.701011 -169.929383 
L 474.726491 -168.697987 
L 474.734391 -167.466591 
L 474.724902 -166.235194 
L 474.698894 -165.003798 
L 474.65783 -163.772402 
L 474.603649 -162.541006 
L 474.538626 -161.30961 
L 474.465228 -160.078214 
L 474.385981 -158.846818 
L 474.303357 -157.615422 
L 474.219688 -156.384025 
L 474.137119 -155.152629 
L 474.057591 -153.921233 
L 473.982857 -152.689837 
L 473.914519 -151.458441 
L 473.854083 -150.227045 
L 473.80302 -148.995649 
L 473.762824 -147.764253 
L 473.735065 -146.532856 
L 473.721419 -145.30146 
L 473.723684 -144.070064 
L 473.743766 -142.838668 
L 473.783638 -141.607272 
L 473.845269 -140.375876 
L 473.930524 -139.14448 
L 474.041035 -137.913084 
L 474.178059 -136.681688 
L 474.342317 -135.450291 
L 474.53384 -134.218895 
L 474.751835 -132.987499 
L 474.994585 -131.756103 
L 475.259407 -130.524707 
L 475.542677 -129.293311 
L 475.839951 -128.061915 
L 476.146162 -126.830519 
L 476.45592 -125.599122 
L 476.763869 -124.367726 
L 477.065109 -123.13633 
L 477.355626 -121.904934 
L 477.632702 -120.673538 
L 477.895263 -119.442142 
L 478.144108 -118.210746 
L 478.382005 -116.97935 
L 478.613606 -115.747953 
L 478.845182 -114.516557 
L 479.084167 -113.285161 
L 479.338552 -112.053765 
L 479.616132 -110.822369 
L 479.923702 -109.590973 
L 480.266218 -108.359577 
L 480.646033 -107.128181 
L 481.062252 -105.896784 
L 481.510293 -104.665388 
L 481.981699 -103.433992 
L 482.464245 -102.202596 
L 482.942356 -100.9712 
L 483.397832 -99.739804 
L 483.810838 -98.508408 
L 484.161101 -97.277012 
L 484.42922 -96.045615 
L 484.597991 -94.814219 
L 484.653636 -93.582823 
L 484.586828 -92.351427 
L 484.393413 -91.120031 
L 484.074776 -89.888635 
L 483.637808 -88.657239 
L 483.094475 -87.425843 
L 482.461042 -86.194446 
L 481.757017 -84.96305 
L 481.003913 -83.731654 
L 480.223939 -82.500258 
L 479.438744 -81.268862 
L 478.668284 -80.037466 
L 477.929923 -78.80607 
L 477.237796 -77.574674 
L 476.602463 -76.343278 
L 476.030843 -75.111881 
L 475.526397 -73.880485 
L 475.089503 -72.649089 
L 474.717971 -71.417693 
L 474.407624 -70.186297 
L 474.1529 -68.954901 
z
" style="stroke: #515151; stroke-width: 1.5"/>
    </defs>
    <g clip-path="url(#p83f8ad44b2)">
     <use xlink:href="#m97876e3097" x="0" y="288" style="fill: #e1812c; stroke: #515151; stroke-width: 1.5"/>
    </g>
   </g>
   <g id="matplotlib.axis_1">
    <g id="xtick_1">
     <g id="line2d_1">
      <defs>
       <path id="md20af022ca" d="M 0 0 
L 0 3.5 
" style="stroke: #000000; stroke-width: 0.8"/>
      </defs>
      <g>
       <use xlink:href="#md20af022ca" x="62.758889" y="228.961533" style="stroke: #000000; stroke-width: 0.8"/>
      </g>
     </g>
     <g id="text_1">
      <!-- Bone marrow dataset -->
      <g transform="translate(23.97353 276.698065) rotate(-45) scale(0.05 -0.05)">
       <defs>
        <path id="DejaVuSans-42" d="M 1259 2228 
L 1259 519 
L 2272 519 
Q 2781 519 3026 730 
Q 3272 941 3272 1375 
Q 3272 1813 3026 2020 
Q 2781 2228 2272 2228 
L 1259 2228 
z
M 1259 4147 
L 1259 2741 
L 2194 2741 
Q 2656 2741 2882 2914 
Q 3109 3088 3109 3444 
Q 3109 3797 2882 3972 
Q 2656 4147 2194 4147 
L 1259 4147 
z
M 628 4666 
L 2241 4666 
Q 2963 4666 3353 4366 
Q 3744 4066 3744 3513 
Q 3744 3084 3544 2831 
Q 3344 2578 2956 2516 
Q 3422 2416 3680 2098 
Q 3938 1781 3938 1306 
Q 3938 681 3513 340 
Q 3088 0 2303 0 
L 628 0 
L 628 4666 
z
" transform="scale(0.015625)"/>
        <path id="DejaVuSans-6f" d="M 1959 3097 
Q 1497 3097 1228 2736 
Q 959 2375 959 1747 
Q 959 1119 1226 758 
Q 1494 397 1959 397 
Q 2419 397 2687 759 
Q 2956 1122 2956 1747 
Q 2956 2369 2687 2733 
Q 2419 3097 1959 3097 
z
M 1959 3584 
Q 2709 3584 3137 3096 
Q 3566 2609 3566 1747 
Q 3566 888 3137 398 
Q 2709 -91 1959 -91 
Q 1206 -91 779 398 
Q 353 888 353 1747 
Q 353 2609 779 3096 
Q 1206 3584 1959 3584 
z
" transform="scale(0.015625)"/>
        <path id="DejaVuSans-6e" d="M 3513 2113 
L 3513 0 
L 2938 0 
L 2938 2094 
Q 2938 2591 2744 2837 
Q 2550 3084 2163 3084 
Q 1697 3084 1428 2787 
Q 1159 2491 1159 1978 
L 1159 0 
L 581 0 
L 581 3500 
L 1159 3500 
L 1159 2956 
Q 1366 3272 1645 3428 
Q 1925 3584 2291 3584 
Q 2894 3584 3203 3211 
Q 3513 2838 3513 2113 
z
" transform="scale(0.015625)"/>
        <path id="DejaVuSans-65" d="M 3597 1894 
L 3597 1613 
L 953 1613 
Q 991 1019 1311 708 
Q 1631 397 2203 397 
Q 2534 397 2845 478 
Q 3156 559 3463 722 
L 3463 178 
Q 3153 47 2828 -22 
Q 2503 -91 2169 -91 
Q 1331 -91 842 396 
Q 353 884 353 1716 
Q 353 2575 817 3079 
Q 1281 3584 2069 3584 
Q 2775 3584 3186 3129 
Q 3597 2675 3597 1894 
z
M 3022 2063 
Q 3016 2534 2758 2815 
Q 2500 3097 2075 3097 
Q 1594 3097 1305 2825 
Q 1016 2553 972 2059 
L 3022 2063 
z
" transform="scale(0.015625)"/>
        <path id="DejaVuSans-20" transform="scale(0.015625)"/>
        <path id="DejaVuSans-6d" d="M 3328 2828 
Q 3544 3216 3844 3400 
Q 4144 3584 4550 3584 
Q 5097 3584 5394 3201 
Q 5691 2819 5691 2113 
L 5691 0 
L 5113 0 
L 5113 2094 
Q 5113 2597 4934 2840 
Q 4756 3084 4391 3084 
Q 3944 3084 3684 2787 
Q 3425 2491 3425 1978 
L 3425 0 
L 2847 0 
L 2847 2094 
Q 2847 2600 2669 2842 
Q 2491 3084 2119 3084 
Q 1678 3084 1418 2786 
Q 1159 2488 1159 1978 
L 1159 0 
L 581 0 
L 581 3500 
L 1159 3500 
L 1159 2956 
Q 1356 3278 1631 3431 
Q 1906 3584 2284 3584 
Q 2666 3584 2933 3390 
Q 3200 3197 3328 2828 
z
" transform="scale(0.015625)"/>
        <path id="DejaVuSans-61" d="M 2194 1759 
Q 1497 1759 1228 1600 
Q 959 1441 959 1056 
Q 959 750 1161 570 
Q 1363 391 1709 391 
Q 2188 391 2477 730 
Q 2766 1069 2766 1631 
L 2766 1759 
L 2194 1759 
z
M 3341 1997 
L 3341 0 
L 2766 0 
L 2766 531 
Q 2569 213 2275 61 
Q 1981 -91 1556 -91 
Q 1019 -91 701 211 
Q 384 513 384 1019 
Q 384 1609 779 1909 
Q 1175 2209 1959 2209 
L 2766 2209 
L 2766 2266 
Q 2766 2663 2505 2880 
Q 2244 3097 1772 3097 
Q 1472 3097 1187 3025 
Q 903 2953 641 2809 
L 641 3341 
Q 956 3463 1253 3523 
Q 1550 3584 1831 3584 
Q 2591 3584 2966 3190 
Q 3341 2797 3341 1997 
z
" transform="scale(0.015625)"/>
        <path id="DejaVuSans-72" d="M 2631 2963 
Q 2534 3019 2420 3045 
Q 2306 3072 2169 3072 
Q 1681 3072 1420 2755 
Q 1159 2438 1159 1844 
L 1159 0 
L 581 0 
L 581 3500 
L 1159 3500 
L 1159 2956 
Q 1341 3275 1631 3429 
Q 1922 3584 2338 3584 
Q 2397 3584 2469 3576 
Q 2541 3569 2628 3553 
L 2631 2963 
z
" transform="scale(0.015625)"/>
        <path id="DejaVuSans-77" d="M 269 3500 
L 844 3500 
L 1563 769 
L 2278 3500 
L 2956 3500 
L 3675 769 
L 4391 3500 
L 4966 3500 
L 4050 0 
L 3372 0 
L 2619 2869 
L 1863 0 
L 1184 0 
L 269 3500 
z
" transform="scale(0.015625)"/>
        <path id="DejaVuSans-64" d="M 2906 2969 
L 2906 4863 
L 3481 4863 
L 3481 0 
L 2906 0 
L 2906 525 
Q 2725 213 2448 61 
Q 2172 -91 1784 -91 
Q 1150 -91 751 415 
Q 353 922 353 1747 
Q 353 2572 751 3078 
Q 1150 3584 1784 3584 
Q 2172 3584 2448 3432 
Q 2725 3281 2906 2969 
z
M 947 1747 
Q 947 1113 1208 752 
Q 1469 391 1925 391 
Q 2381 391 2643 752 
Q 2906 1113 2906 1747 
Q 2906 2381 2643 2742 
Q 2381 3103 1925 3103 
Q 1469 3103 1208 2742 
Q 947 2381 947 1747 
z
" transform="scale(0.015625)"/>
        <path id="DejaVuSans-74" d="M 1172 4494 
L 1172 3500 
L 2356 3500 
L 2356 3053 
L 1172 3053 
L 1172 1153 
Q 1172 725 1289 603 
Q 1406 481 1766 481 
L 2356 481 
L 2356 0 
L 1766 0 
Q 1100 0 847 248 
Q 594 497 594 1153 
L 594 3053 
L 172 3053 
L 172 3500 
L 594 3500 
L 594 4494 
L 1172 4494 
z
" transform="scale(0.015625)"/>
        <path id="DejaVuSans-73" d="M 2834 3397 
L 2834 2853 
Q 2591 2978 2328 3040 
Q 2066 3103 1784 3103 
Q 1356 3103 1142 2972 
Q 928 2841 928 2578 
Q 928 2378 1081 2264 
Q 1234 2150 1697 2047 
L 1894 2003 
Q 2506 1872 2764 1633 
Q 3022 1394 3022 966 
Q 3022 478 2636 193 
Q 2250 -91 1575 -91 
Q 1294 -91 989 -36 
Q 684 19 347 128 
L 347 722 
Q 666 556 975 473 
Q 1284 391 1588 391 
Q 1994 391 2212 530 
Q 2431 669 2431 922 
Q 2431 1156 2273 1281 
Q 2116 1406 1581 1522 
L 1381 1569 
Q 847 1681 609 1914 
Q 372 2147 372 2553 
Q 372 3047 722 3315 
Q 1072 3584 1716 3584 
Q 2034 3584 2315 3537 
Q 2597 3491 2834 3397 
z
" transform="scale(0.015625)"/>
       </defs>
       <use xlink:href="#DejaVuSans-42"/>
       <use xlink:href="#DejaVuSans-6f" x="68.603516"/>
       <use xlink:href="#DejaVuSans-6e" x="129.785156"/>
       <use xlink:href="#DejaVuSans-65" x="193.164062"/>
       <use xlink:href="#DejaVuSans-20" x="254.6875"/>
       <use xlink:href="#DejaVuSans-6d" x="286.474609"/>
       <use xlink:href="#DejaVuSans-61" x="383.886719"/>
       <use xlink:href="#DejaVuSans-72" x="445.166016"/>
       <use xlink:href="#DejaVuSans-72" x="484.529297"/>
       <use xlink:href="#DejaVuSans-6f" x="523.392578"/>
       <use xlink:href="#DejaVuSans-77" x="584.574219"/>
       <use xlink:href="#DejaVuSans-20" x="666.361328"/>
       <use xlink:href="#DejaVuSans-64" x="698.148438"/>
       <use xlink:href="#DejaVuSans-61" x="761.625"/>
       <use xlink:href="#DejaVuSans-74" x="822.904297"/>
       <use xlink:href="#DejaVuSans-61" x="862.113281"/>
       <use xlink:href="#DejaVuSans-73" x="923.392578"/>
       <use xlink:href="#DejaVuSans-65" x="975.492188"/>
       <use xlink:href="#DejaVuSans-74" x="1037.015625"/>
      </g>
     </g>
    </g>
    <g id="xtick_2">
     <g id="line2d_2">
      <g>
       <use xlink:href="#md20af022ca" x="114.076667" y="228.961533" style="stroke: #000000; stroke-width: 0.8"/>
      </g>
     </g>
     <g id="text_2">
      <!-- PBMC dataset -->
      <g transform="translate(88.773845 263.215527) rotate(-45) scale(0.05 -0.05)">
       <defs>
        <path id="DejaVuSans-50" d="M 1259 4147 
L 1259 2394 
L 2053 2394 
Q 2494 2394 2734 2622 
Q 2975 2850 2975 3272 
Q 2975 3691 2734 3919 
Q 2494 4147 2053 4147 
L 1259 4147 
z
M 628 4666 
L 2053 4666 
Q 2838 4666 3239 4311 
Q 3641 3956 3641 3272 
Q 3641 2581 3239 2228 
Q 2838 1875 2053 1875 
L 1259 1875 
L 1259 0 
L 628 0 
L 628 4666 
z
" transform="scale(0.015625)"/>
        <path id="DejaVuSans-4d" d="M 628 4666 
L 1569 4666 
L 2759 1491 
L 3956 4666 
L 4897 4666 
L 4897 0 
L 4281 0 
L 4281 4097 
L 3078 897 
L 2444 897 
L 1241 4097 
L 1241 0 
L 628 0 
L 628 4666 
z
" transform="scale(0.015625)"/>
        <path id="DejaVuSans-43" d="M 4122 4306 
L 4122 3641 
Q 3803 3938 3442 4084 
Q 3081 4231 2675 4231 
Q 1875 4231 1450 3742 
Q 1025 3253 1025 2328 
Q 1025 1406 1450 917 
Q 1875 428 2675 428 
Q 3081 428 3442 575 
Q 3803 722 4122 1019 
L 4122 359 
Q 3791 134 3420 21 
Q 3050 -91 2638 -91 
Q 1578 -91 968 557 
Q 359 1206 359 2328 
Q 359 3453 968 4101 
Q 1578 4750 2638 4750 
Q 3056 4750 3426 4639 
Q 3797 4528 4122 4306 
z
" transform="scale(0.015625)"/>
       </defs>
       <use xlink:href="#DejaVuSans-50"/>
       <use xlink:href="#DejaVuSans-42" x="60.302734"/>
       <use xlink:href="#DejaVuSans-4d" x="128.90625"/>
       <use xlink:href="#DejaVuSans-43" x="215.185547"/>
       <use xlink:href="#DejaVuSans-20" x="285.009766"/>
       <use xlink:href="#DejaVuSans-64" x="316.796875"/>
       <use xlink:href="#DejaVuSans-61" x="380.273438"/>
       <use xlink:href="#DejaVuSans-74" x="441.552734"/>
       <use xlink:href="#DejaVuSans-61" x="480.761719"/>
       <use xlink:href="#DejaVuSans-73" x="542.041016"/>
       <use xlink:href="#DejaVuSans-65" x="594.140625"/>
       <use xlink:href="#DejaVuSans-74" x="655.664062"/>
      </g>
     </g>
    </g>
    <g id="xtick_3">
     <g id="line2d_3">
      <g>
       <use xlink:href="#md20af022ca" x="165.394444" y="228.961533" style="stroke: #000000; stroke-width: 0.8"/>
      </g>
     </g>
     <g id="text_3">
      <!-- Kidney dataset -->
      <g transform="translate(138.114486 265.192664) rotate(-45) scale(0.05 -0.05)">
       <defs>
        <path id="DejaVuSans-4b" d="M 628 4666 
L 1259 4666 
L 1259 2694 
L 3353 4666 
L 4166 4666 
L 1850 2491 
L 4331 0 
L 3500 0 
L 1259 2247 
L 1259 0 
L 628 0 
L 628 4666 
z
" transform="scale(0.015625)"/>
        <path id="DejaVuSans-69" d="M 603 3500 
L 1178 3500 
L 1178 0 
L 603 0 
L 603 3500 
z
M 603 4863 
L 1178 4863 
L 1178 4134 
L 603 4134 
L 603 4863 
z
" transform="scale(0.015625)"/>
        <path id="DejaVuSans-79" d="M 2059 -325 
Q 1816 -950 1584 -1140 
Q 1353 -1331 966 -1331 
L 506 -1331 
L 506 -850 
L 844 -850 
Q 1081 -850 1212 -737 
Q 1344 -625 1503 -206 
L 1606 56 
L 191 3500 
L 800 3500 
L 1894 763 
L 2988 3500 
L 3597 3500 
L 2059 -325 
z
" transform="scale(0.015625)"/>
       </defs>
       <use xlink:href="#DejaVuSans-4b"/>
       <use xlink:href="#DejaVuSans-69" x="65.576172"/>
       <use xlink:href="#DejaVuSans-64" x="93.359375"/>
       <use xlink:href="#DejaVuSans-6e" x="156.835938"/>
       <use xlink:href="#DejaVuSans-65" x="220.214844"/>
       <use xlink:href="#DejaVuSans-79" x="281.738281"/>
       <use xlink:href="#DejaVuSans-20" x="340.917969"/>
       <use xlink:href="#DejaVuSans-64" x="372.705078"/>
       <use xlink:href="#DejaVuSans-61" x="436.181641"/>
       <use xlink:href="#DejaVuSans-74" x="497.460938"/>
       <use xlink:href="#DejaVuSans-61" x="536.669922"/>
       <use xlink:href="#DejaVuSans-73" x="597.949219"/>
       <use xlink:href="#DejaVuSans-65" x="650.048828"/>
       <use xlink:href="#DejaVuSans-74" x="711.572266"/>
      </g>
     </g>
    </g>
    <g id="xtick_4">
     <g id="line2d_4">
      <g>
       <use xlink:href="#md20af022ca" x="216.712222" y="228.961533" style="stroke: #000000; stroke-width: 0.8"/>
      </g>
     </g>
     <g id="text_4">
      <!-- Pancreas dataset -->
      <g transform="translate(185.604496 269.020432) rotate(-45) scale(0.05 -0.05)">
       <defs>
        <path id="DejaVuSans-63" d="M 3122 3366 
L 3122 2828 
Q 2878 2963 2633 3030 
Q 2388 3097 2138 3097 
Q 1578 3097 1268 2742 
Q 959 2388 959 1747 
Q 959 1106 1268 751 
Q 1578 397 2138 397 
Q 2388 397 2633 464 
Q 2878 531 3122 666 
L 3122 134 
Q 2881 22 2623 -34 
Q 2366 -91 2075 -91 
Q 1284 -91 818 406 
Q 353 903 353 1747 
Q 353 2603 823 3093 
Q 1294 3584 2113 3584 
Q 2378 3584 2631 3529 
Q 2884 3475 3122 3366 
z
" transform="scale(0.015625)"/>
       </defs>
       <use xlink:href="#DejaVuSans-50"/>
       <use xlink:href="#DejaVuSans-61" x="55.802734"/>
       <use xlink:href="#DejaVuSans-6e" x="117.082031"/>
       <use xlink:href="#DejaVuSans-63" x="180.460938"/>
       <use xlink:href="#DejaVuSans-72" x="235.441406"/>
       <use xlink:href="#DejaVuSans-65" x="274.304688"/>
       <use xlink:href="#DejaVuSans-61" x="335.828125"/>
       <use xlink:href="#DejaVuSans-73" x="397.107422"/>
       <use xlink:href="#DejaVuSans-20" x="449.207031"/>
       <use xlink:href="#DejaVuSans-64" x="480.994141"/>
       <use xlink:href="#DejaVuSans-61" x="544.470703"/>
       <use xlink:href="#DejaVuSans-74" x="605.75"/>
       <use xlink:href="#DejaVuSans-61" x="644.958984"/>
       <use xlink:href="#DejaVuSans-73" x="706.238281"/>
       <use xlink:href="#DejaVuSans-65" x="758.337891"/>
       <use xlink:href="#DejaVuSans-74" x="819.861328"/>
      </g>
     </g>
    </g>
    <g id="xtick_5">
     <g id="line2d_5">
      <g>
       <use xlink:href="#md20af022ca" x="268.03" y="228.961533" style="stroke: #000000; stroke-width: 0.8"/>
      </g>
     </g>
     <g id="text_5">
      <!-- Merged dataset -->
      <g transform="translate(239.521996 266.42071) rotate(-45) scale(0.05 -0.05)">
       <defs>
        <path id="DejaVuSans-67" d="M 2906 1791 
Q 2906 2416 2648 2759 
Q 2391 3103 1925 3103 
Q 1463 3103 1205 2759 
Q 947 2416 947 1791 
Q 947 1169 1205 825 
Q 1463 481 1925 481 
Q 2391 481 2648 825 
Q 2906 1169 2906 1791 
z
M 3481 434 
Q 3481 -459 3084 -895 
Q 2688 -1331 1869 -1331 
Q 1566 -1331 1297 -1286 
Q 1028 -1241 775 -1147 
L 775 -588 
Q 1028 -725 1275 -790 
Q 1522 -856 1778 -856 
Q 2344 -856 2625 -561 
Q 2906 -266 2906 331 
L 2906 616 
Q 2728 306 2450 153 
Q 2172 0 1784 0 
Q 1141 0 747 490 
Q 353 981 353 1791 
Q 353 2603 747 3093 
Q 1141 3584 1784 3584 
Q 2172 3584 2450 3431 
Q 2728 3278 2906 2969 
L 2906 3500 
L 3481 3500 
L 3481 434 
z
" transform="scale(0.015625)"/>
       </defs>
       <use xlink:href="#DejaVuSans-4d"/>
       <use xlink:href="#DejaVuSans-65" x="86.279297"/>
       <use xlink:href="#DejaVuSans-72" x="147.802734"/>
       <use xlink:href="#DejaVuSans-67" x="187.166016"/>
       <use xlink:href="#DejaVuSans-65" x="250.642578"/>
       <use xlink:href="#DejaVuSans-64" x="312.166016"/>
       <use xlink:href="#DejaVuSans-20" x="375.642578"/>
       <use xlink:href="#DejaVuSans-64" x="407.429688"/>
       <use xlink:href="#DejaVuSans-61" x="470.90625"/>
       <use xlink:href="#DejaVuSans-74" x="532.185547"/>
       <use xlink:href="#DejaVuSans-61" x="571.394531"/>
       <use xlink:href="#DejaVuSans-73" x="632.673828"/>
       <use xlink:href="#DejaVuSans-65" x="684.773438"/>
       <use xlink:href="#DejaVuSans-74" x="746.296875"/>
      </g>
     </g>
    </g>
    <g id="xtick_6">
     <g id="line2d_6">
      <g>
       <use xlink:href="#md20af022ca" x="319.347778" y="228.961533" style="stroke: #000000; stroke-width: 0.8"/>
      </g>
     </g>
     <g id="text_6">
      <!-- Baron dataset -->
      <g transform="translate(293.751617 263.508866) rotate(-45) scale(0.05 -0.05)">
       <use xlink:href="#DejaVuSans-42"/>
       <use xlink:href="#DejaVuSans-61" x="68.603516"/>
       <use xlink:href="#DejaVuSans-72" x="129.882812"/>
       <use xlink:href="#DejaVuSans-6f" x="168.746094"/>
       <use xlink:href="#DejaVuSans-6e" x="229.927734"/>
       <use xlink:href="#DejaVuSans-20" x="293.306641"/>
       <use xlink:href="#DejaVuSans-64" x="325.09375"/>
       <use xlink:href="#DejaVuSans-61" x="388.570312"/>
       <use xlink:href="#DejaVuSans-74" x="449.849609"/>
       <use xlink:href="#DejaVuSans-61" x="489.058594"/>
       <use xlink:href="#DejaVuSans-73" x="550.337891"/>
       <use xlink:href="#DejaVuSans-65" x="602.4375"/>
       <use xlink:href="#DejaVuSans-74" x="663.960938"/>
      </g>
     </g>
    </g>
    <g id="xtick_7">
     <g id="line2d_7">
      <g>
       <use xlink:href="#md20af022ca" x="370.665556" y="228.961533" style="stroke: #000000; stroke-width: 0.8"/>
      </g>
     </g>
     <g id="text_7">
      <!-- MacParland dataset -->
      <g transform="translate(335.051681 273.52658) rotate(-45) scale(0.05 -0.05)">
       <defs>
        <path id="DejaVuSans-6c" d="M 603 4863 
L 1178 4863 
L 1178 0 
L 603 0 
L 603 4863 
z
" transform="scale(0.015625)"/>
       </defs>
       <use xlink:href="#DejaVuSans-4d"/>
       <use xlink:href="#DejaVuSans-61" x="86.279297"/>
       <use xlink:href="#DejaVuSans-63" x="147.558594"/>
       <use xlink:href="#DejaVuSans-50" x="202.539062"/>
       <use xlink:href="#DejaVuSans-61" x="258.341797"/>
       <use xlink:href="#DejaVuSans-72" x="319.621094"/>
       <use xlink:href="#DejaVuSans-6c" x="360.734375"/>
       <use xlink:href="#DejaVuSans-61" x="388.517578"/>
       <use xlink:href="#DejaVuSans-6e" x="449.796875"/>
       <use xlink:href="#DejaVuSans-64" x="513.175781"/>
       <use xlink:href="#DejaVuSans-20" x="576.652344"/>
       <use xlink:href="#DejaVuSans-64" x="608.439453"/>
       <use xlink:href="#DejaVuSans-61" x="671.916016"/>
       <use xlink:href="#DejaVuSans-74" x="733.195312"/>
       <use xlink:href="#DejaVuSans-61" x="772.404297"/>
       <use xlink:href="#DejaVuSans-73" x="833.683594"/>
       <use xlink:href="#DejaVuSans-65" x="885.783203"/>
       <use xlink:href="#DejaVuSans-74" x="947.306641"/>
      </g>
     </g>
    </g>
    <g id="xtick_8">
     <g id="line2d_8">
      <g>
       <use xlink:href="#md20af022ca" x="421.983333" y="228.961533" style="stroke: #000000; stroke-width: 0.8"/>
      </g>
     </g>
     <g id="text_8">
      <!-- Segerstolpe dataset -->
      <g transform="translate(385.670638 274.225401) rotate(-45) scale(0.05 -0.05)">
       <defs>
        <path id="DejaVuSans-53" d="M 3425 4513 
L 3425 3897 
Q 3066 4069 2747 4153 
Q 2428 4238 2131 4238 
Q 1616 4238 1336 4038 
Q 1056 3838 1056 3469 
Q 1056 3159 1242 3001 
Q 1428 2844 1947 2747 
L 2328 2669 
Q 3034 2534 3370 2195 
Q 3706 1856 3706 1288 
Q 3706 609 3251 259 
Q 2797 -91 1919 -91 
Q 1588 -91 1214 -16 
Q 841 59 441 206 
L 441 856 
Q 825 641 1194 531 
Q 1563 422 1919 422 
Q 2459 422 2753 634 
Q 3047 847 3047 1241 
Q 3047 1584 2836 1778 
Q 2625 1972 2144 2069 
L 1759 2144 
Q 1053 2284 737 2584 
Q 422 2884 422 3419 
Q 422 4038 858 4394 
Q 1294 4750 2059 4750 
Q 2388 4750 2728 4690 
Q 3069 4631 3425 4513 
z
" transform="scale(0.015625)"/>
        <path id="DejaVuSans-70" d="M 1159 525 
L 1159 -1331 
L 581 -1331 
L 581 3500 
L 1159 3500 
L 1159 2969 
Q 1341 3281 1617 3432 
Q 1894 3584 2278 3584 
Q 2916 3584 3314 3078 
Q 3713 2572 3713 1747 
Q 3713 922 3314 415 
Q 2916 -91 2278 -91 
Q 1894 -91 1617 61 
Q 1341 213 1159 525 
z
M 3116 1747 
Q 3116 2381 2855 2742 
Q 2594 3103 2138 3103 
Q 1681 3103 1420 2742 
Q 1159 2381 1159 1747 
Q 1159 1113 1420 752 
Q 1681 391 2138 391 
Q 2594 391 2855 752 
Q 3116 1113 3116 1747 
z
" transform="scale(0.015625)"/>
       </defs>
       <use xlink:href="#DejaVuSans-53"/>
       <use xlink:href="#DejaVuSans-65" x="63.476562"/>
       <use xlink:href="#DejaVuSans-67" x="125"/>
       <use xlink:href="#DejaVuSans-65" x="188.476562"/>
       <use xlink:href="#DejaVuSans-72" x="250"/>
       <use xlink:href="#DejaVuSans-73" x="291.113281"/>
       <use xlink:href="#DejaVuSans-74" x="343.212891"/>
       <use xlink:href="#DejaVuSans-6f" x="382.421875"/>
       <use xlink:href="#DejaVuSans-6c" x="443.603516"/>
       <use xlink:href="#DejaVuSans-70" x="471.386719"/>
       <use xlink:href="#DejaVuSans-65" x="534.863281"/>
       <use xlink:href="#DejaVuSans-20" x="596.386719"/>
       <use xlink:href="#DejaVuSans-64" x="628.173828"/>
       <use xlink:href="#DejaVuSans-61" x="691.650391"/>
       <use xlink:href="#DejaVuSans-74" x="752.929688"/>
       <use xlink:href="#DejaVuSans-61" x="792.138672"/>
       <use xlink:href="#DejaVuSans-73" x="853.417969"/>
       <use xlink:href="#DejaVuSans-65" x="905.517578"/>
       <use xlink:href="#DejaVuSans-74" x="967.041016"/>
      </g>
     </g>
    </g>
    <g id="xtick_9">
     <g id="line2d_9">
      <g>
       <use xlink:href="#md20af022ca" x="473.301111" y="228.961533" style="stroke: #000000; stroke-width: 0.8"/>
      </g>
     </g>
     <g id="text_9">
      <!-- Zheng68k dataset -->
      <g transform="translate(440.205752 271.008065) rotate(-45) scale(0.05 -0.05)">
       <defs>
        <path id="DejaVuSans-5a" d="M 359 4666 
L 4025 4666 
L 4025 4184 
L 1075 531 
L 4097 531 
L 4097 0 
L 288 0 
L 288 481 
L 3238 4134 
L 359 4134 
L 359 4666 
z
" transform="scale(0.015625)"/>
        <path id="DejaVuSans-68" d="M 3513 2113 
L 3513 0 
L 2938 0 
L 2938 2094 
Q 2938 2591 2744 2837 
Q 2550 3084 2163 3084 
Q 1697 3084 1428 2787 
Q 1159 2491 1159 1978 
L 1159 0 
L 581 0 
L 581 4863 
L 1159 4863 
L 1159 2956 
Q 1366 3272 1645 3428 
Q 1925 3584 2291 3584 
Q 2894 3584 3203 3211 
Q 3513 2838 3513 2113 
z
" transform="scale(0.015625)"/>
        <path id="DejaVuSans-36" d="M 2113 2584 
Q 1688 2584 1439 2293 
Q 1191 2003 1191 1497 
Q 1191 994 1439 701 
Q 1688 409 2113 409 
Q 2538 409 2786 701 
Q 3034 994 3034 1497 
Q 3034 2003 2786 2293 
Q 2538 2584 2113 2584 
z
M 3366 4563 
L 3366 3988 
Q 3128 4100 2886 4159 
Q 2644 4219 2406 4219 
Q 1781 4219 1451 3797 
Q 1122 3375 1075 2522 
Q 1259 2794 1537 2939 
Q 1816 3084 2150 3084 
Q 2853 3084 3261 2657 
Q 3669 2231 3669 1497 
Q 3669 778 3244 343 
Q 2819 -91 2113 -91 
Q 1303 -91 875 529 
Q 447 1150 447 2328 
Q 447 3434 972 4092 
Q 1497 4750 2381 4750 
Q 2619 4750 2861 4703 
Q 3103 4656 3366 4563 
z
" transform="scale(0.015625)"/>
        <path id="DejaVuSans-38" d="M 2034 2216 
Q 1584 2216 1326 1975 
Q 1069 1734 1069 1313 
Q 1069 891 1326 650 
Q 1584 409 2034 409 
Q 2484 409 2743 651 
Q 3003 894 3003 1313 
Q 3003 1734 2745 1975 
Q 2488 2216 2034 2216 
z
M 1403 2484 
Q 997 2584 770 2862 
Q 544 3141 544 3541 
Q 544 4100 942 4425 
Q 1341 4750 2034 4750 
Q 2731 4750 3128 4425 
Q 3525 4100 3525 3541 
Q 3525 3141 3298 2862 
Q 3072 2584 2669 2484 
Q 3125 2378 3379 2068 
Q 3634 1759 3634 1313 
Q 3634 634 3220 271 
Q 2806 -91 2034 -91 
Q 1263 -91 848 271 
Q 434 634 434 1313 
Q 434 1759 690 2068 
Q 947 2378 1403 2484 
z
M 1172 3481 
Q 1172 3119 1398 2916 
Q 1625 2713 2034 2713 
Q 2441 2713 2670 2916 
Q 2900 3119 2900 3481 
Q 2900 3844 2670 4047 
Q 2441 4250 2034 4250 
Q 1625 4250 1398 4047 
Q 1172 3844 1172 3481 
z
" transform="scale(0.015625)"/>
        <path id="DejaVuSans-6b" d="M 581 4863 
L 1159 4863 
L 1159 1991 
L 2875 3500 
L 3609 3500 
L 1753 1863 
L 3688 0 
L 2938 0 
L 1159 1709 
L 1159 0 
L 581 0 
L 581 4863 
z
" transform="scale(0.015625)"/>
       </defs>
       <use xlink:href="#DejaVuSans-5a"/>
       <use xlink:href="#DejaVuSans-68" x="68.505859"/>
       <use xlink:href="#DejaVuSans-65" x="131.884766"/>
       <use xlink:href="#DejaVuSans-6e" x="193.408203"/>
       <use xlink:href="#DejaVuSans-67" x="256.787109"/>
       <use xlink:href="#DejaVuSans-36" x="320.263672"/>
       <use xlink:href="#DejaVuSans-38" x="383.886719"/>
       <use xlink:href="#DejaVuSans-6b" x="447.509766"/>
       <use xlink:href="#DejaVuSans-20" x="505.419922"/>
       <use xlink:href="#DejaVuSans-64" x="537.207031"/>
       <use xlink:href="#DejaVuSans-61" x="600.683594"/>
       <use xlink:href="#DejaVuSans-74" x="661.962891"/>
       <use xlink:href="#DejaVuSans-61" x="701.171875"/>
       <use xlink:href="#DejaVuSans-73" x="762.451172"/>
       <use xlink:href="#DejaVuSans-65" x="814.550781"/>
       <use xlink:href="#DejaVuSans-74" x="876.074219"/>
      </g>
     </g>
    </g>
   </g>
   <g id="matplotlib.axis_2">
    <g id="ytick_1">
     <g id="line2d_10">
      <defs>
       <path id="m9f91c604a2" d="M 0 0 
L -3.5 0 
" style="stroke: #000000; stroke-width: 0.8"/>
      </defs>
      <g>
       <use xlink:href="#m9f91c604a2" x="37.1" y="201.280127" style="stroke: #000000; stroke-width: 0.8"/>
      </g>
     </g>
     <g id="text_10">
      <!-- 0.0 -->
      <g transform="translate(22.148438 203.179736) scale(0.05 -0.05)">
       <defs>
        <path id="DejaVuSans-30" d="M 2034 4250 
Q 1547 4250 1301 3770 
Q 1056 3291 1056 2328 
Q 1056 1369 1301 889 
Q 1547 409 2034 409 
Q 2525 409 2770 889 
Q 3016 1369 3016 2328 
Q 3016 3291 2770 3770 
Q 2525 4250 2034 4250 
z
M 2034 4750 
Q 2819 4750 3233 4129 
Q 3647 3509 3647 2328 
Q 3647 1150 3233 529 
Q 2819 -91 2034 -91 
Q 1250 -91 836 529 
Q 422 1150 422 2328 
Q 422 3509 836 4129 
Q 1250 4750 2034 4750 
z
" transform="scale(0.015625)"/>
        <path id="DejaVuSans-2e" d="M 684 794 
L 1344 794 
L 1344 0 
L 684 0 
L 684 794 
z
" transform="scale(0.015625)"/>
       </defs>
       <use xlink:href="#DejaVuSans-30"/>
       <use xlink:href="#DejaVuSans-2e" x="63.623047"/>
       <use xlink:href="#DejaVuSans-30" x="95.410156"/>
      </g>
     </g>
    </g>
    <g id="ytick_2">
     <g id="line2d_11">
      <g>
       <use xlink:href="#m9f91c604a2" x="37.1" y="172.620503" style="stroke: #000000; stroke-width: 0.8"/>
      </g>
     </g>
     <g id="text_11">
      <!-- 0.1 -->
      <g transform="translate(22.148438 174.520112) scale(0.05 -0.05)">
       <defs>
        <path id="DejaVuSans-31" d="M 794 531 
L 1825 531 
L 1825 4091 
L 703 3866 
L 703 4441 
L 1819 4666 
L 2450 4666 
L 2450 531 
L 3481 531 
L 3481 0 
L 794 0 
L 794 531 
z
" transform="scale(0.015625)"/>
       </defs>
       <use xlink:href="#DejaVuSans-30"/>
       <use xlink:href="#DejaVuSans-2e" x="63.623047"/>
       <use xlink:href="#DejaVuSans-31" x="95.410156"/>
      </g>
     </g>
    </g>
    <g id="ytick_3">
     <g id="line2d_12">
      <g>
       <use xlink:href="#m9f91c604a2" x="37.1" y="143.960879" style="stroke: #000000; stroke-width: 0.8"/>
      </g>
     </g>
     <g id="text_12">
      <!-- 0.2 -->
      <g transform="translate(22.148438 145.860489) scale(0.05 -0.05)">
       <defs>
        <path id="DejaVuSans-32" d="M 1228 531 
L 3431 531 
L 3431 0 
L 469 0 
L 469 531 
Q 828 903 1448 1529 
Q 2069 2156 2228 2338 
Q 2531 2678 2651 2914 
Q 2772 3150 2772 3378 
Q 2772 3750 2511 3984 
Q 2250 4219 1831 4219 
Q 1534 4219 1204 4116 
Q 875 4013 500 3803 
L 500 4441 
Q 881 4594 1212 4672 
Q 1544 4750 1819 4750 
Q 2544 4750 2975 4387 
Q 3406 4025 3406 3419 
Q 3406 3131 3298 2873 
Q 3191 2616 2906 2266 
Q 2828 2175 2409 1742 
Q 1991 1309 1228 531 
z
" transform="scale(0.015625)"/>
       </defs>
       <use xlink:href="#DejaVuSans-30"/>
       <use xlink:href="#DejaVuSans-2e" x="63.623047"/>
       <use xlink:href="#DejaVuSans-32" x="95.410156"/>
      </g>
     </g>
    </g>
    <g id="ytick_4">
     <g id="line2d_13">
      <g>
       <use xlink:href="#m9f91c604a2" x="37.1" y="115.301255" style="stroke: #000000; stroke-width: 0.8"/>
      </g>
     </g>
     <g id="text_13">
      <!-- 0.3 -->
      <g transform="translate(22.148438 117.200865) scale(0.05 -0.05)">
       <defs>
        <path id="DejaVuSans-33" d="M 2597 2516 
Q 3050 2419 3304 2112 
Q 3559 1806 3559 1356 
Q 3559 666 3084 287 
Q 2609 -91 1734 -91 
Q 1441 -91 1130 -33 
Q 819 25 488 141 
L 488 750 
Q 750 597 1062 519 
Q 1375 441 1716 441 
Q 2309 441 2620 675 
Q 2931 909 2931 1356 
Q 2931 1769 2642 2001 
Q 2353 2234 1838 2234 
L 1294 2234 
L 1294 2753 
L 1863 2753 
Q 2328 2753 2575 2939 
Q 2822 3125 2822 3475 
Q 2822 3834 2567 4026 
Q 2313 4219 1838 4219 
Q 1578 4219 1281 4162 
Q 984 4106 628 3988 
L 628 4550 
Q 988 4650 1302 4700 
Q 1616 4750 1894 4750 
Q 2613 4750 3031 4423 
Q 3450 4097 3450 3541 
Q 3450 3153 3228 2886 
Q 3006 2619 2597 2516 
z
" transform="scale(0.015625)"/>
       </defs>
       <use xlink:href="#DejaVuSans-30"/>
       <use xlink:href="#DejaVuSans-2e" x="63.623047"/>
       <use xlink:href="#DejaVuSans-33" x="95.410156"/>
      </g>
     </g>
    </g>
    <g id="ytick_5">
     <g id="line2d_14">
      <g>
       <use xlink:href="#m9f91c604a2" x="37.1" y="86.641631" style="stroke: #000000; stroke-width: 0.8"/>
      </g>
     </g>
     <g id="text_14">
      <!-- 0.4 -->
      <g transform="translate(22.148438 88.541241) scale(0.05 -0.05)">
       <defs>
        <path id="DejaVuSans-34" d="M 2419 4116 
L 825 1625 
L 2419 1625 
L 2419 4116 
z
M 2253 4666 
L 3047 4666 
L 3047 1625 
L 3713 1625 
L 3713 1100 
L 3047 1100 
L 3047 0 
L 2419 0 
L 2419 1100 
L 313 1100 
L 313 1709 
L 2253 4666 
z
" transform="scale(0.015625)"/>
       </defs>
       <use xlink:href="#DejaVuSans-30"/>
       <use xlink:href="#DejaVuSans-2e" x="63.623047"/>
       <use xlink:href="#DejaVuSans-34" x="95.410156"/>
      </g>
     </g>
    </g>
    <g id="ytick_6">
     <g id="line2d_15">
      <g>
       <use xlink:href="#m9f91c604a2" x="37.1" y="57.982008" style="stroke: #000000; stroke-width: 0.8"/>
      </g>
     </g>
     <g id="text_15">
      <!-- 0.5 -->
      <g transform="translate(22.148438 59.881617) scale(0.05 -0.05)">
       <defs>
        <path id="DejaVuSans-35" d="M 691 4666 
L 3169 4666 
L 3169 4134 
L 1269 4134 
L 1269 2991 
Q 1406 3038 1543 3061 
Q 1681 3084 1819 3084 
Q 2600 3084 3056 2656 
Q 3513 2228 3513 1497 
Q 3513 744 3044 326 
Q 2575 -91 1722 -91 
Q 1428 -91 1123 -41 
Q 819 9 494 109 
L 494 744 
Q 775 591 1075 516 
Q 1375 441 1709 441 
Q 2250 441 2565 725 
Q 2881 1009 2881 1497 
Q 2881 1984 2565 2268 
Q 2250 2553 1709 2553 
Q 1456 2553 1204 2497 
Q 953 2441 691 2322 
L 691 4666 
z
" transform="scale(0.015625)"/>
       </defs>
       <use xlink:href="#DejaVuSans-30"/>
       <use xlink:href="#DejaVuSans-2e" x="63.623047"/>
       <use xlink:href="#DejaVuSans-35" x="95.410156"/>
      </g>
     </g>
    </g>
    <g id="ytick_7">
     <g id="line2d_16">
      <g>
       <use xlink:href="#m9f91c604a2" x="37.1" y="29.322384" style="stroke: #000000; stroke-width: 0.8"/>
      </g>
     </g>
     <g id="text_16">
      <!-- 0.6 -->
      <g transform="translate(22.148438 31.221993) scale(0.05 -0.05)">
       <use xlink:href="#DejaVuSans-30"/>
       <use xlink:href="#DejaVuSans-2e" x="63.623047"/>
       <use xlink:href="#DejaVuSans-36" x="95.410156"/>
      </g>
     </g>
    </g>
    <g id="text_17">
     <!-- CV Score -->
     <g transform="translate(16.692656 135.632954) rotate(-90) scale(0.07 -0.07)">
      <defs>
       <path id="DejaVuSans-56" d="M 1831 0 
L 50 4666 
L 709 4666 
L 2188 738 
L 3669 4666 
L 4325 4666 
L 2547 0 
L 1831 0 
z
" transform="scale(0.015625)"/>
      </defs>
      <use xlink:href="#DejaVuSans-43"/>
      <use xlink:href="#DejaVuSans-56" x="69.824219"/>
      <use xlink:href="#DejaVuSans-20" x="138.232422"/>
      <use xlink:href="#DejaVuSans-53" x="170.019531"/>
      <use xlink:href="#DejaVuSans-63" x="233.496094"/>
      <use xlink:href="#DejaVuSans-6f" x="288.476562"/>
      <use xlink:href="#DejaVuSans-72" x="349.658203"/>
      <use xlink:href="#DejaVuSans-65" x="388.521484"/>
     </g>
    </g>
   </g>
   <g id="line2d_17">
    <path d="M 62.758889 199.526037 
L 62.758889 158.443637 
" clip-path="url(#p83f8ad44b2)" style="fill: none; stroke: #515151; stroke-width: 1.5; stroke-linecap: square"/>
   </g>
   <g id="line2d_18">
    <path d="M 62.758889 191.676889 
L 62.758889 174.948348 
" clip-path="url(#p83f8ad44b2)" style="fill: none; stroke: #515151; stroke-width: 4.5; stroke-linecap: square"/>
   </g>
   <g id="line2d_19">
    <path d="M 114.076667 200.221828 
L 114.076667 159.636651 
" clip-path="url(#p83f8ad44b2)" style="fill: none; stroke: #515151; stroke-width: 1.5; stroke-linecap: square"/>
   </g>
   <g id="line2d_20">
    <path d="M 114.076667 185.936074 
L 114.076667 175.05946 
" clip-path="url(#p83f8ad44b2)" style="fill: none; stroke: #515151; stroke-width: 4.5; stroke-linecap: square"/>
   </g>
   <g id="line2d_21">
    <path d="M 165.394444 200.880537 
L 165.394444 163.85204 
" clip-path="url(#p83f8ad44b2)" style="fill: none; stroke: #515151; stroke-width: 1.5; stroke-linecap: square"/>
   </g>
   <g id="line2d_22">
    <path d="M 165.394444 188.848755 
L 165.394444 178.228655 
" clip-path="url(#p83f8ad44b2)" style="fill: none; stroke: #515151; stroke-width: 4.5; stroke-linecap: square"/>
   </g>
   <g id="line2d_23">
    <path d="M 216.712222 198.6028 
L 216.712222 153.012715 
" clip-path="url(#p83f8ad44b2)" style="fill: none; stroke: #515151; stroke-width: 1.5; stroke-linecap: square"/>
   </g>
   <g id="line2d_24">
    <path d="M 216.712222 191.128298 
L 216.712222 168.789156 
" clip-path="url(#p83f8ad44b2)" style="fill: none; stroke: #515151; stroke-width: 4.5; stroke-linecap: square"/>
   </g>
   <g id="line2d_25">
    <path d="M 268.03 199.694166 
L 268.03 137.664179 
" clip-path="url(#p83f8ad44b2)" style="fill: none; stroke: #515151; stroke-width: 1.5; stroke-linecap: square"/>
   </g>
   <g id="line2d_26">
    <path d="M 268.03 184.656705 
L 268.03 163.086888 
" clip-path="url(#p83f8ad44b2)" style="fill: none; stroke: #515151; stroke-width: 4.5; stroke-linecap: square"/>
   </g>
   <g id="line2d_27">
    <path d="M 319.347778 198.280352 
L 319.347778 149.443116 
" clip-path="url(#p83f8ad44b2)" style="fill: none; stroke: #515151; stroke-width: 1.5; stroke-linecap: square"/>
   </g>
   <g id="line2d_28">
    <path d="M 319.347778 189.975227 
L 319.347778 171.020375 
" clip-path="url(#p83f8ad44b2)" style="fill: none; stroke: #515151; stroke-width: 4.5; stroke-linecap: square"/>
   </g>
   <g id="line2d_29">
    <path d="M 370.665556 200.775456 
L 370.665556 138.740865 
" clip-path="url(#p83f8ad44b2)" style="fill: none; stroke: #515151; stroke-width: 1.5; stroke-linecap: square"/>
   </g>
   <g id="line2d_30">
    <path d="M 370.665556 182.018079 
L 370.665556 161.496656 
" clip-path="url(#p83f8ad44b2)" style="fill: none; stroke: #515151; stroke-width: 4.5; stroke-linecap: square"/>
   </g>
   <g id="line2d_31">
    <path d="M 421.983333 195.929349 
L 421.983333 112.544859 
" clip-path="url(#p83f8ad44b2)" style="fill: none; stroke: #515151; stroke-width: 1.5; stroke-linecap: square"/>
   </g>
   <g id="line2d_32">
    <path d="M 421.983333 178.466576 
L 421.983333 149.79085 
" clip-path="url(#p83f8ad44b2)" style="fill: none; stroke: #515151; stroke-width: 4.5; stroke-linecap: square"/>
   </g>
   <g id="line2d_33">
    <path d="M 473.301111 199.027667 
L 473.301111 132.686079 
" clip-path="url(#p83f8ad44b2)" style="fill: none; stroke: #515151; stroke-width: 1.5; stroke-linecap: square"/>
   </g>
   <g id="line2d_34">
    <path d="M 473.301111 197.254661 
L 473.301111 171.28185 
" clip-path="url(#p83f8ad44b2)" style="fill: none; stroke: #515151; stroke-width: 4.5; stroke-linecap: square"/>
   </g>
   <g id="patch_3">
    <path d="M 37.1 228.961533 
L 37.1 10.8 
" style="fill: none; stroke: #000000; stroke-width: 0.8; stroke-linejoin: miter; stroke-linecap: square"/>
   </g>
   <g id="patch_4">
    <path d="M 498.96 228.961533 
L 498.96 10.8 
" style="fill: none; stroke: #000000; stroke-width: 0.8; stroke-linejoin: miter; stroke-linecap: square"/>
   </g>
   <g id="patch_5">
    <path d="M 37.1 228.961533 
L 498.96 228.961533 
" style="fill: none; stroke: #000000; stroke-width: 0.8; stroke-linejoin: miter; stroke-linecap: square"/>
   </g>
   <g id="patch_6">
    <path d="M 37.1 10.8 
L 498.96 10.8 
" style="fill: none; stroke: #000000; stroke-width: 0.8; stroke-linejoin: miter; stroke-linecap: square"/>
   </g>
   <g id="PathCollection_1">
    <defs>
     <path id="m387107bc4d" d="M 0 1.5 
C 0.397805 1.5 0.77937 1.341951 1.06066 1.06066 
C 1.341951 0.77937 1.5 0.397805 1.5 0 
C 1.5 -0.397805 1.341951 -0.77937 1.06066 -1.06066 
C 0.77937 -1.341951 0.397805 -1.5 0 -1.5 
C -0.397805 -1.5 -0.77937 -1.341951 -1.06066 -1.06066 
C -1.341951 -0.77937 -1.5 -0.397805 -1.5 0 
C -1.5 0.397805 -1.341951 0.77937 -1.06066 1.06066 
C -0.77937 1.341951 -0.397805 1.5 0 1.5 
z
" style="stroke: #515151"/>
    </defs>
    <g clip-path="url(#p83f8ad44b2)">
     <use xlink:href="#m387107bc4d" x="62.758889" y="184.18447" style="fill: #ffffff; stroke: #515151"/>
    </g>
   </g>
   <g id="PathCollection_2">
    <g clip-path="url(#p83f8ad44b2)">
     <use xlink:href="#m387107bc4d" x="114.076667" y="180.005368" style="fill: #ffffff; stroke: #515151"/>
    </g>
   </g>
   <g id="PathCollection_3">
    <g clip-path="url(#p83f8ad44b2)">
     <use xlink:href="#m387107bc4d" x="165.394444" y="182.781669" style="fill: #ffffff; stroke: #515151"/>
    </g>
   </g>
   <g id="PathCollection_4">
    <g clip-path="url(#p83f8ad44b2)">
     <use xlink:href="#m387107bc4d" x="216.712222" y="178.797095" style="fill: #ffffff; stroke: #515151"/>
    </g>
   </g>
   <g id="PathCollection_5">
    <g clip-path="url(#p83f8ad44b2)">
     <use xlink:href="#m387107bc4d" x="268.03" y="172.472113" style="fill: #ffffff; stroke: #515151"/>
    </g>
   </g>
   <g id="PathCollection_6">
    <g clip-path="url(#p83f8ad44b2)">
     <use xlink:href="#m387107bc4d" x="319.347778" y="180.64065" style="fill: #ffffff; stroke: #515151"/>
    </g>
   </g>
   <g id="PathCollection_7">
    <g clip-path="url(#p83f8ad44b2)">
     <use xlink:href="#m387107bc4d" x="370.665556" y="172.614928" style="fill: #ffffff; stroke: #515151"/>
    </g>
   </g>
   <g id="PathCollection_8">
    <g clip-path="url(#p83f8ad44b2)">
     <use xlink:href="#m387107bc4d" x="421.983333" y="170.08032" style="fill: #ffffff; stroke: #515151"/>
    </g>
   </g>
   <g id="PathCollection_9">
    <g clip-path="url(#p83f8ad44b2)">
     <use xlink:href="#m387107bc4d" x="473.301111" y="193.038218" style="fill: #ffffff; stroke: #515151"/>
    </g>
   </g>
  </g>
 </g>
 <defs>
  <clipPath id="p83f8ad44b2">
   <rect x="37.1" y="10.8" width="461.86" height="218.161533"/>
  </clipPath>
 </defs>
</svg>
