<?xml version="1.0" encoding="utf-8" standalone="no"?>
<!DOCTYPE svg PUBLIC "-//W3C//DTD SVG 1.1//EN"
  "http://www.w3.org/Graphics/SVG/1.1/DTD/svg11.dtd">
<svg xmlns:xlink="http://www.w3.org/1999/xlink" width="252pt" height="126pt" viewBox="0 0 252 126" xmlns="http://www.w3.org/2000/svg" version="1.1">
 <metadata>
  <rdf:RDF xmlns:dc="http://purl.org/dc/elements/1.1/" xmlns:cc="http://creativecommons.org/ns#" xmlns:rdf="http://www.w3.org/1999/02/22-rdf-syntax-ns#">
   <cc:Work>
    <dc:type rdf:resource="http://purl.org/dc/dcmitype/StillImage"/>
    <dc:date>2024-06-08T13:38:41.331960</dc:date>
    <dc:format>image/svg+xml</dc:format>
    <dc:creator>
     <cc:Agent>
      <dc:title>Matplotlib v3.8.0, https://matplotlib.org/</dc:title>
     </cc:Agent>
    </dc:creator>
   </cc:Work>
  </rdf:RDF>
 </metadata>
 <defs>
  <style type="text/css">*{stroke-linejoin: round; stroke-linecap: butt}</style>
 </defs>
 <g id="figure_1">
  <g id="patch_1">
   <path d="M 0 126 
L 252 126 
L 252 0 
L 0 0 
z
" style="fill: #ffffff"/>
  </g>
  <g id="axes_1">
   <g id="patch_2">
    <path d="M 41.188467 66.961533 
L 241.2 66.961533 
L 241.2 10.8 
L 41.188467 10.8 
z
" style="fill: #ffffff"/>
   </g>
   <g id="PolyCollection_1">
    <defs>
     <path id="mbf02c721cb" d="M 52.433585 -64.023739 
L 52.166854 -64.023739 
L 52.106333 -64.236632 
L 52.024691 -64.449525 
L 51.917299 -64.662418 
L 51.779512 -64.875311 
L 51.607012 -65.088203 
L 51.396217 -65.301096 
L 51.144692 -65.513989 
L 50.851544 -65.726882 
L 50.517738 -65.939775 
L 50.146312 -66.152667 
L 49.74246 -66.36556 
L 49.313458 -66.578453 
L 48.868454 -66.791346 
L 48.418092 -67.004239 
L 47.974024 -67.217132 
L 47.548285 -67.430024 
L 47.152605 -67.642917 
L 46.797667 -67.85581 
L 46.492392 -68.068703 
L 46.243322 -68.281596 
L 46.054182 -68.494488 
L 45.925698 -68.707381 
L 45.855722 -68.920274 
L 45.839664 -69.133167 
L 45.871181 -69.34606 
L 45.943032 -69.558953 
L 46.047938 -69.771845 
L 46.179325 -69.984738 
L 46.331797 -70.197631 
L 46.501295 -70.410524 
L 46.684919 -70.623417 
L 46.880496 -70.836309 
L 47.086018 -71.049202 
L 47.299096 -71.262095 
L 47.516578 -71.474988 
L 47.73441 -71.687881 
L 47.947794 -71.900773 
L 48.151592 -72.113666 
L 48.3409 -72.326559 
L 48.51167 -72.539452 
L 48.661261 -72.752345 
L 48.788815 -72.965238 
L 48.895402 -73.17813 
L 48.983908 -73.391023 
L 49.058699 -73.603916 
L 49.125117 -73.816809 
L 49.18889 -74.029702 
L 49.255541 -74.242594 
L 49.329877 -74.455487 
L 49.415608 -74.66838 
L 49.515141 -74.881273 
L 49.629531 -75.094166 
L 49.758588 -75.307059 
L 49.901077 -75.519951 
L 50.054977 -75.732844 
L 50.217734 -75.945737 
L 50.386485 -76.15863 
L 50.558226 -76.371523 
L 50.729922 -76.584415 
L 50.898585 -76.797308 
L 51.06134 -77.010201 
L 51.215498 -77.223094 
L 51.358656 -77.435987 
L 51.488822 -77.648879 
L 51.604549 -77.861772 
L 51.705052 -78.074665 
L 51.790276 -78.287558 
L 51.860892 -78.500451 
L 51.918208 -78.713344 
L 51.964006 -78.926236 
L 52.000316 -79.139129 
L 52.029175 -79.352022 
L 52.052405 -79.564915 
L 52.071446 -79.777808 
L 52.087272 -79.9907 
L 52.1004 -80.203593 
L 52.110978 -80.416486 
L 52.118937 -80.629379 
L 52.124165 -80.842272 
L 52.126672 -81.055164 
L 52.126708 -81.268057 
L 52.124827 -81.48095 
L 52.121858 -81.693843 
L 52.118833 -81.906736 
L 52.116848 -82.119629 
L 52.116914 -82.332521 
L 52.119817 -82.545414 
L 52.126012 -82.758307 
L 52.135568 -82.9712 
L 52.148182 -83.184093 
L 52.163236 -83.396985 
L 52.179901 -83.609878 
L 52.197258 -83.822771 
L 52.214415 -84.035664 
L 52.230603 -84.248557 
L 52.24524 -84.46145 
L 52.257962 -84.674342 
L 52.268611 -84.887235 
L 52.277213 -85.100128 
L 52.323226 -85.100128 
L 52.323226 -85.100128 
L 52.331827 -84.887235 
L 52.342477 -84.674342 
L 52.355198 -84.46145 
L 52.369835 -84.248557 
L 52.386023 -84.035664 
L 52.40318 -83.822771 
L 52.420537 -83.609878 
L 52.437202 -83.396985 
L 52.452256 -83.184093 
L 52.46487 -82.9712 
L 52.474427 -82.758307 
L 52.480622 -82.545414 
L 52.483525 -82.332521 
L 52.483591 -82.119629 
L 52.481606 -81.906736 
L 52.478581 -81.693843 
L 52.475612 -81.48095 
L 52.47373 -81.268057 
L 52.473767 -81.055164 
L 52.476273 -80.842272 
L 52.481501 -80.629379 
L 52.489461 -80.416486 
L 52.500039 -80.203593 
L 52.513166 -79.9907 
L 52.528993 -79.777808 
L 52.548034 -79.564915 
L 52.571264 -79.352022 
L 52.600123 -79.139129 
L 52.636433 -78.926236 
L 52.68223 -78.713344 
L 52.739547 -78.500451 
L 52.810162 -78.287558 
L 52.895386 -78.074665 
L 52.995889 -77.861772 
L 53.111617 -77.648879 
L 53.241782 -77.435987 
L 53.38494 -77.223094 
L 53.539099 -77.010201 
L 53.701854 -76.797308 
L 53.870517 -76.584415 
L 54.042212 -76.371523 
L 54.213953 -76.15863 
L 54.382705 -75.945737 
L 54.545462 -75.732844 
L 54.699362 -75.519951 
L 54.841851 -75.307059 
L 54.970907 -75.094166 
L 55.085297 -74.881273 
L 55.18483 -74.66838 
L 55.270562 -74.455487 
L 55.344897 -74.242594 
L 55.411548 -74.029702 
L 55.475321 -73.816809 
L 55.541739 -73.603916 
L 55.61653 -73.391023 
L 55.705036 -73.17813 
L 55.811624 -72.965238 
L 55.939178 -72.752345 
L 56.088768 -72.539452 
L 56.259538 -72.326559 
L 56.448846 -72.113666 
L 56.652644 -71.900773 
L 56.866028 -71.687881 
L 57.08386 -71.474988 
L 57.301342 -71.262095 
L 57.514421 -71.049202 
L 57.719943 -70.836309 
L 57.91552 -70.623417 
L 58.099143 -70.410524 
L 58.268642 -70.197631 
L 58.421114 -69.984738 
L 58.5525 -69.771845 
L 58.657407 -69.558953 
L 58.729258 -69.34606 
L 58.760775 -69.133167 
L 58.744716 -68.920274 
L 58.674741 -68.707381 
L 58.546257 -68.494488 
L 58.357117 -68.281596 
L 58.108047 -68.068703 
L 57.802772 -67.85581 
L 57.447833 -67.642917 
L 57.052154 -67.430024 
L 56.626415 -67.217132 
L 56.182346 -67.004239 
L 55.731985 -66.791346 
L 55.28698 -66.578453 
L 54.857979 -66.36556 
L 54.454126 -66.152667 
L 54.082701 -65.939775 
L 53.748894 -65.726882 
L 53.455746 -65.513989 
L 53.204222 -65.301096 
L 52.993427 -65.088203 
L 52.820927 -64.875311 
L 52.683139 -64.662418 
L 52.575748 -64.449525 
L 52.494106 -64.236632 
L 52.433585 -64.023739 
z
" style="stroke: #515151; stroke-width: 0.35"/>
    </defs>
    <g clip-path="url(#p3bac18793a)">
     <use xlink:href="#mbf02c721cb" x="0" y="126" style="fill: #e1812c; stroke: #515151; stroke-width: 0.35"/>
    </g>
   </g>
   <g id="PolyCollection_2">
    <defs>
     <path id="mf8520349d9" d="M 74.592585 -63.609402 
L 74.454861 -63.609402 
L 74.430693 -63.794761 
L 74.399707 -63.980119 
L 74.36056 -64.165477 
L 74.311829 -64.350835 
L 74.252064 -64.536194 
L 74.17986 -64.721552 
L 74.093945 -64.90691 
L 73.993285 -65.092269 
L 73.877195 -65.277627 
L 73.745448 -65.462985 
L 73.598367 -65.648344 
L 73.436895 -65.833702 
L 73.262616 -66.01906 
L 73.077718 -66.204419 
L 72.884897 -66.389777 
L 72.687181 -66.575135 
L 72.4877 -66.760494 
L 72.289408 -66.945852 
L 72.094781 -67.13121 
L 71.90553 -67.316569 
L 71.722372 -67.501927 
L 71.544876 -67.687285 
L 71.371435 -67.872644 
L 71.199368 -68.058002 
L 71.025154 -68.24336 
L 70.844796 -68.428718 
L 70.654256 -68.614077 
L 70.449957 -68.799435 
L 70.229256 -68.984793 
L 69.99088 -69.170152 
L 69.735247 -69.35551 
L 69.464661 -69.540868 
L 69.183349 -69.726227 
L 68.897347 -69.911585 
L 68.614227 -70.096943 
L 68.342718 -70.282302 
L 68.092216 -70.46766 
L 67.872247 -70.653018 
L 67.691903 -70.838377 
L 67.559295 -71.023735 
L 67.48105 -71.209093 
L 67.461894 -71.394452 
L 67.504331 -71.57981 
L 67.608458 -71.765168 
L 67.771912 -71.950526 
L 67.989964 -72.135885 
L 68.25576 -72.321243 
L 68.560685 -72.506601 
L 68.894837 -72.69196 
L 69.247565 -72.877318 
L 69.608051 -73.062676 
L 69.965875 -73.248035 
L 70.311541 -73.433393 
L 70.636916 -73.618751 
L 70.935553 -73.80411 
L 71.202905 -73.989468 
L 71.436385 -74.174826 
L 71.635319 -74.360185 
L 71.800779 -74.545543 
L 71.935325 -74.730901 
L 72.04269 -74.91626 
L 72.127423 -75.101618 
L 72.194533 -75.286976 
L 72.249136 -75.472335 
L 72.296144 -75.657693 
L 72.340008 -75.843051 
L 72.384514 -76.028409 
L 72.432651 -76.213768 
L 72.486552 -76.399126 
L 72.547488 -76.584484 
L 72.615933 -76.769843 
L 72.691668 -76.955201 
L 72.773926 -77.140559 
L 72.861549 -77.325918 
L 72.953154 -77.511276 
L 73.047288 -77.696634 
L 73.142554 -77.881993 
L 73.237711 -78.067351 
L 73.331733 -78.252709 
L 73.423831 -78.438068 
L 73.513445 -78.623426 
L 73.600202 -78.808784 
L 73.68387 -78.994143 
L 73.764299 -79.179501 
L 73.841364 -79.364859 
L 73.914929 -79.550217 
L 73.984819 -79.735576 
L 74.050813 -79.920934 
L 74.112657 -80.106292 
L 74.170084 -80.291651 
L 74.222843 -80.477009 
L 74.270735 -80.662367 
L 74.313638 -80.847726 
L 74.351528 -81.033084 
L 74.384488 -81.218442 
L 74.412712 -81.403801 
L 74.436486 -81.589159 
L 74.456178 -81.774517 
L 74.472213 -81.959876 
L 74.575233 -81.959876 
L 74.575233 -81.959876 
L 74.591267 -81.774517 
L 74.61096 -81.589159 
L 74.634734 -81.403801 
L 74.662957 -81.218442 
L 74.695918 -81.033084 
L 74.733808 -80.847726 
L 74.776711 -80.662367 
L 74.824603 -80.477009 
L 74.877362 -80.291651 
L 74.934788 -80.106292 
L 74.996632 -79.920934 
L 75.062627 -79.735576 
L 75.132517 -79.550217 
L 75.206082 -79.364859 
L 75.283147 -79.179501 
L 75.363576 -78.994143 
L 75.447244 -78.808784 
L 75.534001 -78.623426 
L 75.623615 -78.438068 
L 75.715713 -78.252709 
L 75.809735 -78.067351 
L 75.904892 -77.881993 
L 76.000158 -77.696634 
L 76.094292 -77.511276 
L 76.185897 -77.325918 
L 76.27352 -77.140559 
L 76.355778 -76.955201 
L 76.431513 -76.769843 
L 76.499958 -76.584484 
L 76.560894 -76.399126 
L 76.614794 -76.213768 
L 76.662932 -76.028409 
L 76.707438 -75.843051 
L 76.751302 -75.657693 
L 76.79831 -75.472335 
L 76.852913 -75.286976 
L 76.920023 -75.101618 
L 77.004756 -74.91626 
L 77.112121 -74.730901 
L 77.246666 -74.545543 
L 77.412126 -74.360185 
L 77.611061 -74.174826 
L 77.844541 -73.989468 
L 78.111892 -73.80411 
L 78.41053 -73.618751 
L 78.735904 -73.433393 
L 79.081571 -73.248035 
L 79.439395 -73.062676 
L 79.799881 -72.877318 
L 80.152609 -72.69196 
L 80.486761 -72.506601 
L 80.791686 -72.321243 
L 81.057482 -72.135885 
L 81.275534 -71.950526 
L 81.438987 -71.765168 
L 81.543115 -71.57981 
L 81.585552 -71.394452 
L 81.566396 -71.209093 
L 81.488151 -71.023735 
L 81.355543 -70.838377 
L 81.175199 -70.653018 
L 80.95523 -70.46766 
L 80.704728 -70.282302 
L 80.433219 -70.096943 
L 80.150099 -69.911585 
L 79.864097 -69.726227 
L 79.582785 -69.540868 
L 79.312199 -69.35551 
L 79.056566 -69.170152 
L 78.818189 -68.984793 
L 78.597489 -68.799435 
L 78.393189 -68.614077 
L 78.20265 -68.428718 
L 78.022291 -68.24336 
L 77.848078 -68.058002 
L 77.676011 -67.872644 
L 77.50257 -67.687285 
L 77.325074 -67.501927 
L 77.141916 -67.316569 
L 76.952665 -67.13121 
L 76.758037 -66.945852 
L 76.559745 -66.760494 
L 76.360265 -66.575135 
L 76.162549 -66.389777 
L 75.969728 -66.204419 
L 75.78483 -66.01906 
L 75.610551 -65.833702 
L 75.449079 -65.648344 
L 75.301998 -65.462985 
L 75.17025 -65.277627 
L 75.054161 -65.092269 
L 74.953501 -64.90691 
L 74.867586 -64.721552 
L 74.795382 -64.536194 
L 74.735617 -64.350835 
L 74.686886 -64.165477 
L 74.647739 -63.980119 
L 74.616753 -63.794761 
L 74.592585 -63.609402 
z
" style="stroke: #515151; stroke-width: 0.35"/>
    </defs>
    <g clip-path="url(#p3bac18793a)">
     <use xlink:href="#mf8520349d9" x="0" y="126" style="fill: #e1812c; stroke: #515151; stroke-width: 0.35"/>
    </g>
   </g>
   <g id="PolyCollection_3">
    <defs>
     <path id="m20c23d27f8" d="M 96.812265 -64.270666 
L 96.682188 -64.270666 
L 96.656722 -64.423147 
L 96.624189 -64.575628 
L 96.583743 -64.728109 
L 96.534782 -64.88059 
L 96.477026 -65.033071 
L 96.410553 -65.185552 
L 96.335761 -65.338033 
L 96.253269 -65.490514 
L 96.163728 -65.642995 
L 96.067592 -65.795476 
L 95.964852 -65.947957 
L 95.854807 -66.100438 
L 95.735896 -66.252919 
L 95.605649 -66.4054 
L 95.460762 -66.557881 
L 95.297319 -66.710362 
L 95.111104 -66.862843 
L 94.898004 -67.015324 
L 94.654419 -67.167806 
L 94.377654 -67.320287 
L 94.066257 -67.472768 
L 93.720269 -67.625249 
L 93.341399 -67.77773 
L 92.933101 -67.930211 
L 92.500553 -68.082692 
L 92.050527 -68.235173 
L 91.591134 -68.387654 
L 91.131426 -68.540135 
L 90.680866 -68.692616 
L 90.248688 -68.845097 
L 89.84322 -68.997578 
L 89.471247 -69.150059 
L 89.13754 -69.30254 
L 88.844636 -69.455021 
L 88.592944 -69.607502 
L 88.381188 -69.759983 
L 88.207137 -69.912464 
L 88.068486 -70.064945 
L 87.96374 -70.217426 
L 87.892904 -70.369907 
L 87.857825 -70.522388 
L 87.86209 -70.674869 
L 87.910465 -70.82735 
L 88.007973 -70.979831 
L 88.158775 -71.132313 
L 88.365075 -71.284794 
L 88.626263 -71.437275 
L 88.938478 -71.589756 
L 89.294671 -71.742237 
L 89.685155 -71.894718 
L 90.098519 -72.047199 
L 90.522749 -72.19968 
L 90.946331 -72.352161 
L 91.359167 -72.504642 
L 91.753183 -72.657123 
L 92.122576 -72.809604 
L 92.463744 -72.962085 
L 92.774986 -73.114566 
L 93.056091 -73.267047 
L 93.307921 -73.419528 
L 93.532095 -73.572009 
L 93.730778 -73.72449 
L 93.906599 -73.876971 
L 94.062629 -74.029452 
L 94.202374 -74.181933 
L 94.329714 -74.334414 
L 94.448759 -74.486895 
L 94.563605 -74.639376 
L 94.678007 -74.791857 
L 94.79504 -74.944339 
L 94.916772 -75.09682 
L 95.04404 -75.249301 
L 95.176364 -75.401782 
L 95.312025 -75.554263 
L 95.4483 -75.706744 
L 95.581834 -75.859225 
L 95.70909 -76.011706 
L 95.826807 -76.164187 
L 95.932417 -76.316668 
L 96.024341 -76.469149 
L 96.102141 -76.62163 
L 96.166513 -76.774111 
L 96.219118 -76.926592 
L 96.262304 -77.079073 
L 96.298753 -77.231554 
L 96.331121 -77.384035 
L 96.361721 -77.536516 
L 96.392291 -77.688997 
L 96.423873 -77.841478 
L 96.456806 -77.993959 
L 96.490822 -78.14644 
L 96.525207 -78.298921 
L 96.558995 -78.451402 
L 96.59117 -78.603883 
L 96.620821 -78.756364 
L 96.647259 -78.908846 
L 96.670073 -79.061327 
L 96.689135 -79.213808 
L 96.704567 -79.366289 
L 96.789886 -79.366289 
L 96.789886 -79.366289 
L 96.805318 -79.213808 
L 96.82438 -79.061327 
L 96.847194 -78.908846 
L 96.873632 -78.756364 
L 96.903283 -78.603883 
L 96.935458 -78.451402 
L 96.969246 -78.298921 
L 97.003631 -78.14644 
L 97.037647 -77.993959 
L 97.07058 -77.841478 
L 97.102162 -77.688997 
L 97.132732 -77.536516 
L 97.163332 -77.384035 
L 97.1957 -77.231554 
L 97.232149 -77.079073 
L 97.275335 -76.926592 
L 97.32794 -76.774111 
L 97.392312 -76.62163 
L 97.470112 -76.469149 
L 97.562036 -76.316668 
L 97.667646 -76.164187 
L 97.785364 -76.011706 
L 97.912619 -75.859225 
L 98.046153 -75.706744 
L 98.182428 -75.554263 
L 98.318089 -75.401782 
L 98.450413 -75.249301 
L 98.577681 -75.09682 
L 98.699413 -74.944339 
L 98.816446 -74.791857 
L 98.930848 -74.639376 
L 99.045694 -74.486895 
L 99.164739 -74.334414 
L 99.292079 -74.181933 
L 99.431824 -74.029452 
L 99.587854 -73.876971 
L 99.763675 -73.72449 
L 99.962358 -73.572009 
L 100.186532 -73.419528 
L 100.438362 -73.267047 
L 100.719467 -73.114566 
L 101.030709 -72.962085 
L 101.371877 -72.809604 
L 101.74127 -72.657123 
L 102.135286 -72.504642 
L 102.548122 -72.352161 
L 102.971704 -72.19968 
L 103.395934 -72.047199 
L 103.809298 -71.894718 
L 104.199782 -71.742237 
L 104.555975 -71.589756 
L 104.86819 -71.437275 
L 105.129378 -71.284794 
L 105.335678 -71.132313 
L 105.48648 -70.979831 
L 105.583988 -70.82735 
L 105.632363 -70.674869 
L 105.636628 -70.522388 
L 105.601549 -70.369907 
L 105.530713 -70.217426 
L 105.425967 -70.064945 
L 105.287316 -69.912464 
L 105.113265 -69.759983 
L 104.90151 -69.607502 
L 104.649817 -69.455021 
L 104.356913 -69.30254 
L 104.023206 -69.150059 
L 103.651233 -68.997578 
L 103.245765 -68.845097 
L 102.813588 -68.692616 
L 102.363027 -68.540135 
L 101.903319 -68.387654 
L 101.443926 -68.235173 
L 100.9939 -68.082692 
L 100.561352 -67.930211 
L 100.153054 -67.77773 
L 99.774184 -67.625249 
L 99.428196 -67.472768 
L 99.116799 -67.320287 
L 98.840034 -67.167806 
L 98.596449 -67.015324 
L 98.383349 -66.862843 
L 98.197134 -66.710362 
L 98.033691 -66.557881 
L 97.888804 -66.4054 
L 97.758557 -66.252919 
L 97.639646 -66.100438 
L 97.529601 -65.947957 
L 97.426861 -65.795476 
L 97.330725 -65.642995 
L 97.241184 -65.490514 
L 97.158692 -65.338033 
L 97.0839 -65.185552 
L 97.017427 -65.033071 
L 96.959671 -64.88059 
L 96.91071 -64.728109 
L 96.870264 -64.575628 
L 96.837731 -64.423147 
L 96.812265 -64.270666 
z
" style="stroke: #515151; stroke-width: 0.35"/>
    </defs>
    <g clip-path="url(#p3bac18793a)">
     <use xlink:href="#m20c23d27f8" x="0" y="126" style="fill: #e1812c; stroke: #515151; stroke-width: 0.35"/>
    </g>
   </g>
   <g id="PolyCollection_4">
    <defs>
     <path id="m165bc5585b" d="M 119.120218 -62.224895 
L 118.821242 -62.224895 
L 118.769934 -62.529161 
L 118.705258 -62.833427 
L 118.62523 -63.137693 
L 118.528041 -63.441958 
L 118.412216 -63.746224 
L 118.27678 -64.05049 
L 118.121426 -64.354756 
L 117.946645 -64.659022 
L 117.753827 -64.963288 
L 117.545287 -65.267554 
L 117.324228 -65.57182 
L 117.094612 -65.876085 
L 116.860969 -66.180351 
L 116.628129 -66.484617 
L 116.400926 -66.788883 
L 116.18388 -67.093149 
L 115.980909 -67.397415 
L 115.795091 -67.701681 
L 115.6285 -68.005947 
L 115.482142 -68.310212 
L 115.35599 -68.614478 
L 115.249105 -68.918744 
L 115.15984 -69.22301 
L 115.086085 -69.527276 
L 115.025535 -69.831542 
L 114.975951 -70.135808 
L 114.935381 -70.440073 
L 114.902344 -70.744339 
L 114.875938 -71.048605 
L 114.855898 -71.352871 
L 114.842593 -71.657137 
L 114.836968 -71.961403 
L 114.840448 -72.265669 
L 114.85481 -72.569935 
L 114.882028 -72.8742 
L 114.924105 -73.178466 
L 114.982899 -73.482732 
L 115.059947 -73.786998 
L 115.156316 -74.091264 
L 115.272464 -74.39553 
L 115.408155 -74.699796 
L 115.562411 -75.004062 
L 115.733522 -75.308327 
L 115.919117 -75.612593 
L 116.116276 -75.916859 
L 116.321689 -76.221125 
L 116.531839 -76.525391 
L 116.743188 -76.829657 
L 116.952354 -77.133923 
L 117.156263 -77.438188 
L 117.352255 -77.742454 
L 117.538157 -78.04672 
L 117.712299 -78.350986 
L 117.873503 -78.655252 
L 118.021036 -78.959518 
L 118.154541 -79.263784 
L 118.273965 -79.56805 
L 118.379484 -79.872315 
L 118.471439 -80.176581 
L 118.550279 -80.480847 
L 118.616527 -80.785113 
L 118.67075 -81.089379 
L 118.713548 -81.393645 
L 118.745555 -81.697911 
L 118.767442 -82.002177 
L 118.779929 -82.306442 
L 118.783798 -82.610708 
L 118.779906 -82.914974 
L 118.7692 -83.21924 
L 118.75272 -83.523506 
L 118.731601 -83.827772 
L 118.707065 -84.132038 
L 118.680405 -84.436303 
L 118.652953 -84.740569 
L 118.626047 -85.044835 
L 118.600983 -85.349101 
L 118.578968 -85.653367 
L 118.561065 -85.957633 
L 118.548151 -86.261899 
L 118.540868 -86.566165 
L 118.539602 -86.87043 
L 118.544461 -87.174696 
L 118.55528 -87.478962 
L 118.571636 -87.783228 
L 118.59288 -88.087494 
L 118.618183 -88.39176 
L 118.646592 -88.696026 
L 118.677089 -89.000292 
L 118.70865 -89.304557 
L 118.740303 -89.608823 
L 118.771174 -89.913089 
L 118.800522 -90.217355 
L 118.827766 -90.521621 
L 118.852495 -90.825887 
L 118.874459 -91.130153 
L 118.893567 -91.434418 
L 118.909854 -91.738684 
L 118.923463 -92.04295 
L 118.934615 -92.347216 
L 119.006846 -92.347216 
L 119.006846 -92.347216 
L 119.017997 -92.04295 
L 119.031607 -91.738684 
L 119.047894 -91.434418 
L 119.067001 -91.130153 
L 119.088966 -90.825887 
L 119.113694 -90.521621 
L 119.140939 -90.217355 
L 119.170287 -89.913089 
L 119.201157 -89.608823 
L 119.23281 -89.304557 
L 119.264371 -89.000292 
L 119.294868 -88.696026 
L 119.323277 -88.39176 
L 119.34858 -88.087494 
L 119.369824 -87.783228 
L 119.38618 -87.478962 
L 119.396999 -87.174696 
L 119.401859 -86.87043 
L 119.400592 -86.566165 
L 119.39331 -86.261899 
L 119.380395 -85.957633 
L 119.362492 -85.653367 
L 119.340477 -85.349101 
L 119.315413 -85.044835 
L 119.288507 -84.740569 
L 119.261055 -84.436303 
L 119.234395 -84.132038 
L 119.209859 -83.827772 
L 119.18874 -83.523506 
L 119.17226 -83.21924 
L 119.161554 -82.914974 
L 119.157663 -82.610708 
L 119.161531 -82.306442 
L 119.174018 -82.002177 
L 119.195905 -81.697911 
L 119.227912 -81.393645 
L 119.270711 -81.089379 
L 119.324933 -80.785113 
L 119.391181 -80.480847 
L 119.470021 -80.176581 
L 119.561976 -79.872315 
L 119.667495 -79.56805 
L 119.786919 -79.263784 
L 119.920424 -78.959518 
L 120.067957 -78.655252 
L 120.229162 -78.350986 
L 120.403304 -78.04672 
L 120.589205 -77.742454 
L 120.785197 -77.438188 
L 120.989106 -77.133923 
L 121.198272 -76.829657 
L 121.409621 -76.525391 
L 121.619771 -76.221125 
L 121.825185 -75.916859 
L 122.022343 -75.612593 
L 122.207938 -75.308327 
L 122.379049 -75.004062 
L 122.533305 -74.699796 
L 122.668996 -74.39553 
L 122.785145 -74.091264 
L 122.881513 -73.786998 
L 122.958562 -73.482732 
L 123.017355 -73.178466 
L 123.059432 -72.8742 
L 123.08665 -72.569935 
L 123.101012 -72.265669 
L 123.104492 -71.961403 
L 123.098867 -71.657137 
L 123.085562 -71.352871 
L 123.065522 -71.048605 
L 123.039116 -70.744339 
L 123.006079 -70.440073 
L 122.96551 -70.135808 
L 122.915925 -69.831542 
L 122.855375 -69.527276 
L 122.78162 -69.22301 
L 122.692355 -68.918744 
L 122.58547 -68.614478 
L 122.459318 -68.310212 
L 122.31296 -68.005947 
L 122.146369 -67.701681 
L 121.960551 -67.397415 
L 121.75758 -67.093149 
L 121.540534 -66.788883 
L 121.313331 -66.484617 
L 121.080492 -66.180351 
L 120.846848 -65.876085 
L 120.617233 -65.57182 
L 120.396173 -65.267554 
L 120.187633 -64.963288 
L 119.994815 -64.659022 
L 119.820034 -64.354756 
L 119.66468 -64.05049 
L 119.529245 -63.746224 
L 119.413419 -63.441958 
L 119.316231 -63.137693 
L 119.236203 -62.833427 
L 119.171526 -62.529161 
L 119.120218 -62.224895 
z
" style="stroke: #515151; stroke-width: 0.35"/>
    </defs>
    <g clip-path="url(#p3bac18793a)">
     <use xlink:href="#m165bc5585b" x="0" y="126" style="fill: #e1812c; stroke: #515151; stroke-width: 0.35"/>
    </g>
   </g>
   <g id="PolyCollection_5">
    <defs>
     <path id="m2943344298" d="M 141.268121 -62.847609 
L 141.120346 -62.847609 
L 141.060685 -63.350635 
L 140.967351 -63.853662 
L 140.83138 -64.356688 
L 140.64684 -64.859714 
L 140.413253 -65.36274 
L 140.136921 -65.865766 
L 139.830245 -66.368793 
L 139.508948 -66.871819 
L 139.188122 -67.374845 
L 138.878734 -67.877871 
L 138.586023 -68.380897 
L 138.310233 -68.883924 
L 138.048953 -69.38695 
L 137.799697 -69.889976 
L 137.561734 -70.393002 
L 137.336994 -70.896028 
L 137.130542 -71.399055 
L 136.950995 -71.902081 
L 136.810616 -72.405107 
L 136.724348 -72.908133 
L 136.707238 -73.411159 
L 136.770621 -73.914186 
L 136.918366 -74.417212 
L 137.144752 -74.920238 
L 137.434907 -75.423264 
L 137.767591 -75.92629 
L 138.119214 -76.429317 
L 138.467737 -76.932343 
L 138.795598 -77.435369 
L 139.091397 -77.938395 
L 139.350467 -78.441421 
L 139.574418 -78.944448 
L 139.76967 -79.447474 
L 139.945042 -79.9505 
L 140.108856 -80.453526 
L 140.266345 -80.956552 
L 140.418234 -81.459579 
L 140.56097 -81.962605 
L 140.68844 -82.465631 
L 140.794419 -82.968657 
L 140.87484 -83.471683 
L 140.929139 -83.97471 
L 140.960402 -84.477736 
L 140.974495 -84.980762 
L 140.978613 -85.483788 
L 140.979756 -85.986814 
L 140.983504 -86.489841 
L 140.993299 -86.992867 
L 141.010259 -87.495893 
L 141.033449 -87.998919 
L 141.060485 -88.501945 
L 141.088287 -89.004972 
L 141.113835 -89.507998 
L 141.134754 -90.011024 
L 141.149658 -90.51405 
L 141.158234 -91.017076 
L 141.161136 -91.520103 
L 141.159754 -92.023129 
L 141.155922 -92.526155 
L 141.151585 -93.029181 
L 141.14843 -93.532207 
L 141.147559 -94.035234 
L 141.149262 -94.53826 
L 141.153002 -95.041286 
L 141.157615 -95.544312 
L 141.161685 -96.047338 
L 141.163975 -96.550365 
L 141.163789 -97.053391 
L 141.161171 -97.556417 
L 141.156882 -98.059443 
L 141.152167 -98.562469 
L 141.14837 -99.065496 
L 141.146501 -99.568522 
L 141.146901 -100.071548 
L 141.149134 -100.574574 
L 141.152146 -101.0776 
L 141.154653 -101.580627 
L 141.155606 -102.083653 
L 141.154569 -102.586679 
L 141.151854 -103.089705 
L 141.14837 -103.592731 
L 141.145239 -104.095758 
L 141.143343 -104.598784 
L 141.142977 -105.10181 
L 141.143771 -105.604836 
L 141.144919 -106.107862 
L 141.145595 -106.610889 
L 141.145379 -107.113915 
L 141.144488 -107.616941 
L 141.143702 -108.119967 
L 141.144029 -108.622993 
L 141.146282 -109.12602 
L 141.150742 -109.629046 
L 141.15707 -110.132072 
L 141.164454 -110.635098 
L 141.171918 -111.138124 
L 141.178619 -111.641151 
L 141.18404 -112.144177 
L 141.188029 -112.647203 
L 141.200439 -112.647203 
L 141.200439 -112.647203 
L 141.204427 -112.144177 
L 141.209848 -111.641151 
L 141.216549 -111.138124 
L 141.224013 -110.635098 
L 141.231398 -110.132072 
L 141.237725 -109.629046 
L 141.242185 -109.12602 
L 141.244438 -108.622993 
L 141.244766 -108.119967 
L 141.243979 -107.616941 
L 141.243088 -107.113915 
L 141.242873 -106.610889 
L 141.243549 -106.107862 
L 141.244696 -105.604836 
L 141.245491 -105.10181 
L 141.245124 -104.598784 
L 141.243228 -104.095758 
L 141.240098 -103.592731 
L 141.236614 -103.089705 
L 141.233898 -102.586679 
L 141.232861 -102.083653 
L 141.233814 -101.580627 
L 141.236321 -101.0776 
L 141.239334 -100.574574 
L 141.241567 -100.071548 
L 141.241967 -99.568522 
L 141.240097 -99.065496 
L 141.2363 -98.562469 
L 141.231586 -98.059443 
L 141.227297 -97.556417 
L 141.224678 -97.053391 
L 141.224493 -96.550365 
L 141.226782 -96.047338 
L 141.230852 -95.544312 
L 141.235466 -95.041286 
L 141.239206 -94.53826 
L 141.240909 -94.035234 
L 141.240037 -93.532207 
L 141.236883 -93.029181 
L 141.232545 -92.526155 
L 141.228714 -92.023129 
L 141.227331 -91.520103 
L 141.230233 -91.017076 
L 141.23881 -90.51405 
L 141.253714 -90.011024 
L 141.274632 -89.507998 
L 141.30018 -89.004972 
L 141.327982 -88.501945 
L 141.355018 -87.998919 
L 141.378209 -87.495893 
L 141.395168 -86.992867 
L 141.404964 -86.489841 
L 141.408712 -85.986814 
L 141.409854 -85.483788 
L 141.413972 -84.980762 
L 141.428065 -84.477736 
L 141.459329 -83.97471 
L 141.513627 -83.471683 
L 141.594048 -82.968657 
L 141.700027 -82.465631 
L 141.827497 -81.962605 
L 141.970234 -81.459579 
L 142.122122 -80.956552 
L 142.279611 -80.453526 
L 142.443426 -79.9505 
L 142.618798 -79.447474 
L 142.81405 -78.944448 
L 143.038001 -78.441421 
L 143.29707 -77.938395 
L 143.592869 -77.435369 
L 143.92073 -76.932343 
L 144.269254 -76.429317 
L 144.620877 -75.92629 
L 144.953561 -75.423264 
L 145.243715 -74.920238 
L 145.470101 -74.417212 
L 145.617847 -73.914186 
L 145.68123 -73.411159 
L 145.66412 -72.908133 
L 145.577852 -72.405107 
L 145.437473 -71.902081 
L 145.257925 -71.399055 
L 145.051473 -70.896028 
L 144.826733 -70.393002 
L 144.58877 -69.889976 
L 144.339515 -69.38695 
L 144.078234 -68.883924 
L 143.802445 -68.380897 
L 143.509733 -67.877871 
L 143.200345 -67.374845 
L 142.87952 -66.871819 
L 142.558222 -66.368793 
L 142.251547 -65.865766 
L 141.975215 -65.36274 
L 141.741628 -64.859714 
L 141.557087 -64.356688 
L 141.421117 -63.853662 
L 141.327782 -63.350635 
L 141.268121 -62.847609 
z
" style="stroke: #515151; stroke-width: 0.35"/>
    </defs>
    <g clip-path="url(#p3bac18793a)">
     <use xlink:href="#m2943344298" x="0" y="126" style="fill: #e1812c; stroke: #515151; stroke-width: 0.35"/>
    </g>
   </g>
   <g id="PolyCollection_6">
    <defs>
     <path id="m20c397248c" d="M 163.522086 -64.035952 
L 163.313388 -64.035952 
L 163.257646 -64.298803 
L 163.178823 -64.561653 
L 163.0708 -64.824504 
L 162.927351 -65.087355 
L 162.742813 -65.350205 
L 162.512931 -65.613056 
L 162.235776 -65.875907 
L 161.912618 -66.138758 
L 161.548565 -66.401608 
L 161.152816 -66.664459 
L 160.738366 -66.92731 
L 160.321103 -67.19016 
L 159.918326 -67.453011 
L 159.546846 -67.715862 
L 159.220938 -67.978713 
L 158.950492 -68.241563 
L 158.739718 -68.504414 
L 158.586686 -68.767265 
L 158.483828 -69.030115 
L 158.419359 -69.292966 
L 158.379341 -69.555817 
L 158.350021 -69.818668 
L 158.319981 -70.081518 
L 158.281717 -70.344369 
L 158.232412 -70.60722 
L 158.173848 -70.87007 
L 158.111604 -71.132921 
L 158.053803 -71.395772 
L 158.009715 -71.658623 
L 157.988476 -71.921473 
L 157.99807 -72.184324 
L 158.044641 -72.447175 
L 158.132079 -72.710026 
L 158.261803 -72.972876 
L 158.432702 -73.235727 
L 158.641198 -73.498578 
L 158.88146 -73.761428 
L 159.145836 -74.024279 
L 159.425493 -74.28713 
L 159.711267 -74.549981 
L 159.994609 -74.812831 
L 160.268483 -75.075682 
L 160.528042 -75.338533 
L 160.770946 -75.601383 
L 160.997247 -75.864234 
L 161.20888 -76.127085 
L 161.408864 -76.389936 
L 161.600412 -76.652786 
L 161.786127 -76.915637 
L 161.967446 -77.178488 
L 162.144421 -77.441338 
L 162.31582 -77.704189 
L 162.47949 -77.96704 
L 162.632849 -78.229891 
L 162.773397 -78.492741 
L 162.899123 -78.755592 
L 163.008779 -79.018443 
L 163.101979 -79.281294 
L 163.179154 -79.544144 
L 163.241413 -79.806995 
L 163.290343 -80.069846 
L 163.327802 -80.332696 
L 163.35573 -80.595547 
L 163.375998 -80.858398 
L 163.390298 -81.121249 
L 163.40008 -81.384099 
L 163.406521 -81.64695 
L 163.41052 -81.909801 
L 163.41271 -82.172651 
L 163.413475 -82.435502 
L 163.41297 -82.698353 
L 163.411139 -82.961204 
L 163.407738 -83.224054 
L 163.402354 -83.486905 
L 163.394454 -83.749756 
L 163.383441 -84.012606 
L 163.368748 -84.275457 
L 163.34996 -84.538308 
L 163.326952 -84.801159 
L 163.300015 -85.064009 
L 163.269967 -85.32686 
L 163.238183 -85.589711 
L 163.206541 -85.852562 
L 163.177269 -86.115412 
L 163.1527 -86.378263 
L 163.134965 -86.641114 
L 163.125695 -86.903964 
L 163.125769 -87.166815 
L 163.13518 -87.429666 
L 163.153036 -87.692517 
L 163.177696 -87.955367 
L 163.207023 -88.218218 
L 163.238684 -88.481069 
L 163.270455 -88.743919 
L 163.300464 -89.00677 
L 163.327346 -89.269621 
L 163.350296 -89.532472 
L 163.369028 -89.795322 
L 163.383683 -90.058173 
L 163.451792 -90.058173 
L 163.451792 -90.058173 
L 163.466447 -89.795322 
L 163.485179 -89.532472 
L 163.508128 -89.269621 
L 163.535011 -89.00677 
L 163.56502 -88.743919 
L 163.596791 -88.481069 
L 163.628452 -88.218218 
L 163.657778 -87.955367 
L 163.682438 -87.692517 
L 163.700294 -87.429666 
L 163.709706 -87.166815 
L 163.70978 -86.903964 
L 163.70051 -86.641114 
L 163.682775 -86.378263 
L 163.658205 -86.115412 
L 163.628934 -85.852562 
L 163.597292 -85.589711 
L 163.565508 -85.32686 
L 163.53546 -85.064009 
L 163.508523 -84.801159 
L 163.485514 -84.538308 
L 163.466727 -84.275457 
L 163.452034 -84.012606 
L 163.44102 -83.749756 
L 163.43312 -83.486905 
L 163.427737 -83.224054 
L 163.424336 -82.961204 
L 163.422505 -82.698353 
L 163.422 -82.435502 
L 163.422764 -82.172651 
L 163.424954 -81.909801 
L 163.428954 -81.64695 
L 163.435395 -81.384099 
L 163.445177 -81.121249 
L 163.459477 -80.858398 
L 163.479744 -80.595547 
L 163.507673 -80.332696 
L 163.545132 -80.069846 
L 163.594062 -79.806995 
L 163.65632 -79.544144 
L 163.733495 -79.281294 
L 163.826695 -79.018443 
L 163.936352 -78.755592 
L 164.062078 -78.492741 
L 164.202625 -78.229891 
L 164.355985 -77.96704 
L 164.519655 -77.704189 
L 164.691054 -77.441338 
L 164.868029 -77.178488 
L 165.049348 -76.915637 
L 165.235063 -76.652786 
L 165.426611 -76.389936 
L 165.626595 -76.127085 
L 165.838227 -75.864234 
L 166.064529 -75.601383 
L 166.307433 -75.338533 
L 166.566992 -75.075682 
L 166.840866 -74.812831 
L 167.124208 -74.549981 
L 167.409982 -74.28713 
L 167.689638 -74.024279 
L 167.954014 -73.761428 
L 168.194277 -73.498578 
L 168.402772 -73.235727 
L 168.573672 -72.972876 
L 168.703396 -72.710026 
L 168.790833 -72.447175 
L 168.837405 -72.184324 
L 168.846999 -71.921473 
L 168.825759 -71.658623 
L 168.781672 -71.395772 
L 168.723871 -71.132921 
L 168.661627 -70.87007 
L 168.603063 -70.60722 
L 168.553758 -70.344369 
L 168.515494 -70.081518 
L 168.485454 -69.818668 
L 168.456134 -69.555817 
L 168.416116 -69.292966 
L 168.351646 -69.030115 
L 168.248789 -68.767265 
L 168.095757 -68.504414 
L 167.884983 -68.241563 
L 167.614537 -67.978713 
L 167.288629 -67.715862 
L 166.917149 -67.453011 
L 166.514372 -67.19016 
L 166.097108 -66.92731 
L 165.682658 -66.664459 
L 165.286909 -66.401608 
L 164.922857 -66.138758 
L 164.599699 -65.875907 
L 164.322544 -65.613056 
L 164.092662 -65.350205 
L 163.908124 -65.087355 
L 163.764674 -64.824504 
L 163.656652 -64.561653 
L 163.577829 -64.298803 
L 163.522086 -64.035952 
z
" style="stroke: #515151; stroke-width: 0.35"/>
    </defs>
    <g clip-path="url(#p3bac18793a)">
     <use xlink:href="#m20c397248c" x="0" y="126" style="fill: #e1812c; stroke: #515151; stroke-width: 0.35"/>
    </g>
   </g>
   <g id="PolyCollection_7">
    <defs>
     <path id="me5bbec2ff6" d="M 185.687882 -63.234049 
L 185.5946 -63.234049 
L 185.572444 -63.501071 
L 185.542239 -63.768092 
L 185.502167 -64.035113 
L 185.450414 -64.302135 
L 185.385328 -64.569156 
L 185.305605 -64.836177 
L 185.210479 -65.103198 
L 185.099889 -65.37022 
L 184.974598 -65.637241 
L 184.836223 -65.904262 
L 184.687151 -66.171284 
L 184.530333 -66.438305 
L 184.368958 -66.705326 
L 184.206053 -66.972348 
L 184.044068 -67.239369 
L 183.884525 -67.50639 
L 183.727804 -67.773412 
L 183.573131 -68.040433 
L 183.418781 -68.307454 
L 183.262467 -68.574475 
L 183.101851 -68.841497 
L 182.935078 -69.108518 
L 182.761229 -69.375539 
L 182.58062 -69.642561 
L 182.39491 -69.909582 
L 182.207007 -70.176603 
L 182.020827 -70.443625 
L 181.840944 -70.710646 
L 181.67221 -70.977667 
L 181.51937 -71.244689 
L 181.386709 -71.51171 
L 181.277731 -71.778731 
L 181.194888 -72.045753 
L 181.139354 -72.312774 
L 181.110887 -72.579795 
L 181.107804 -72.846816 
L 181.127125 -73.113838 
L 181.164906 -73.380859 
L 181.216754 -73.64788 
L 181.278472 -73.914902 
L 181.346727 -74.181923 
L 181.419617 -74.448944 
L 181.496983 -74.715966 
L 181.580383 -74.982987 
L 181.672676 -75.250008 
L 181.777273 -75.51703 
L 181.897196 -75.784051 
L 182.034119 -76.051072 
L 182.187635 -76.318093 
L 182.354902 -76.585115 
L 182.53078 -76.852136 
L 182.708468 -77.119157 
L 182.880509 -77.386179 
L 183.039993 -77.6532 
L 183.181702 -77.920221 
L 183.302977 -78.187243 
L 183.404145 -78.454264 
L 183.488418 -78.721285 
L 183.561301 -78.988307 
L 183.629639 -79.255328 
L 183.700488 -79.522349 
L 183.780014 -79.78937 
L 183.872628 -80.056392 
L 183.980463 -80.323413 
L 184.103253 -80.590434 
L 184.238579 -80.857456 
L 184.382392 -81.124477 
L 184.529678 -81.391498 
L 184.67515 -81.65852 
L 184.813843 -81.925541 
L 184.941559 -82.192562 
L 185.055137 -82.459584 
L 185.15255 -82.726605 
L 185.232879 -82.993626 
L 185.296201 -83.260648 
L 185.34343 -83.527669 
L 185.376147 -83.79469 
L 185.396432 -84.061711 
L 185.406704 -84.328733 
L 185.409568 -84.595754 
L 185.407666 -84.862775 
L 185.403532 -85.129797 
L 185.399452 -85.396818 
L 185.397342 -85.663839 
L 185.398637 -85.930861 
L 185.404234 -86.197882 
L 185.414464 -86.464903 
L 185.429125 -86.731925 
L 185.447559 -86.998946 
L 185.468775 -87.265967 
L 185.491589 -87.532988 
L 185.514781 -87.80001 
L 185.537225 -88.067031 
L 185.558002 -88.334052 
L 185.576455 -88.601074 
L 185.592217 -88.868095 
L 185.605184 -89.135116 
L 185.615472 -89.402138 
L 185.623349 -89.669159 
L 185.659133 -89.669159 
L 185.659133 -89.669159 
L 185.66701 -89.402138 
L 185.677297 -89.135116 
L 185.690265 -88.868095 
L 185.706027 -88.601074 
L 185.72448 -88.334052 
L 185.745257 -88.067031 
L 185.767701 -87.80001 
L 185.790893 -87.532988 
L 185.813707 -87.265967 
L 185.834922 -86.998946 
L 185.853357 -86.731925 
L 185.868018 -86.464903 
L 185.878248 -86.197882 
L 185.883845 -85.930861 
L 185.88514 -85.663839 
L 185.883029 -85.396818 
L 185.87895 -85.129797 
L 185.874816 -84.862775 
L 185.872914 -84.595754 
L 185.875778 -84.328733 
L 185.88605 -84.061711 
L 185.906335 -83.79469 
L 185.939052 -83.527669 
L 185.986281 -83.260648 
L 186.049603 -82.993626 
L 186.129932 -82.726605 
L 186.227345 -82.459584 
L 186.340923 -82.192562 
L 186.468639 -81.925541 
L 186.607332 -81.65852 
L 186.752804 -81.391498 
L 186.90009 -81.124477 
L 187.043902 -80.857456 
L 187.179229 -80.590434 
L 187.302018 -80.323413 
L 187.409854 -80.056392 
L 187.502468 -79.78937 
L 187.581994 -79.522349 
L 187.652842 -79.255328 
L 187.721181 -78.988307 
L 187.794064 -78.721285 
L 187.878337 -78.454264 
L 187.979505 -78.187243 
L 188.10078 -77.920221 
L 188.242489 -77.6532 
L 188.401973 -77.386179 
L 188.574014 -77.119157 
L 188.751702 -76.852136 
L 188.92758 -76.585115 
L 189.094846 -76.318093 
L 189.248363 -76.051072 
L 189.385286 -75.784051 
L 189.505208 -75.51703 
L 189.609806 -75.250008 
L 189.702099 -74.982987 
L 189.785499 -74.715966 
L 189.862865 -74.448944 
L 189.935755 -74.181923 
L 190.00401 -73.914902 
L 190.065728 -73.64788 
L 190.117576 -73.380859 
L 190.155357 -73.113838 
L 190.174678 -72.846816 
L 190.171595 -72.579795 
L 190.143128 -72.312774 
L 190.087594 -72.045753 
L 190.004751 -71.778731 
L 189.895773 -71.51171 
L 189.763112 -71.244689 
L 189.610272 -70.977667 
L 189.441538 -70.710646 
L 189.261655 -70.443625 
L 189.075475 -70.176603 
L 188.887572 -69.909582 
L 188.701862 -69.642561 
L 188.521253 -69.375539 
L 188.347404 -69.108518 
L 188.180631 -68.841497 
L 188.020015 -68.574475 
L 187.863701 -68.307454 
L 187.709351 -68.040433 
L 187.554678 -67.773412 
L 187.397957 -67.50639 
L 187.238413 -67.239369 
L 187.076429 -66.972348 
L 186.913524 -66.705326 
L 186.752148 -66.438305 
L 186.595331 -66.171284 
L 186.446259 -65.904262 
L 186.307884 -65.637241 
L 186.182593 -65.37022 
L 186.072003 -65.103198 
L 185.976877 -64.836177 
L 185.897154 -64.569156 
L 185.832068 -64.302135 
L 185.780315 -64.035113 
L 185.740243 -63.768092 
L 185.710038 -63.501071 
L 185.687882 -63.234049 
z
" style="stroke: #515151; stroke-width: 0.35"/>
    </defs>
    <g clip-path="url(#p3bac18793a)">
     <use xlink:href="#me5bbec2ff6" x="0" y="126" style="fill: #e1812c; stroke: #515151; stroke-width: 0.35"/>
    </g>
   </g>
   <g id="PolyCollection_8">
    <defs>
     <path id="mdd15fbd516" d="M 207.903479 -63.353564 
L 207.82601 -63.353564 
L 207.8041 -63.772742 
L 207.772679 -64.19192 
L 207.729045 -64.611098 
L 207.670263 -65.030276 
L 207.593274 -65.449454 
L 207.494996 -65.868632 
L 207.372408 -66.28781 
L 207.222603 -66.706988 
L 207.042861 -67.126166 
L 206.830791 -67.545344 
L 206.584618 -67.964522 
L 206.303653 -68.3837 
L 205.988956 -68.802879 
L 205.644096 -69.222057 
L 205.275844 -69.641235 
L 204.894611 -70.060413 
L 204.514403 -70.479591 
L 204.152176 -70.898769 
L 203.826586 -71.317947 
L 203.556228 -71.737125 
L 203.357632 -72.156303 
L 203.243296 -72.575481 
L 203.220074 -72.994659 
L 203.288167 -73.413837 
L 203.440876 -73.833015 
L 203.665181 -74.252193 
L 203.943073 -74.671371 
L 204.253492 -75.090549 
L 204.574599 -75.509727 
L 204.886091 -75.928905 
L 205.17122 -76.348083 
L 205.418228 -76.767262 
L 205.62102 -77.18644 
L 205.779017 -77.605618 
L 205.896284 -78.024796 
L 205.980158 -78.443974 
L 206.03966 -78.863152 
L 206.083977 -79.28233 
L 206.121258 -79.701508 
L 206.157848 -80.120686 
L 206.197999 -80.539864 
L 206.24397 -80.959042 
L 206.296389 -81.37822 
L 206.354727 -81.797398 
L 206.417772 -82.216576 
L 206.484019 -82.635754 
L 206.551986 -83.054932 
L 206.620452 -83.47411 
L 206.688647 -83.893288 
L 206.756389 -84.312466 
L 206.824122 -84.731644 
L 206.892829 -85.150823 
L 206.963786 -85.570001 
L 207.038191 -85.989179 
L 207.116752 -86.408357 
L 207.199339 -86.827535 
L 207.284813 -87.246713 
L 207.371099 -87.665891 
L 207.455477 -88.085069 
L 207.535037 -88.504247 
L 207.607156 -88.923425 
L 207.669894 -89.342603 
L 207.722218 -89.761781 
L 207.764039 -90.180959 
L 207.796065 -90.600137 
L 207.819565 -91.019315 
L 207.836088 -91.438493 
L 207.847218 -91.857671 
L 207.854395 -92.276849 
L 207.85881 -92.696027 
L 207.861369 -93.115206 
L 207.862704 -93.534384 
L 207.863209 -93.953562 
L 207.863086 -94.37274 
L 207.862377 -94.791918 
L 207.861009 -95.211096 
L 207.858817 -95.630274 
L 207.855583 -96.049452 
L 207.851075 -96.46863 
L 207.845108 -96.887808 
L 207.837602 -97.306986 
L 207.828652 -97.726164 
L 207.818577 -98.145342 
L 207.807937 -98.56452 
L 207.797504 -98.983698 
L 207.788184 -99.402876 
L 207.780889 -99.822054 
L 207.776394 -100.241232 
L 207.7752 -100.66041 
L 207.777443 -101.079588 
L 207.782869 -101.498767 
L 207.79088 -101.917945 
L 207.800643 -102.337123 
L 207.811232 -102.756301 
L 207.821772 -103.175479 
L 207.831549 -103.594657 
L 207.840077 -104.013835 
L 207.847112 -104.433013 
L 207.85262 -104.852191 
L 207.876869 -104.852191 
L 207.876869 -104.852191 
L 207.882377 -104.433013 
L 207.889412 -104.013835 
L 207.89794 -103.594657 
L 207.907717 -103.175479 
L 207.918257 -102.756301 
L 207.928846 -102.337123 
L 207.938609 -101.917945 
L 207.94662 -101.498767 
L 207.952046 -101.079588 
L 207.954289 -100.66041 
L 207.953096 -100.241232 
L 207.9486 -99.822054 
L 207.941305 -99.402876 
L 207.931985 -98.983698 
L 207.921552 -98.56452 
L 207.910912 -98.145342 
L 207.900837 -97.726164 
L 207.891887 -97.306986 
L 207.884381 -96.887808 
L 207.878414 -96.46863 
L 207.873906 -96.049452 
L 207.870672 -95.630274 
L 207.86848 -95.211096 
L 207.867112 -94.791918 
L 207.866404 -94.37274 
L 207.86628 -93.953562 
L 207.866786 -93.534384 
L 207.868121 -93.115206 
L 207.870679 -92.696027 
L 207.875094 -92.276849 
L 207.882271 -91.857671 
L 207.893401 -91.438493 
L 207.909924 -91.019315 
L 207.933424 -90.600137 
L 207.96545 -90.180959 
L 208.007271 -89.761781 
L 208.059596 -89.342603 
L 208.122333 -88.923425 
L 208.194452 -88.504247 
L 208.274012 -88.085069 
L 208.35839 -87.665891 
L 208.444676 -87.246713 
L 208.53015 -86.827535 
L 208.612737 -86.408357 
L 208.691298 -85.989179 
L 208.765703 -85.570001 
L 208.83666 -85.150823 
L 208.905367 -84.731644 
L 208.9731 -84.312466 
L 209.040842 -83.893288 
L 209.109037 -83.47411 
L 209.177503 -83.054932 
L 209.24547 -82.635754 
L 209.311718 -82.216576 
L 209.374762 -81.797398 
L 209.433101 -81.37822 
L 209.485519 -80.959042 
L 209.53149 -80.539864 
L 209.571641 -80.120686 
L 209.608231 -79.701508 
L 209.645512 -79.28233 
L 209.689829 -78.863152 
L 209.749331 -78.443974 
L 209.833205 -78.024796 
L 209.950472 -77.605618 
L 210.108469 -77.18644 
L 210.311262 -76.767262 
L 210.55827 -76.348083 
L 210.843398 -75.928905 
L 211.154891 -75.509727 
L 211.475997 -75.090549 
L 211.786416 -74.671371 
L 212.064309 -74.252193 
L 212.288613 -73.833015 
L 212.441323 -73.413837 
L 212.509415 -72.994659 
L 212.486193 -72.575481 
L 212.371857 -72.156303 
L 212.173261 -71.737125 
L 211.902903 -71.317947 
L 211.577313 -70.898769 
L 211.215087 -70.479591 
L 210.834878 -70.060413 
L 210.453645 -69.641235 
L 210.085394 -69.222057 
L 209.740533 -68.802879 
L 209.425836 -68.3837 
L 209.144872 -67.964522 
L 208.898698 -67.545344 
L 208.686628 -67.126166 
L 208.506886 -66.706988 
L 208.357081 -66.28781 
L 208.234493 -65.868632 
L 208.136215 -65.449454 
L 208.059226 -65.030276 
L 208.000444 -64.611098 
L 207.956811 -64.19192 
L 207.92539 -63.772742 
L 207.903479 -63.353564 
z
" style="stroke: #515151; stroke-width: 0.35"/>
    </defs>
    <g clip-path="url(#p3bac18793a)">
     <use xlink:href="#mdd15fbd516" x="0" y="126" style="fill: #e1812c; stroke: #515151; stroke-width: 0.35"/>
    </g>
   </g>
   <g id="PolyCollection_9">
    <defs>
     <path id="maa13edd91d" d="M 230.448138 -61.591264 
L 229.728359 -61.591264 
L 229.620553 -61.907821 
L 229.489175 -62.224377 
L 229.331869 -62.540934 
L 229.146869 -62.85749 
L 228.933259 -63.174047 
L 228.691214 -63.490603 
L 228.422224 -63.80716 
L 228.129248 -64.123716 
L 227.816792 -64.440273 
L 227.490879 -64.756829 
L 227.158895 -65.073386 
L 226.829318 -65.389942 
L 226.511326 -65.706499 
L 226.214321 -66.023055 
L 225.947386 -66.339612 
L 225.718729 -66.656168 
L 225.535165 -66.972725 
L 225.401666 -67.289281 
L 225.32104 -67.605838 
L 225.29376 -67.922394 
L 225.317957 -68.238951 
L 225.389591 -68.555507 
L 225.502762 -68.872063 
L 225.650159 -69.18862 
L 225.823583 -69.505176 
L 226.014511 -69.821733 
L 226.21465 -70.138289 
L 226.416437 -70.454846 
L 226.613447 -70.771402 
L 226.800689 -71.087959 
L 226.974763 -71.404515 
L 227.133898 -71.721072 
L 227.277854 -72.037628 
L 227.407723 -72.354185 
L 227.525655 -72.670741 
L 227.634521 -72.987298 
L 227.737571 -73.303854 
L 227.838085 -73.620411 
L 227.939075 -73.936967 
L 228.04303 -74.253524 
L 228.151745 -74.57008 
L 228.266211 -74.886637 
L 228.386603 -75.203193 
L 228.512321 -75.51975 
L 228.642102 -75.836306 
L 228.774172 -76.152863 
L 228.906418 -76.469419 
L 229.03657 -76.785976 
L 229.162376 -77.102532 
L 229.281752 -77.419089 
L 229.392893 -77.735645 
L 229.494355 -78.052201 
L 229.585097 -78.368758 
L 229.664481 -78.685314 
L 229.732254 -79.001871 
L 229.7885 -79.318427 
L 229.833578 -79.634984 
L 229.868056 -79.95154 
L 229.892647 -80.268097 
L 229.908148 -80.584653 
L 229.915389 -80.90121 
L 229.915192 -81.217766 
L 229.908348 -81.534323 
L 229.8956 -81.850879 
L 229.877641 -82.167436 
L 229.855125 -82.483992 
L 229.828681 -82.800549 
L 229.798932 -83.117105 
L 229.766529 -83.433662 
L 229.732166 -83.750218 
L 229.696607 -84.066775 
L 229.660701 -84.383331 
L 229.625381 -84.699888 
L 229.591656 -85.016444 
L 229.56059 -85.333001 
L 229.53326 -85.649557 
L 229.51071 -85.966114 
L 229.493889 -86.28267 
L 229.483597 -86.599226 
L 229.480417 -86.915783 
L 229.484679 -87.232339 
L 229.496418 -87.548896 
L 229.515365 -87.865452 
L 229.540956 -88.182009 
L 229.57236 -88.498565 
L 229.608531 -88.815122 
L 229.648272 -89.131678 
L 229.690308 -89.448235 
L 229.733361 -89.764791 
L 229.776219 -90.081348 
L 229.817798 -90.397904 
L 229.857187 -90.714461 
L 229.893675 -91.031017 
L 229.926766 -91.347574 
L 229.956171 -91.66413 
L 229.981792 -91.980687 
L 230.003694 -92.297243 
L 230.022071 -92.6138 
L 230.037212 -92.930356 
L 230.139284 -92.930356 
L 230.139284 -92.930356 
L 230.154426 -92.6138 
L 230.172803 -92.297243 
L 230.194704 -91.980687 
L 230.220325 -91.66413 
L 230.24973 -91.347574 
L 230.282821 -91.031017 
L 230.31931 -90.714461 
L 230.358698 -90.397904 
L 230.400277 -90.081348 
L 230.443135 -89.764791 
L 230.486188 -89.448235 
L 230.528224 -89.131678 
L 230.567966 -88.815122 
L 230.604137 -88.498565 
L 230.635541 -88.182009 
L 230.661131 -87.865452 
L 230.680078 -87.548896 
L 230.691817 -87.232339 
L 230.696079 -86.915783 
L 230.6929 -86.599226 
L 230.682607 -86.28267 
L 230.665787 -85.966114 
L 230.643236 -85.649557 
L 230.615906 -85.333001 
L 230.58484 -85.016444 
L 230.551116 -84.699888 
L 230.515795 -84.383331 
L 230.479889 -84.066775 
L 230.444331 -83.750218 
L 230.409968 -83.433662 
L 230.377564 -83.117105 
L 230.347816 -82.800549 
L 230.321371 -82.483992 
L 230.298855 -82.167436 
L 230.280897 -81.850879 
L 230.268149 -81.534323 
L 230.261304 -81.217766 
L 230.261108 -80.90121 
L 230.268348 -80.584653 
L 230.28385 -80.268097 
L 230.308441 -79.95154 
L 230.342919 -79.634984 
L 230.387996 -79.318427 
L 230.444242 -79.001871 
L 230.512016 -78.685314 
L 230.5914 -78.368758 
L 230.682141 -78.052201 
L 230.783603 -77.735645 
L 230.894744 -77.419089 
L 231.01412 -77.102532 
L 231.139927 -76.785976 
L 231.270079 -76.469419 
L 231.402324 -76.152863 
L 231.534394 -75.836306 
L 231.664176 -75.51975 
L 231.789894 -75.203193 
L 231.910285 -74.886637 
L 232.024752 -74.57008 
L 232.133466 -74.253524 
L 232.237422 -73.936967 
L 232.338412 -73.620411 
L 232.438926 -73.303854 
L 232.541975 -72.987298 
L 232.650842 -72.670741 
L 232.768773 -72.354185 
L 232.898643 -72.037628 
L 233.042598 -71.721072 
L 233.201734 -71.404515 
L 233.375808 -71.087959 
L 233.563049 -70.771402 
L 233.760059 -70.454846 
L 233.961846 -70.138289 
L 234.161986 -69.821733 
L 234.352914 -69.505176 
L 234.526337 -69.18862 
L 234.673734 -68.872063 
L 234.786905 -68.555507 
L 234.858539 -68.238951 
L 234.882737 -67.922394 
L 234.855456 -67.605838 
L 234.77483 -67.289281 
L 234.641331 -66.972725 
L 234.457767 -66.656168 
L 234.229111 -66.339612 
L 233.962175 -66.023055 
L 233.66517 -65.706499 
L 233.347178 -65.389942 
L 233.017601 -65.073386 
L 232.685617 -64.756829 
L 232.359704 -64.440273 
L 232.047249 -64.123716 
L 231.754273 -63.80716 
L 231.485282 -63.490603 
L 231.243238 -63.174047 
L 231.029627 -62.85749 
L 230.844628 -62.540934 
L 230.687321 -62.224377 
L 230.555943 -61.907821 
L 230.448138 -61.591264 
z
" style="stroke: #515151; stroke-width: 0.35"/>
    </defs>
    <g clip-path="url(#p3bac18793a)">
     <use xlink:href="#maa13edd91d" x="0" y="126" style="fill: #e1812c; stroke: #515151; stroke-width: 0.35"/>
    </g>
   </g>
   <g id="matplotlib.axis_1">
    <g id="xtick_1">
     <g id="line2d_1">
      <defs>
       <path id="m0f82cc64a8" d="M 0 0 
L 0 3.5 
" style="stroke: #000000; stroke-width: 0.8"/>
      </defs>
      <g>
       <use xlink:href="#m0f82cc64a8" x="52.300219" y="66.961533" style="stroke: #000000; stroke-width: 0.8"/>
      </g>
     </g>
     <g id="text_1">
      <!-- Bone marrow dataset -->
      <g transform="translate(13.51486 114.698065) rotate(-45) scale(0.05 -0.05)">
       <defs>
        <path id="DejaVuSans-42" d="M 1259 2228 
L 1259 519 
L 2272 519 
Q 2781 519 3026 730 
Q 3272 941 3272 1375 
Q 3272 1813 3026 2020 
Q 2781 2228 2272 2228 
L 1259 2228 
z
M 1259 4147 
L 1259 2741 
L 2194 2741 
Q 2656 2741 2882 2914 
Q 3109 3088 3109 3444 
Q 3109 3797 2882 3972 
Q 2656 4147 2194 4147 
L 1259 4147 
z
M 628 4666 
L 2241 4666 
Q 2963 4666 3353 4366 
Q 3744 4066 3744 3513 
Q 3744 3084 3544 2831 
Q 3344 2578 2956 2516 
Q 3422 2416 3680 2098 
Q 3938 1781 3938 1306 
Q 3938 681 3513 340 
Q 3088 0 2303 0 
L 628 0 
L 628 4666 
z
" transform="scale(0.015625)"/>
        <path id="DejaVuSans-6f" d="M 1959 3097 
Q 1497 3097 1228 2736 
Q 959 2375 959 1747 
Q 959 1119 1226 758 
Q 1494 397 1959 397 
Q 2419 397 2687 759 
Q 2956 1122 2956 1747 
Q 2956 2369 2687 2733 
Q 2419 3097 1959 3097 
z
M 1959 3584 
Q 2709 3584 3137 3096 
Q 3566 2609 3566 1747 
Q 3566 888 3137 398 
Q 2709 -91 1959 -91 
Q 1206 -91 779 398 
Q 353 888 353 1747 
Q 353 2609 779 3096 
Q 1206 3584 1959 3584 
z
" transform="scale(0.015625)"/>
        <path id="DejaVuSans-6e" d="M 3513 2113 
L 3513 0 
L 2938 0 
L 2938 2094 
Q 2938 2591 2744 2837 
Q 2550 3084 2163 3084 
Q 1697 3084 1428 2787 
Q 1159 2491 1159 1978 
L 1159 0 
L 581 0 
L 581 3500 
L 1159 3500 
L 1159 2956 
Q 1366 3272 1645 3428 
Q 1925 3584 2291 3584 
Q 2894 3584 3203 3211 
Q 3513 2838 3513 2113 
z
" transform="scale(0.015625)"/>
        <path id="DejaVuSans-65" d="M 3597 1894 
L 3597 1613 
L 953 1613 
Q 991 1019 1311 708 
Q 1631 397 2203 397 
Q 2534 397 2845 478 
Q 3156 559 3463 722 
L 3463 178 
Q 3153 47 2828 -22 
Q 2503 -91 2169 -91 
Q 1331 -91 842 396 
Q 353 884 353 1716 
Q 353 2575 817 3079 
Q 1281 3584 2069 3584 
Q 2775 3584 3186 3129 
Q 3597 2675 3597 1894 
z
M 3022 2063 
Q 3016 2534 2758 2815 
Q 2500 3097 2075 3097 
Q 1594 3097 1305 2825 
Q 1016 2553 972 2059 
L 3022 2063 
z
" transform="scale(0.015625)"/>
        <path id="DejaVuSans-20" transform="scale(0.015625)"/>
        <path id="DejaVuSans-6d" d="M 3328 2828 
Q 3544 3216 3844 3400 
Q 4144 3584 4550 3584 
Q 5097 3584 5394 3201 
Q 5691 2819 5691 2113 
L 5691 0 
L 5113 0 
L 5113 2094 
Q 5113 2597 4934 2840 
Q 4756 3084 4391 3084 
Q 3944 3084 3684 2787 
Q 3425 2491 3425 1978 
L 3425 0 
L 2847 0 
L 2847 2094 
Q 2847 2600 2669 2842 
Q 2491 3084 2119 3084 
Q 1678 3084 1418 2786 
Q 1159 2488 1159 1978 
L 1159 0 
L 581 0 
L 581 3500 
L 1159 3500 
L 1159 2956 
Q 1356 3278 1631 3431 
Q 1906 3584 2284 3584 
Q 2666 3584 2933 3390 
Q 3200 3197 3328 2828 
z
" transform="scale(0.015625)"/>
        <path id="DejaVuSans-61" d="M 2194 1759 
Q 1497 1759 1228 1600 
Q 959 1441 959 1056 
Q 959 750 1161 570 
Q 1363 391 1709 391 
Q 2188 391 2477 730 
Q 2766 1069 2766 1631 
L 2766 1759 
L 2194 1759 
z
M 3341 1997 
L 3341 0 
L 2766 0 
L 2766 531 
Q 2569 213 2275 61 
Q 1981 -91 1556 -91 
Q 1019 -91 701 211 
Q 384 513 384 1019 
Q 384 1609 779 1909 
Q 1175 2209 1959 2209 
L 2766 2209 
L 2766 2266 
Q 2766 2663 2505 2880 
Q 2244 3097 1772 3097 
Q 1472 3097 1187 3025 
Q 903 2953 641 2809 
L 641 3341 
Q 956 3463 1253 3523 
Q 1550 3584 1831 3584 
Q 2591 3584 2966 3190 
Q 3341 2797 3341 1997 
z
" transform="scale(0.015625)"/>
        <path id="DejaVuSans-72" d="M 2631 2963 
Q 2534 3019 2420 3045 
Q 2306 3072 2169 3072 
Q 1681 3072 1420 2755 
Q 1159 2438 1159 1844 
L 1159 0 
L 581 0 
L 581 3500 
L 1159 3500 
L 1159 2956 
Q 1341 3275 1631 3429 
Q 1922 3584 2338 3584 
Q 2397 3584 2469 3576 
Q 2541 3569 2628 3553 
L 2631 2963 
z
" transform="scale(0.015625)"/>
        <path id="DejaVuSans-77" d="M 269 3500 
L 844 3500 
L 1563 769 
L 2278 3500 
L 2956 3500 
L 3675 769 
L 4391 3500 
L 4966 3500 
L 4050 0 
L 3372 0 
L 2619 2869 
L 1863 0 
L 1184 0 
L 269 3500 
z
" transform="scale(0.015625)"/>
        <path id="DejaVuSans-64" d="M 2906 2969 
L 2906 4863 
L 3481 4863 
L 3481 0 
L 2906 0 
L 2906 525 
Q 2725 213 2448 61 
Q 2172 -91 1784 -91 
Q 1150 -91 751 415 
Q 353 922 353 1747 
Q 353 2572 751 3078 
Q 1150 3584 1784 3584 
Q 2172 3584 2448 3432 
Q 2725 3281 2906 2969 
z
M 947 1747 
Q 947 1113 1208 752 
Q 1469 391 1925 391 
Q 2381 391 2643 752 
Q 2906 1113 2906 1747 
Q 2906 2381 2643 2742 
Q 2381 3103 1925 3103 
Q 1469 3103 1208 2742 
Q 947 2381 947 1747 
z
" transform="scale(0.015625)"/>
        <path id="DejaVuSans-74" d="M 1172 4494 
L 1172 3500 
L 2356 3500 
L 2356 3053 
L 1172 3053 
L 1172 1153 
Q 1172 725 1289 603 
Q 1406 481 1766 481 
L 2356 481 
L 2356 0 
L 1766 0 
Q 1100 0 847 248 
Q 594 497 594 1153 
L 594 3053 
L 172 3053 
L 172 3500 
L 594 3500 
L 594 4494 
L 1172 4494 
z
" transform="scale(0.015625)"/>
        <path id="DejaVuSans-73" d="M 2834 3397 
L 2834 2853 
Q 2591 2978 2328 3040 
Q 2066 3103 1784 3103 
Q 1356 3103 1142 2972 
Q 928 2841 928 2578 
Q 928 2378 1081 2264 
Q 1234 2150 1697 2047 
L 1894 2003 
Q 2506 1872 2764 1633 
Q 3022 1394 3022 966 
Q 3022 478 2636 193 
Q 2250 -91 1575 -91 
Q 1294 -91 989 -36 
Q 684 19 347 128 
L 347 722 
Q 666 556 975 473 
Q 1284 391 1588 391 
Q 1994 391 2212 530 
Q 2431 669 2431 922 
Q 2431 1156 2273 1281 
Q 2116 1406 1581 1522 
L 1381 1569 
Q 847 1681 609 1914 
Q 372 2147 372 2553 
Q 372 3047 722 3315 
Q 1072 3584 1716 3584 
Q 2034 3584 2315 3537 
Q 2597 3491 2834 3397 
z
" transform="scale(0.015625)"/>
       </defs>
       <use xlink:href="#DejaVuSans-42"/>
       <use xlink:href="#DejaVuSans-6f" x="68.603516"/>
       <use xlink:href="#DejaVuSans-6e" x="129.785156"/>
       <use xlink:href="#DejaVuSans-65" x="193.164062"/>
       <use xlink:href="#DejaVuSans-20" x="254.6875"/>
       <use xlink:href="#DejaVuSans-6d" x="286.474609"/>
       <use xlink:href="#DejaVuSans-61" x="383.886719"/>
       <use xlink:href="#DejaVuSans-72" x="445.166016"/>
       <use xlink:href="#DejaVuSans-72" x="484.529297"/>
       <use xlink:href="#DejaVuSans-6f" x="523.392578"/>
       <use xlink:href="#DejaVuSans-77" x="584.574219"/>
       <use xlink:href="#DejaVuSans-20" x="666.361328"/>
       <use xlink:href="#DejaVuSans-64" x="698.148438"/>
       <use xlink:href="#DejaVuSans-61" x="761.625"/>
       <use xlink:href="#DejaVuSans-74" x="822.904297"/>
       <use xlink:href="#DejaVuSans-61" x="862.113281"/>
       <use xlink:href="#DejaVuSans-73" x="923.392578"/>
       <use xlink:href="#DejaVuSans-65" x="975.492188"/>
       <use xlink:href="#DejaVuSans-74" x="1037.015625"/>
      </g>
     </g>
    </g>
    <g id="xtick_2">
     <g id="line2d_2">
      <g>
       <use xlink:href="#m0f82cc64a8" x="74.523723" y="66.961533" style="stroke: #000000; stroke-width: 0.8"/>
      </g>
     </g>
     <g id="text_2">
      <!-- PBMC dataset -->
      <g transform="translate(49.220901 101.215527) rotate(-45) scale(0.05 -0.05)">
       <defs>
        <path id="DejaVuSans-50" d="M 1259 4147 
L 1259 2394 
L 2053 2394 
Q 2494 2394 2734 2622 
Q 2975 2850 2975 3272 
Q 2975 3691 2734 3919 
Q 2494 4147 2053 4147 
L 1259 4147 
z
M 628 4666 
L 2053 4666 
Q 2838 4666 3239 4311 
Q 3641 3956 3641 3272 
Q 3641 2581 3239 2228 
Q 2838 1875 2053 1875 
L 1259 1875 
L 1259 0 
L 628 0 
L 628 4666 
z
" transform="scale(0.015625)"/>
        <path id="DejaVuSans-4d" d="M 628 4666 
L 1569 4666 
L 2759 1491 
L 3956 4666 
L 4897 4666 
L 4897 0 
L 4281 0 
L 4281 4097 
L 3078 897 
L 2444 897 
L 1241 4097 
L 1241 0 
L 628 0 
L 628 4666 
z
" transform="scale(0.015625)"/>
        <path id="DejaVuSans-43" d="M 4122 4306 
L 4122 3641 
Q 3803 3938 3442 4084 
Q 3081 4231 2675 4231 
Q 1875 4231 1450 3742 
Q 1025 3253 1025 2328 
Q 1025 1406 1450 917 
Q 1875 428 2675 428 
Q 3081 428 3442 575 
Q 3803 722 4122 1019 
L 4122 359 
Q 3791 134 3420 21 
Q 3050 -91 2638 -91 
Q 1578 -91 968 557 
Q 359 1206 359 2328 
Q 359 3453 968 4101 
Q 1578 4750 2638 4750 
Q 3056 4750 3426 4639 
Q 3797 4528 4122 4306 
z
" transform="scale(0.015625)"/>
       </defs>
       <use xlink:href="#DejaVuSans-50"/>
       <use xlink:href="#DejaVuSans-42" x="60.302734"/>
       <use xlink:href="#DejaVuSans-4d" x="128.90625"/>
       <use xlink:href="#DejaVuSans-43" x="215.185547"/>
       <use xlink:href="#DejaVuSans-20" x="285.009766"/>
       <use xlink:href="#DejaVuSans-64" x="316.796875"/>
       <use xlink:href="#DejaVuSans-61" x="380.273438"/>
       <use xlink:href="#DejaVuSans-74" x="441.552734"/>
       <use xlink:href="#DejaVuSans-61" x="480.761719"/>
       <use xlink:href="#DejaVuSans-73" x="542.041016"/>
       <use xlink:href="#DejaVuSans-65" x="594.140625"/>
       <use xlink:href="#DejaVuSans-74" x="655.664062"/>
      </g>
     </g>
    </g>
    <g id="xtick_3">
     <g id="line2d_3">
      <g>
       <use xlink:href="#m0f82cc64a8" x="96.747227" y="66.961533" style="stroke: #000000; stroke-width: 0.8"/>
      </g>
     </g>
     <g id="text_3">
      <!-- Kidney dataset -->
      <g transform="translate(69.467268 103.192664) rotate(-45) scale(0.05 -0.05)">
       <defs>
        <path id="DejaVuSans-4b" d="M 628 4666 
L 1259 4666 
L 1259 2694 
L 3353 4666 
L 4166 4666 
L 1850 2491 
L 4331 0 
L 3500 0 
L 1259 2247 
L 1259 0 
L 628 0 
L 628 4666 
z
" transform="scale(0.015625)"/>
        <path id="DejaVuSans-69" d="M 603 3500 
L 1178 3500 
L 1178 0 
L 603 0 
L 603 3500 
z
M 603 4863 
L 1178 4863 
L 1178 4134 
L 603 4134 
L 603 4863 
z
" transform="scale(0.015625)"/>
        <path id="DejaVuSans-79" d="M 2059 -325 
Q 1816 -950 1584 -1140 
Q 1353 -1331 966 -1331 
L 506 -1331 
L 506 -850 
L 844 -850 
Q 1081 -850 1212 -737 
Q 1344 -625 1503 -206 
L 1606 56 
L 191 3500 
L 800 3500 
L 1894 763 
L 2988 3500 
L 3597 3500 
L 2059 -325 
z
" transform="scale(0.015625)"/>
       </defs>
       <use xlink:href="#DejaVuSans-4b"/>
       <use xlink:href="#DejaVuSans-69" x="65.576172"/>
       <use xlink:href="#DejaVuSans-64" x="93.359375"/>
       <use xlink:href="#DejaVuSans-6e" x="156.835938"/>
       <use xlink:href="#DejaVuSans-65" x="220.214844"/>
       <use xlink:href="#DejaVuSans-79" x="281.738281"/>
       <use xlink:href="#DejaVuSans-20" x="340.917969"/>
       <use xlink:href="#DejaVuSans-64" x="372.705078"/>
       <use xlink:href="#DejaVuSans-61" x="436.181641"/>
       <use xlink:href="#DejaVuSans-74" x="497.460938"/>
       <use xlink:href="#DejaVuSans-61" x="536.669922"/>
       <use xlink:href="#DejaVuSans-73" x="597.949219"/>
       <use xlink:href="#DejaVuSans-65" x="650.048828"/>
       <use xlink:href="#DejaVuSans-74" x="711.572266"/>
      </g>
     </g>
    </g>
    <g id="xtick_4">
     <g id="line2d_4">
      <g>
       <use xlink:href="#m0f82cc64a8" x="118.97073" y="66.961533" style="stroke: #000000; stroke-width: 0.8"/>
      </g>
     </g>
     <g id="text_4">
      <!-- Pancreas dataset -->
      <g transform="translate(87.863004 107.020432) rotate(-45) scale(0.05 -0.05)">
       <defs>
        <path id="DejaVuSans-63" d="M 3122 3366 
L 3122 2828 
Q 2878 2963 2633 3030 
Q 2388 3097 2138 3097 
Q 1578 3097 1268 2742 
Q 959 2388 959 1747 
Q 959 1106 1268 751 
Q 1578 397 2138 397 
Q 2388 397 2633 464 
Q 2878 531 3122 666 
L 3122 134 
Q 2881 22 2623 -34 
Q 2366 -91 2075 -91 
Q 1284 -91 818 406 
Q 353 903 353 1747 
Q 353 2603 823 3093 
Q 1294 3584 2113 3584 
Q 2378 3584 2631 3529 
Q 2884 3475 3122 3366 
z
" transform="scale(0.015625)"/>
       </defs>
       <use xlink:href="#DejaVuSans-50"/>
       <use xlink:href="#DejaVuSans-61" x="55.802734"/>
       <use xlink:href="#DejaVuSans-6e" x="117.082031"/>
       <use xlink:href="#DejaVuSans-63" x="180.460938"/>
       <use xlink:href="#DejaVuSans-72" x="235.441406"/>
       <use xlink:href="#DejaVuSans-65" x="274.304688"/>
       <use xlink:href="#DejaVuSans-61" x="335.828125"/>
       <use xlink:href="#DejaVuSans-73" x="397.107422"/>
       <use xlink:href="#DejaVuSans-20" x="449.207031"/>
       <use xlink:href="#DejaVuSans-64" x="480.994141"/>
       <use xlink:href="#DejaVuSans-61" x="544.470703"/>
       <use xlink:href="#DejaVuSans-74" x="605.75"/>
       <use xlink:href="#DejaVuSans-61" x="644.958984"/>
       <use xlink:href="#DejaVuSans-73" x="706.238281"/>
       <use xlink:href="#DejaVuSans-65" x="758.337891"/>
       <use xlink:href="#DejaVuSans-74" x="819.861328"/>
      </g>
     </g>
    </g>
    <g id="xtick_5">
     <g id="line2d_5">
      <g>
       <use xlink:href="#m0f82cc64a8" x="141.194234" y="66.961533" style="stroke: #000000; stroke-width: 0.8"/>
      </g>
     </g>
     <g id="text_5">
      <!-- Merged dataset -->
      <g transform="translate(112.686229 104.42071) rotate(-45) scale(0.05 -0.05)">
       <defs>
        <path id="DejaVuSans-67" d="M 2906 1791 
Q 2906 2416 2648 2759 
Q 2391 3103 1925 3103 
Q 1463 3103 1205 2759 
Q 947 2416 947 1791 
Q 947 1169 1205 825 
Q 1463 481 1925 481 
Q 2391 481 2648 825 
Q 2906 1169 2906 1791 
z
M 3481 434 
Q 3481 -459 3084 -895 
Q 2688 -1331 1869 -1331 
Q 1566 -1331 1297 -1286 
Q 1028 -1241 775 -1147 
L 775 -588 
Q 1028 -725 1275 -790 
Q 1522 -856 1778 -856 
Q 2344 -856 2625 -561 
Q 2906 -266 2906 331 
L 2906 616 
Q 2728 306 2450 153 
Q 2172 0 1784 0 
Q 1141 0 747 490 
Q 353 981 353 1791 
Q 353 2603 747 3093 
Q 1141 3584 1784 3584 
Q 2172 3584 2450 3431 
Q 2728 3278 2906 2969 
L 2906 3500 
L 3481 3500 
L 3481 434 
z
" transform="scale(0.015625)"/>
       </defs>
       <use xlink:href="#DejaVuSans-4d"/>
       <use xlink:href="#DejaVuSans-65" x="86.279297"/>
       <use xlink:href="#DejaVuSans-72" x="147.802734"/>
       <use xlink:href="#DejaVuSans-67" x="187.166016"/>
       <use xlink:href="#DejaVuSans-65" x="250.642578"/>
       <use xlink:href="#DejaVuSans-64" x="312.166016"/>
       <use xlink:href="#DejaVuSans-20" x="375.642578"/>
       <use xlink:href="#DejaVuSans-64" x="407.429688"/>
       <use xlink:href="#DejaVuSans-61" x="470.90625"/>
       <use xlink:href="#DejaVuSans-74" x="532.185547"/>
       <use xlink:href="#DejaVuSans-61" x="571.394531"/>
       <use xlink:href="#DejaVuSans-73" x="632.673828"/>
       <use xlink:href="#DejaVuSans-65" x="684.773438"/>
       <use xlink:href="#DejaVuSans-74" x="746.296875"/>
      </g>
     </g>
    </g>
    <g id="xtick_6">
     <g id="line2d_6">
      <g>
       <use xlink:href="#m0f82cc64a8" x="163.417737" y="66.961533" style="stroke: #000000; stroke-width: 0.8"/>
      </g>
     </g>
     <g id="text_6">
      <!-- Baron dataset -->
      <g transform="translate(137.821577 101.508866) rotate(-45) scale(0.05 -0.05)">
       <use xlink:href="#DejaVuSans-42"/>
       <use xlink:href="#DejaVuSans-61" x="68.603516"/>
       <use xlink:href="#DejaVuSans-72" x="129.882812"/>
       <use xlink:href="#DejaVuSans-6f" x="168.746094"/>
       <use xlink:href="#DejaVuSans-6e" x="229.927734"/>
       <use xlink:href="#DejaVuSans-20" x="293.306641"/>
       <use xlink:href="#DejaVuSans-64" x="325.09375"/>
       <use xlink:href="#DejaVuSans-61" x="388.570312"/>
       <use xlink:href="#DejaVuSans-74" x="449.849609"/>
       <use xlink:href="#DejaVuSans-61" x="489.058594"/>
       <use xlink:href="#DejaVuSans-73" x="550.337891"/>
       <use xlink:href="#DejaVuSans-65" x="602.4375"/>
       <use xlink:href="#DejaVuSans-74" x="663.960938"/>
      </g>
     </g>
    </g>
    <g id="xtick_7">
     <g id="line2d_7">
      <g>
       <use xlink:href="#m0f82cc64a8" x="185.641241" y="66.961533" style="stroke: #000000; stroke-width: 0.8"/>
      </g>
     </g>
     <g id="text_7">
      <!-- MacParland dataset -->
      <g transform="translate(150.027366 111.52658) rotate(-45) scale(0.05 -0.05)">
       <defs>
        <path id="DejaVuSans-6c" d="M 603 4863 
L 1178 4863 
L 1178 0 
L 603 0 
L 603 4863 
z
" transform="scale(0.015625)"/>
       </defs>
       <use xlink:href="#DejaVuSans-4d"/>
       <use xlink:href="#DejaVuSans-61" x="86.279297"/>
       <use xlink:href="#DejaVuSans-63" x="147.558594"/>
       <use xlink:href="#DejaVuSans-50" x="202.539062"/>
       <use xlink:href="#DejaVuSans-61" x="258.341797"/>
       <use xlink:href="#DejaVuSans-72" x="319.621094"/>
       <use xlink:href="#DejaVuSans-6c" x="360.734375"/>
       <use xlink:href="#DejaVuSans-61" x="388.517578"/>
       <use xlink:href="#DejaVuSans-6e" x="449.796875"/>
       <use xlink:href="#DejaVuSans-64" x="513.175781"/>
       <use xlink:href="#DejaVuSans-20" x="576.652344"/>
       <use xlink:href="#DejaVuSans-64" x="608.439453"/>
       <use xlink:href="#DejaVuSans-61" x="671.916016"/>
       <use xlink:href="#DejaVuSans-74" x="733.195312"/>
       <use xlink:href="#DejaVuSans-61" x="772.404297"/>
       <use xlink:href="#DejaVuSans-73" x="833.683594"/>
       <use xlink:href="#DejaVuSans-65" x="885.783203"/>
       <use xlink:href="#DejaVuSans-74" x="947.306641"/>
      </g>
     </g>
    </g>
    <g id="xtick_8">
     <g id="line2d_8">
      <g>
       <use xlink:href="#m0f82cc64a8" x="207.864745" y="66.961533" style="stroke: #000000; stroke-width: 0.8"/>
      </g>
     </g>
     <g id="text_8">
      <!-- Segerstolpe dataset -->
      <g transform="translate(171.552049 112.225401) rotate(-45) scale(0.05 -0.05)">
       <defs>
        <path id="DejaVuSans-53" d="M 3425 4513 
L 3425 3897 
Q 3066 4069 2747 4153 
Q 2428 4238 2131 4238 
Q 1616 4238 1336 4038 
Q 1056 3838 1056 3469 
Q 1056 3159 1242 3001 
Q 1428 2844 1947 2747 
L 2328 2669 
Q 3034 2534 3370 2195 
Q 3706 1856 3706 1288 
Q 3706 609 3251 259 
Q 2797 -91 1919 -91 
Q 1588 -91 1214 -16 
Q 841 59 441 206 
L 441 856 
Q 825 641 1194 531 
Q 1563 422 1919 422 
Q 2459 422 2753 634 
Q 3047 847 3047 1241 
Q 3047 1584 2836 1778 
Q 2625 1972 2144 2069 
L 1759 2144 
Q 1053 2284 737 2584 
Q 422 2884 422 3419 
Q 422 4038 858 4394 
Q 1294 4750 2059 4750 
Q 2388 4750 2728 4690 
Q 3069 4631 3425 4513 
z
" transform="scale(0.015625)"/>
        <path id="DejaVuSans-70" d="M 1159 525 
L 1159 -1331 
L 581 -1331 
L 581 3500 
L 1159 3500 
L 1159 2969 
Q 1341 3281 1617 3432 
Q 1894 3584 2278 3584 
Q 2916 3584 3314 3078 
Q 3713 2572 3713 1747 
Q 3713 922 3314 415 
Q 2916 -91 2278 -91 
Q 1894 -91 1617 61 
Q 1341 213 1159 525 
z
M 3116 1747 
Q 3116 2381 2855 2742 
Q 2594 3103 2138 3103 
Q 1681 3103 1420 2742 
Q 1159 2381 1159 1747 
Q 1159 1113 1420 752 
Q 1681 391 2138 391 
Q 2594 391 2855 752 
Q 3116 1113 3116 1747 
z
" transform="scale(0.015625)"/>
       </defs>
       <use xlink:href="#DejaVuSans-53"/>
       <use xlink:href="#DejaVuSans-65" x="63.476562"/>
       <use xlink:href="#DejaVuSans-67" x="125"/>
       <use xlink:href="#DejaVuSans-65" x="188.476562"/>
       <use xlink:href="#DejaVuSans-72" x="250"/>
       <use xlink:href="#DejaVuSans-73" x="291.113281"/>
       <use xlink:href="#DejaVuSans-74" x="343.212891"/>
       <use xlink:href="#DejaVuSans-6f" x="382.421875"/>
       <use xlink:href="#DejaVuSans-6c" x="443.603516"/>
       <use xlink:href="#DejaVuSans-70" x="471.386719"/>
       <use xlink:href="#DejaVuSans-65" x="534.863281"/>
       <use xlink:href="#DejaVuSans-20" x="596.386719"/>
       <use xlink:href="#DejaVuSans-64" x="628.173828"/>
       <use xlink:href="#DejaVuSans-61" x="691.650391"/>
       <use xlink:href="#DejaVuSans-74" x="752.929688"/>
       <use xlink:href="#DejaVuSans-61" x="792.138672"/>
       <use xlink:href="#DejaVuSans-73" x="853.417969"/>
       <use xlink:href="#DejaVuSans-65" x="905.517578"/>
       <use xlink:href="#DejaVuSans-74" x="967.041016"/>
      </g>
     </g>
    </g>
    <g id="xtick_9">
     <g id="line2d_9">
      <g>
       <use xlink:href="#m0f82cc64a8" x="230.088248" y="66.961533" style="stroke: #000000; stroke-width: 0.8"/>
      </g>
     </g>
     <g id="text_9">
      <!-- Zheng68k dataset -->
      <g transform="translate(196.992889 109.008065) rotate(-45) scale(0.05 -0.05)">
       <defs>
        <path id="DejaVuSans-5a" d="M 359 4666 
L 4025 4666 
L 4025 4184 
L 1075 531 
L 4097 531 
L 4097 0 
L 288 0 
L 288 481 
L 3238 4134 
L 359 4134 
L 359 4666 
z
" transform="scale(0.015625)"/>
        <path id="DejaVuSans-68" d="M 3513 2113 
L 3513 0 
L 2938 0 
L 2938 2094 
Q 2938 2591 2744 2837 
Q 2550 3084 2163 3084 
Q 1697 3084 1428 2787 
Q 1159 2491 1159 1978 
L 1159 0 
L 581 0 
L 581 4863 
L 1159 4863 
L 1159 2956 
Q 1366 3272 1645 3428 
Q 1925 3584 2291 3584 
Q 2894 3584 3203 3211 
Q 3513 2838 3513 2113 
z
" transform="scale(0.015625)"/>
        <path id="DejaVuSans-36" d="M 2113 2584 
Q 1688 2584 1439 2293 
Q 1191 2003 1191 1497 
Q 1191 994 1439 701 
Q 1688 409 2113 409 
Q 2538 409 2786 701 
Q 3034 994 3034 1497 
Q 3034 2003 2786 2293 
Q 2538 2584 2113 2584 
z
M 3366 4563 
L 3366 3988 
Q 3128 4100 2886 4159 
Q 2644 4219 2406 4219 
Q 1781 4219 1451 3797 
Q 1122 3375 1075 2522 
Q 1259 2794 1537 2939 
Q 1816 3084 2150 3084 
Q 2853 3084 3261 2657 
Q 3669 2231 3669 1497 
Q 3669 778 3244 343 
Q 2819 -91 2113 -91 
Q 1303 -91 875 529 
Q 447 1150 447 2328 
Q 447 3434 972 4092 
Q 1497 4750 2381 4750 
Q 2619 4750 2861 4703 
Q 3103 4656 3366 4563 
z
" transform="scale(0.015625)"/>
        <path id="DejaVuSans-38" d="M 2034 2216 
Q 1584 2216 1326 1975 
Q 1069 1734 1069 1313 
Q 1069 891 1326 650 
Q 1584 409 2034 409 
Q 2484 409 2743 651 
Q 3003 894 3003 1313 
Q 3003 1734 2745 1975 
Q 2488 2216 2034 2216 
z
M 1403 2484 
Q 997 2584 770 2862 
Q 544 3141 544 3541 
Q 544 4100 942 4425 
Q 1341 4750 2034 4750 
Q 2731 4750 3128 4425 
Q 3525 4100 3525 3541 
Q 3525 3141 3298 2862 
Q 3072 2584 2669 2484 
Q 3125 2378 3379 2068 
Q 3634 1759 3634 1313 
Q 3634 634 3220 271 
Q 2806 -91 2034 -91 
Q 1263 -91 848 271 
Q 434 634 434 1313 
Q 434 1759 690 2068 
Q 947 2378 1403 2484 
z
M 1172 3481 
Q 1172 3119 1398 2916 
Q 1625 2713 2034 2713 
Q 2441 2713 2670 2916 
Q 2900 3119 2900 3481 
Q 2900 3844 2670 4047 
Q 2441 4250 2034 4250 
Q 1625 4250 1398 4047 
Q 1172 3844 1172 3481 
z
" transform="scale(0.015625)"/>
        <path id="DejaVuSans-6b" d="M 581 4863 
L 1159 4863 
L 1159 1991 
L 2875 3500 
L 3609 3500 
L 1753 1863 
L 3688 0 
L 2938 0 
L 1159 1709 
L 1159 0 
L 581 0 
L 581 4863 
z
" transform="scale(0.015625)"/>
       </defs>
       <use xlink:href="#DejaVuSans-5a"/>
       <use xlink:href="#DejaVuSans-68" x="68.505859"/>
       <use xlink:href="#DejaVuSans-65" x="131.884766"/>
       <use xlink:href="#DejaVuSans-6e" x="193.408203"/>
       <use xlink:href="#DejaVuSans-67" x="256.787109"/>
       <use xlink:href="#DejaVuSans-36" x="320.263672"/>
       <use xlink:href="#DejaVuSans-38" x="383.886719"/>
       <use xlink:href="#DejaVuSans-6b" x="447.509766"/>
       <use xlink:href="#DejaVuSans-20" x="505.419922"/>
       <use xlink:href="#DejaVuSans-64" x="537.207031"/>
       <use xlink:href="#DejaVuSans-61" x="600.683594"/>
       <use xlink:href="#DejaVuSans-74" x="661.962891"/>
       <use xlink:href="#DejaVuSans-61" x="701.171875"/>
       <use xlink:href="#DejaVuSans-73" x="762.451172"/>
       <use xlink:href="#DejaVuSans-65" x="814.550781"/>
       <use xlink:href="#DejaVuSans-74" x="876.074219"/>
      </g>
     </g>
    </g>
   </g>
   <g id="matplotlib.axis_2">
    <g id="ytick_1">
     <g id="line2d_10">
      <defs>
       <path id="m17a1ebfb78" d="M 0 0 
L -3.5 0 
" style="stroke: #000000; stroke-width: 0.8"/>
      </defs>
      <g>
       <use xlink:href="#m17a1ebfb78" x="41.188467" y="59.845689" style="stroke: #000000; stroke-width: 0.8"/>
      </g>
     </g>
     <g id="text_10">
      <!-- 0.0 -->
      <g transform="translate(26.236905 61.745298) scale(0.05 -0.05)">
       <defs>
        <path id="DejaVuSans-30" d="M 2034 4250 
Q 1547 4250 1301 3770 
Q 1056 3291 1056 2328 
Q 1056 1369 1301 889 
Q 1547 409 2034 409 
Q 2525 409 2770 889 
Q 3016 1369 3016 2328 
Q 3016 3291 2770 3770 
Q 2525 4250 2034 4250 
z
M 2034 4750 
Q 2819 4750 3233 4129 
Q 3647 3509 3647 2328 
Q 3647 1150 3233 529 
Q 2819 -91 2034 -91 
Q 1250 -91 836 529 
Q 422 1150 422 2328 
Q 422 3509 836 4129 
Q 1250 4750 2034 4750 
z
" transform="scale(0.015625)"/>
        <path id="DejaVuSans-2e" d="M 684 794 
L 1344 794 
L 1344 0 
L 684 0 
L 684 794 
z
" transform="scale(0.015625)"/>
       </defs>
       <use xlink:href="#DejaVuSans-30"/>
       <use xlink:href="#DejaVuSans-2e" x="63.623047"/>
       <use xlink:href="#DejaVuSans-30" x="95.410156"/>
      </g>
     </g>
    </g>
    <g id="ytick_2">
     <g id="line2d_11">
      <g>
       <use xlink:href="#m17a1ebfb78" x="41.188467" y="52.517825" style="stroke: #000000; stroke-width: 0.8"/>
      </g>
     </g>
     <g id="text_11">
      <!-- 0.1 -->
      <g transform="translate(26.236905 54.417435) scale(0.05 -0.05)">
       <defs>
        <path id="DejaVuSans-31" d="M 794 531 
L 1825 531 
L 1825 4091 
L 703 3866 
L 703 4441 
L 1819 4666 
L 2450 4666 
L 2450 531 
L 3481 531 
L 3481 0 
L 794 0 
L 794 531 
z
" transform="scale(0.015625)"/>
       </defs>
       <use xlink:href="#DejaVuSans-30"/>
       <use xlink:href="#DejaVuSans-2e" x="63.623047"/>
       <use xlink:href="#DejaVuSans-31" x="95.410156"/>
      </g>
     </g>
    </g>
    <g id="ytick_3">
     <g id="line2d_12">
      <g>
       <use xlink:href="#m17a1ebfb78" x="41.188467" y="45.189961" style="stroke: #000000; stroke-width: 0.8"/>
      </g>
     </g>
     <g id="text_12">
      <!-- 0.2 -->
      <g transform="translate(26.236905 47.089571) scale(0.05 -0.05)">
       <defs>
        <path id="DejaVuSans-32" d="M 1228 531 
L 3431 531 
L 3431 0 
L 469 0 
L 469 531 
Q 828 903 1448 1529 
Q 2069 2156 2228 2338 
Q 2531 2678 2651 2914 
Q 2772 3150 2772 3378 
Q 2772 3750 2511 3984 
Q 2250 4219 1831 4219 
Q 1534 4219 1204 4116 
Q 875 4013 500 3803 
L 500 4441 
Q 881 4594 1212 4672 
Q 1544 4750 1819 4750 
Q 2544 4750 2975 4387 
Q 3406 4025 3406 3419 
Q 3406 3131 3298 2873 
Q 3191 2616 2906 2266 
Q 2828 2175 2409 1742 
Q 1991 1309 1228 531 
z
" transform="scale(0.015625)"/>
       </defs>
       <use xlink:href="#DejaVuSans-30"/>
       <use xlink:href="#DejaVuSans-2e" x="63.623047"/>
       <use xlink:href="#DejaVuSans-32" x="95.410156"/>
      </g>
     </g>
    </g>
    <g id="ytick_4">
     <g id="line2d_13">
      <g>
       <use xlink:href="#m17a1ebfb78" x="41.188467" y="37.862098" style="stroke: #000000; stroke-width: 0.8"/>
      </g>
     </g>
     <g id="text_13">
      <!-- 0.3 -->
      <g transform="translate(26.236905 39.761707) scale(0.05 -0.05)">
       <defs>
        <path id="DejaVuSans-33" d="M 2597 2516 
Q 3050 2419 3304 2112 
Q 3559 1806 3559 1356 
Q 3559 666 3084 287 
Q 2609 -91 1734 -91 
Q 1441 -91 1130 -33 
Q 819 25 488 141 
L 488 750 
Q 750 597 1062 519 
Q 1375 441 1716 441 
Q 2309 441 2620 675 
Q 2931 909 2931 1356 
Q 2931 1769 2642 2001 
Q 2353 2234 1838 2234 
L 1294 2234 
L 1294 2753 
L 1863 2753 
Q 2328 2753 2575 2939 
Q 2822 3125 2822 3475 
Q 2822 3834 2567 4026 
Q 2313 4219 1838 4219 
Q 1578 4219 1281 4162 
Q 984 4106 628 3988 
L 628 4550 
Q 988 4650 1302 4700 
Q 1616 4750 1894 4750 
Q 2613 4750 3031 4423 
Q 3450 4097 3450 3541 
Q 3450 3153 3228 2886 
Q 3006 2619 2597 2516 
z
" transform="scale(0.015625)"/>
       </defs>
       <use xlink:href="#DejaVuSans-30"/>
       <use xlink:href="#DejaVuSans-2e" x="63.623047"/>
       <use xlink:href="#DejaVuSans-33" x="95.410156"/>
      </g>
     </g>
    </g>
    <g id="ytick_5">
     <g id="line2d_14">
      <g>
       <use xlink:href="#m17a1ebfb78" x="41.188467" y="30.534234" style="stroke: #000000; stroke-width: 0.8"/>
      </g>
     </g>
     <g id="text_14">
      <!-- 0.4 -->
      <g transform="translate(26.236905 32.433843) scale(0.05 -0.05)">
       <defs>
        <path id="DejaVuSans-34" d="M 2419 4116 
L 825 1625 
L 2419 1625 
L 2419 4116 
z
M 2253 4666 
L 3047 4666 
L 3047 1625 
L 3713 1625 
L 3713 1100 
L 3047 1100 
L 3047 0 
L 2419 0 
L 2419 1100 
L 313 1100 
L 313 1709 
L 2253 4666 
z
" transform="scale(0.015625)"/>
       </defs>
       <use xlink:href="#DejaVuSans-30"/>
       <use xlink:href="#DejaVuSans-2e" x="63.623047"/>
       <use xlink:href="#DejaVuSans-34" x="95.410156"/>
      </g>
     </g>
    </g>
    <g id="ytick_6">
     <g id="line2d_15">
      <g>
       <use xlink:href="#m17a1ebfb78" x="41.188467" y="23.20637" style="stroke: #000000; stroke-width: 0.8"/>
      </g>
     </g>
     <g id="text_15">
      <!-- 0.5 -->
      <g transform="translate(26.236905 25.105979) scale(0.05 -0.05)">
       <defs>
        <path id="DejaVuSans-35" d="M 691 4666 
L 3169 4666 
L 3169 4134 
L 1269 4134 
L 1269 2991 
Q 1406 3038 1543 3061 
Q 1681 3084 1819 3084 
Q 2600 3084 3056 2656 
Q 3513 2228 3513 1497 
Q 3513 744 3044 326 
Q 2575 -91 1722 -91 
Q 1428 -91 1123 -41 
Q 819 9 494 109 
L 494 744 
Q 775 591 1075 516 
Q 1375 441 1709 441 
Q 2250 441 2565 725 
Q 2881 1009 2881 1497 
Q 2881 1984 2565 2268 
Q 2250 2553 1709 2553 
Q 1456 2553 1204 2497 
Q 953 2441 691 2322 
L 691 4666 
z
" transform="scale(0.015625)"/>
       </defs>
       <use xlink:href="#DejaVuSans-30"/>
       <use xlink:href="#DejaVuSans-2e" x="63.623047"/>
       <use xlink:href="#DejaVuSans-35" x="95.410156"/>
      </g>
     </g>
    </g>
    <g id="text_16">
     <!-- CV Score -->
     <g transform="translate(21.197061 50.132329) rotate(-90) scale(0.05 -0.05)">
      <defs>
       <path id="DejaVuSans-56" d="M 1831 0 
L 50 4666 
L 709 4666 
L 2188 738 
L 3669 4666 
L 4325 4666 
L 2547 0 
L 1831 0 
z
" transform="scale(0.015625)"/>
      </defs>
      <use xlink:href="#DejaVuSans-43"/>
      <use xlink:href="#DejaVuSans-56" x="69.824219"/>
      <use xlink:href="#DejaVuSans-20" x="138.232422"/>
      <use xlink:href="#DejaVuSans-53" x="170.019531"/>
      <use xlink:href="#DejaVuSans-63" x="233.496094"/>
      <use xlink:href="#DejaVuSans-6f" x="288.476562"/>
      <use xlink:href="#DejaVuSans-72" x="349.658203"/>
      <use xlink:href="#DejaVuSans-65" x="388.521484"/>
     </g>
    </g>
   </g>
   <g id="line2d_16">
    <path d="M 52.300219 59.404056 
L 52.300219 48.882966 
" clip-path="url(#p3bac18793a)" style="fill: none; stroke: #515151; stroke-width: 0.35; stroke-linecap: square"/>
   </g>
   <g id="line2d_17">
    <path d="M 52.300219 57.347673 
L 52.300219 53.120028 
" clip-path="url(#p3bac18793a)" style="fill: none; stroke: #515151; stroke-width: 1.05; stroke-linecap: square"/>
   </g>
   <g id="line2d_18">
    <path d="M 74.523723 59.578686 
L 74.523723 49.205985 
" clip-path="url(#p3bac18793a)" style="fill: none; stroke: #515151; stroke-width: 0.35; stroke-linecap: square"/>
   </g>
   <g id="line2d_19">
    <path d="M 74.523723 55.913535 
L 74.523723 53.158844 
" clip-path="url(#p3bac18793a)" style="fill: none; stroke: #515151; stroke-width: 1.05; stroke-linecap: square"/>
   </g>
   <g id="line2d_20">
    <path d="M 96.747227 59.823204 
L 96.747227 50.37499 
" clip-path="url(#p3bac18793a)" style="fill: none; stroke: #515151; stroke-width: 0.35; stroke-linecap: square"/>
   </g>
   <g id="line2d_21">
    <path d="M 96.747227 56.617942 
L 96.747227 54.045443 
" clip-path="url(#p3bac18793a)" style="fill: none; stroke: #515151; stroke-width: 1.05; stroke-linecap: square"/>
   </g>
   <g id="line2d_22">
    <path d="M 118.97073 59.164643 
L 118.97073 47.459689 
" clip-path="url(#p3bac18793a)" style="fill: none; stroke: #515151; stroke-width: 0.35; stroke-linecap: square"/>
   </g>
   <g id="line2d_23">
    <path d="M 118.97073 57.306851 
L 118.97073 51.543546 
" clip-path="url(#p3bac18793a)" style="fill: none; stroke: #515151; stroke-width: 1.05; stroke-linecap: square"/>
   </g>
   <g id="line2d_24">
    <path d="M 141.194234 59.362146 
L 141.194234 43.675541 
" clip-path="url(#p3bac18793a)" style="fill: none; stroke: #515151; stroke-width: 0.35; stroke-linecap: square"/>
   </g>
   <g id="line2d_25">
    <path d="M 141.194234 55.53445 
L 141.194234 50.100359 
" clip-path="url(#p3bac18793a)" style="fill: none; stroke: #515151; stroke-width: 1.05; stroke-linecap: square"/>
   </g>
   <g id="line2d_26">
    <path d="M 163.417737 59.058365 
L 163.417737 47.890089 
" clip-path="url(#p3bac18793a)" style="fill: none; stroke: #515151; stroke-width: 0.35; stroke-linecap: square"/>
   </g>
   <g id="line2d_27">
    <path d="M 163.417737 56.980074 
L 163.417737 52.423631 
" clip-path="url(#p3bac18793a)" style="fill: none; stroke: #515151; stroke-width: 1.05; stroke-linecap: square"/>
   </g>
   <g id="line2d_28">
    <path d="M 185.641241 59.737809 
L 185.641241 43.69423 
" clip-path="url(#p3bac18793a)" style="fill: none; stroke: #515151; stroke-width: 0.35; stroke-linecap: square"/>
   </g>
   <g id="line2d_29">
    <path d="M 185.641241 54.920288 
L 185.641241 49.724831 
" clip-path="url(#p3bac18793a)" style="fill: none; stroke: #515151; stroke-width: 1.05; stroke-linecap: square"/>
   </g>
   <g id="line2d_30">
    <path d="M 207.864745 58.390097 
L 207.864745 39.468816 
" clip-path="url(#p3bac18793a)" style="fill: none; stroke: #515151; stroke-width: 0.35; stroke-linecap: square"/>
   </g>
   <g id="line2d_31">
    <path d="M 207.864745 53.870568 
L 207.864745 46.832722 
" clip-path="url(#p3bac18793a)" style="fill: none; stroke: #515151; stroke-width: 1.05; stroke-linecap: square"/>
   </g>
   <g id="line2d_32">
    <path d="M 230.088248 59.271098 
L 230.088248 49.73685 
" clip-path="url(#p3bac18793a)" style="fill: none; stroke: #515151; stroke-width: 0.35; stroke-linecap: square"/>
   </g>
   <g id="line2d_33">
    <path d="M 230.088248 58.813476 
L 230.088248 52.17781 
" clip-path="url(#p3bac18793a)" style="fill: none; stroke: #515151; stroke-width: 1.05; stroke-linecap: square"/>
   </g>
   <g id="patch_3">
    <path d="M 41.188467 66.961533 
L 41.188467 10.8 
" style="fill: none; stroke: #000000; stroke-width: 0.8; stroke-linejoin: miter; stroke-linecap: square"/>
   </g>
   <g id="patch_4">
    <path d="M 241.2 66.961533 
L 241.2 10.8 
" style="fill: none; stroke: #000000; stroke-width: 0.8; stroke-linejoin: miter; stroke-linecap: square"/>
   </g>
   <g id="patch_5">
    <path d="M 41.188467 66.961533 
L 241.2 66.961533 
" style="fill: none; stroke: #000000; stroke-width: 0.8; stroke-linejoin: miter; stroke-linecap: square"/>
   </g>
   <g id="patch_6">
    <path d="M 41.188467 10.8 
L 241.2 10.8 
" style="fill: none; stroke: #000000; stroke-width: 0.8; stroke-linejoin: miter; stroke-linecap: square"/>
   </g>
   <g id="PathCollection_1">
    <defs>
     <path id="mcb4fce09f6" d="M 0 0.35 
C 0.092821 0.35 0.181853 0.313122 0.247487 0.247487 
C 0.313122 0.181853 0.35 0.092821 0.35 0 
C 0.35 -0.092821 0.313122 -0.181853 0.247487 -0.247487 
C 0.181853 -0.313122 0.092821 -0.35 0 -0.35 
C -0.092821 -0.35 -0.181853 -0.313122 -0.247487 -0.247487 
C -0.313122 -0.181853 -0.35 -0.092821 -0.35 0 
C -0.35 0.092821 -0.313122 0.181853 -0.247487 0.247487 
C -0.181853 0.313122 -0.092821 0.35 0 0.35 
z
" style="stroke: #515151"/>
    </defs>
    <g clip-path="url(#p3bac18793a)">
     <use xlink:href="#mcb4fce09f6" x="52.300219" y="55.478276" style="fill: #ffffff; stroke: #515151"/>
    </g>
   </g>
   <g id="PathCollection_2">
    <g clip-path="url(#p3bac18793a)">
     <use xlink:href="#mcb4fce09f6" x="74.523723" y="54.396894" style="fill: #ffffff; stroke: #515151"/>
    </g>
   </g>
   <g id="PathCollection_3">
    <g clip-path="url(#p3bac18793a)">
     <use xlink:href="#mcb4fce09f6" x="96.747227" y="55.119853" style="fill: #ffffff; stroke: #515151"/>
    </g>
   </g>
   <g id="PathCollection_4">
    <g clip-path="url(#p3bac18793a)">
     <use xlink:href="#mcb4fce09f6" x="118.97073" y="54.197882" style="fill: #ffffff; stroke: #515151"/>
    </g>
   </g>
   <g id="PathCollection_5">
    <g clip-path="url(#p3bac18793a)">
     <use xlink:href="#mcb4fce09f6" x="141.194234" y="52.488843" style="fill: #ffffff; stroke: #515151"/>
    </g>
   </g>
   <g id="PathCollection_6">
    <g clip-path="url(#p3bac18793a)">
     <use xlink:href="#mcb4fce09f6" x="163.417737" y="54.432666" style="fill: #ffffff; stroke: #515151"/>
    </g>
   </g>
   <g id="PathCollection_7">
    <g clip-path="url(#p3bac18793a)">
     <use xlink:href="#mcb4fce09f6" x="185.641241" y="52.512255" style="fill: #ffffff; stroke: #515151"/>
    </g>
   </g>
   <g id="PathCollection_8">
    <g clip-path="url(#p3bac18793a)">
     <use xlink:href="#mcb4fce09f6" x="207.864745" y="51.970578" style="fill: #ffffff; stroke: #515151"/>
    </g>
   </g>
   <g id="PathCollection_9">
    <g clip-path="url(#p3bac18793a)">
     <use xlink:href="#mcb4fce09f6" x="230.088248" y="57.737702" style="fill: #ffffff; stroke: #515151"/>
    </g>
   </g>
  </g>
 </g>
 <defs>
  <clipPath id="p3bac18793a">
   <rect x="41.188467" y="10.8" width="200.011533" height="56.161533"/>
  </clipPath>
 </defs>
</svg>
