<?xml version="1.0" encoding="utf-8" standalone="no"?>
<!DOCTYPE svg PUBLIC "-//W3C//DTD SVG 1.1//EN"
  "http://www.w3.org/Graphics/SVG/1.1/DTD/svg11.dtd">
<svg xmlns:xlink="http://www.w3.org/1999/xlink" width="252pt" height="94.5pt" viewBox="0 0 252 94.5" xmlns="http://www.w3.org/2000/svg" version="1.1">
 <metadata>
  <rdf:RDF xmlns:dc="http://purl.org/dc/elements/1.1/" xmlns:cc="http://creativecommons.org/ns#" xmlns:rdf="http://www.w3.org/1999/02/22-rdf-syntax-ns#">
   <cc:Work>
    <dc:type rdf:resource="http://purl.org/dc/dcmitype/StillImage"/>
    <dc:date>2024-06-10T11:08:41.383335</dc:date>
    <dc:format>image/svg+xml</dc:format>
    <dc:creator>
     <cc:Agent>
      <dc:title>Matplotlib v3.8.0, https://matplotlib.org/</dc:title>
     </cc:Agent>
    </dc:creator>
   </cc:Work>
  </rdf:RDF>
 </metadata>
 <defs>
  <style type="text/css">*{stroke-linejoin: round; stroke-linecap: butt}</style>
 </defs>
 <g id="figure_1">
  <g id="patch_1">
   <path d="M 0 94.5 
L 252 94.5 
L 252 0 
L 0 0 
z
" style="fill: #ffffff"/>
  </g>
  <g id="axes_1">
   <g id="patch_2">
    <path d="M 34.22 49.971364 
L 241.2 49.971364 
L 241.2 10.8 
L 34.22 10.8 
z
" style="fill: #ffffff"/>
   </g>
   <g id="PolyCollection_1">
    <defs>
     <path id="ma3cdff83e1" d="M 45.857663 -47.967367 
L 45.580115 -47.967367 
L 45.516937 -48.116413 
L 45.431616 -48.265459 
L 45.319262 -48.414505 
L 45.174948 -48.563551 
L 44.994081 -48.712597 
L 44.772828 -48.861643 
L 44.508559 -49.010689 
L 44.200271 -49.159735 
L 43.848942 -49.308781 
L 43.457768 -49.457827 
L 43.032262 -49.606872 
L 42.580192 -49.755918 
L 42.111347 -49.904964 
L 41.637138 -50.05401 
L 41.170044 -50.203056 
L 40.722934 -50.352102 
L 40.308291 -50.501148 
L 39.937409 -50.650194 
L 39.619613 -50.79924 
L 39.361616 -50.948286 
L 39.167074 -51.097332 
L 39.036439 -51.246378 
L 38.967137 -51.395424 
L 38.954077 -51.54447 
L 38.990417 -51.693516 
L 39.068477 -51.842562 
L 39.18065 -51.991608 
L 39.320141 -52.140654 
L 39.481434 -52.289699 
L 39.660404 -52.438745 
L 39.85409 -52.587791 
L 40.060214 -52.736837 
L 40.276595 -52.885883 
L 40.500595 -53.034929 
L 40.728748 -53.183975 
L 40.956675 -53.333021 
L 41.179277 -53.482067 
L 41.391196 -53.631113 
L 41.587425 -53.780159 
L 41.76395 -53.929205 
L 41.918296 -54.078251 
L 42.049891 -54.227297 
L 42.160163 -54.376343 
L 42.252393 -54.525389 
L 42.331323 -54.674435 
L 42.402615 -54.823481 
L 42.472217 -54.972526 
L 42.545753 -55.121572 
L 42.627996 -55.270618 
L 42.722496 -55.419664 
L 42.83139 -55.56871 
L 42.955393 -55.717756 
L 43.093942 -55.866802 
L 43.245445 -56.015848 
L 43.40758 -56.164894 
L 43.577583 -56.31394 
L 43.752482 -56.462986 
L 43.929267 -56.612032 
L 44.104985 -56.761078 
L 44.276798 -56.910124 
L 44.442013 -57.05917 
L 44.598139 -57.208216 
L 44.742963 -57.357262 
L 44.87467 -57.506308 
L 44.991969 -57.655353 
L 45.094207 -57.804399 
L 45.181438 -57.953445 
L 45.254408 -58.102491 
L 45.314461 -58.251537 
L 45.363366 -58.400583 
L 45.403084 -58.549629 
L 45.435526 -58.698675 
L 45.462346 -58.847721 
L 45.484788 -58.996767 
L 45.503627 -59.145813 
L 45.519206 -59.294859 
L 45.531548 -59.443905 
L 45.540521 -59.592951 
L 45.546021 -59.741997 
L 45.54813 -59.891043 
L 45.547228 -60.040089 
L 45.544027 -60.189135 
L 45.539536 -60.33818 
L 45.534958 -60.487226 
L 45.531539 -60.636272 
L 45.53041 -60.785318 
L 45.532435 -60.934364 
L 45.538105 -61.08341 
L 45.54749 -61.232456 
L 45.560251 -61.381502 
L 45.575715 -61.530548 
L 45.592983 -61.679594 
L 45.611062 -61.82864 
L 45.628989 -61.977686 
L 45.645936 -62.126732 
L 45.661278 -62.275778 
L 45.67462 -62.424824 
L 45.685791 -62.57387 
L 45.694813 -62.722916 
L 45.742965 -62.722916 
L 45.742965 -62.722916 
L 45.751987 -62.57387 
L 45.763158 -62.424824 
L 45.776499 -62.275778 
L 45.791842 -62.126732 
L 45.808789 -61.977686 
L 45.826716 -61.82864 
L 45.844795 -61.679594 
L 45.862063 -61.530548 
L 45.877526 -61.381502 
L 45.890288 -61.232456 
L 45.899672 -61.08341 
L 45.905342 -60.934364 
L 45.907367 -60.785318 
L 45.906239 -60.636272 
L 45.90282 -60.487226 
L 45.898242 -60.33818 
L 45.893751 -60.189135 
L 45.89055 -60.040089 
L 45.889648 -59.891043 
L 45.891757 -59.741997 
L 45.897257 -59.592951 
L 45.90623 -59.443905 
L 45.918572 -59.294859 
L 45.934151 -59.145813 
L 45.95299 -58.996767 
L 45.975432 -58.847721 
L 46.002252 -58.698675 
L 46.034694 -58.549629 
L 46.074411 -58.400583 
L 46.123316 -58.251537 
L 46.18337 -58.102491 
L 46.25634 -57.953445 
L 46.34357 -57.804399 
L 46.445809 -57.655353 
L 46.563107 -57.506308 
L 46.694815 -57.357262 
L 46.839639 -57.208216 
L 46.995765 -57.05917 
L 47.16098 -56.910124 
L 47.332793 -56.761078 
L 47.508511 -56.612032 
L 47.685295 -56.462986 
L 47.860194 -56.31394 
L 48.030197 -56.164894 
L 48.192333 -56.015848 
L 48.343836 -55.866802 
L 48.482385 -55.717756 
L 48.606388 -55.56871 
L 48.715282 -55.419664 
L 48.809782 -55.270618 
L 48.892025 -55.121572 
L 48.965561 -54.972526 
L 49.035163 -54.823481 
L 49.106455 -54.674435 
L 49.185385 -54.525389 
L 49.277615 -54.376343 
L 49.387887 -54.227297 
L 49.519481 -54.078251 
L 49.673828 -53.929205 
L 49.850353 -53.780159 
L 50.046582 -53.631113 
L 50.258501 -53.482067 
L 50.481103 -53.333021 
L 50.709029 -53.183975 
L 50.937183 -53.034929 
L 51.161182 -52.885883 
L 51.377564 -52.736837 
L 51.583688 -52.587791 
L 51.777373 -52.438745 
L 51.956344 -52.289699 
L 52.117637 -52.140654 
L 52.257128 -51.991608 
L 52.3693 -51.842562 
L 52.447361 -51.693516 
L 52.483701 -51.54447 
L 52.47064 -51.395424 
L 52.401339 -51.246378 
L 52.270703 -51.097332 
L 52.076162 -50.948286 
L 51.818164 -50.79924 
L 51.500369 -50.650194 
L 51.129486 -50.501148 
L 50.714844 -50.352102 
L 50.267734 -50.203056 
L 49.80064 -50.05401 
L 49.326431 -49.904964 
L 48.857586 -49.755918 
L 48.405516 -49.606872 
L 47.98001 -49.457827 
L 47.588835 -49.308781 
L 47.237506 -49.159735 
L 46.929219 -49.010689 
L 46.66495 -48.861643 
L 46.443696 -48.712597 
L 46.26283 -48.563551 
L 46.118516 -48.414505 
L 46.006162 -48.265459 
L 45.920841 -48.116413 
L 45.857663 -47.967367 
z
" style="stroke: #515151; stroke-width: 0.25"/>
    </defs>
    <g clip-path="url(#p24180dd6e9)">
     <use xlink:href="#ma3cdff83e1" x="0" y="94.5" style="fill: #e1812c; stroke: #515151; stroke-width: 0.25"/>
    </g>
   </g>
   <g id="PolyCollection_2">
    <defs>
     <path id="mbdb2e06a17" d="M 68.790485 -47.692171 
L 68.642849 -47.692171 
L 68.616838 -47.821871 
L 68.583466 -47.951571 
L 68.541289 -48.081271 
L 68.488779 -48.210971 
L 68.424391 -48.340671 
L 68.346639 -48.470372 
L 68.2542 -48.600072 
L 68.146023 -48.729772 
L 68.021452 -48.859472 
L 67.880336 -48.989172 
L 67.723132 -49.118872 
L 67.550962 -49.248573 
L 67.365625 -49.378273 
L 67.169548 -49.507973 
L 66.965658 -49.637673 
L 66.757189 -49.767373 
L 66.547419 -49.897073 
L 66.33937 -50.026774 
L 66.135485 -50.156474 
L 65.937343 -50.286174 
L 65.745423 -50.415874 
L 65.558974 -50.545574 
L 65.376021 -50.675274 
L 65.193506 -50.804975 
L 65.007573 -50.934675 
L 64.813974 -51.064375 
L 64.608566 -51.194075 
L 64.38783 -51.323775 
L 64.14938 -51.453475 
L 63.892393 -51.583176 
L 63.617922 -51.712876 
L 63.329055 -51.842576 
L 63.030902 -51.972276 
L 62.730416 -52.101976 
L 62.436059 -52.231676 
L 62.157346 -52.361377 
L 61.904293 -52.491077 
L 61.686822 -52.620777 
L 61.514163 -52.750477 
L 61.394287 -52.880177 
L 61.333404 -53.009878 
L 61.335574 -53.139578 
L 61.402432 -53.269278 
L 61.53306 -53.398978 
L 61.72401 -53.528678 
L 61.96947 -53.658378 
L 62.261577 -53.788079 
L 62.590839 -53.917779 
L 62.946659 -54.047479 
L 63.317902 -54.177179 
L 63.693482 -54.306879 
L 64.062931 -54.436579 
L 64.41689 -54.56628 
L 64.747525 -54.69598 
L 65.04881 -54.82568 
L 65.316695 -54.95538 
L 65.549137 -55.08508 
L 65.746006 -55.21478 
L 65.908894 -55.344481 
L 66.040837 -55.474181 
L 66.145975 -55.603881 
L 66.229189 -55.733581 
L 66.295735 -55.863281 
L 66.350887 -55.992981 
L 66.399631 -56.122682 
L 66.44641 -56.252382 
L 66.494924 -56.382082 
L 66.548016 -56.511782 
L 66.607618 -56.641482 
L 66.67477 -56.771182 
L 66.749693 -56.900883 
L 66.831922 -57.030583 
L 66.920458 -57.160283 
L 67.013945 -57.289983 
L 67.110848 -57.419683 
L 67.209612 -57.549383 
L 67.308791 -57.679084 
L 67.407149 -57.808784 
L 67.503707 -57.938484 
L 67.597759 -58.068184 
L 67.688848 -58.197884 
L 67.776721 -58.327585 
L 67.86126 -58.457285 
L 67.942421 -58.586985 
L 68.02017 -58.716685 
L 68.094437 -58.846385 
L 68.16509 -58.976085 
L 68.231932 -59.105786 
L 68.294709 -59.235486 
L 68.35314 -59.365186 
L 68.406952 -59.494886 
L 68.455915 -59.624586 
L 68.499874 -59.754286 
L 68.538777 -59.883987 
L 68.572683 -60.013687 
L 68.601764 -60.143387 
L 68.626298 -60.273087 
L 68.646647 -60.402787 
L 68.663235 -60.532487 
L 68.770099 -60.532487 
L 68.770099 -60.532487 
L 68.786687 -60.402787 
L 68.807036 -60.273087 
L 68.83157 -60.143387 
L 68.860651 -60.013687 
L 68.894556 -59.883987 
L 68.933459 -59.754286 
L 68.977419 -59.624586 
L 69.026381 -59.494886 
L 69.080193 -59.365186 
L 69.138625 -59.235486 
L 69.201402 -59.105786 
L 69.268243 -58.976085 
L 69.338897 -58.846385 
L 69.413163 -58.716685 
L 69.490912 -58.586985 
L 69.572073 -58.457285 
L 69.656613 -58.327585 
L 69.744485 -58.197884 
L 69.835574 -58.068184 
L 69.929626 -57.938484 
L 70.026184 -57.808784 
L 70.124542 -57.679084 
L 70.223722 -57.549383 
L 70.322485 -57.419683 
L 70.419388 -57.289983 
L 70.512875 -57.160283 
L 70.601411 -57.030583 
L 70.68364 -56.900883 
L 70.758564 -56.771182 
L 70.825715 -56.641482 
L 70.885317 -56.511782 
L 70.938409 -56.382082 
L 70.986924 -56.252382 
L 71.033702 -56.122682 
L 71.082447 -55.992981 
L 71.137599 -55.863281 
L 71.204144 -55.733581 
L 71.287359 -55.603881 
L 71.392496 -55.474181 
L 71.524439 -55.344481 
L 71.687328 -55.21478 
L 71.884196 -55.08508 
L 72.116638 -54.95538 
L 72.384523 -54.82568 
L 72.685809 -54.69598 
L 73.016443 -54.56628 
L 73.370402 -54.436579 
L 73.739851 -54.306879 
L 74.115432 -54.177179 
L 74.486674 -54.047479 
L 74.842494 -53.917779 
L 75.171757 -53.788079 
L 75.463863 -53.658378 
L 75.709323 -53.528678 
L 75.900273 -53.398978 
L 76.030902 -53.269278 
L 76.09776 -53.139578 
L 76.099929 -53.009878 
L 76.039047 -52.880177 
L 75.91917 -52.750477 
L 75.746512 -52.620777 
L 75.529041 -52.491077 
L 75.275987 -52.361377 
L 74.997274 -52.231676 
L 74.702918 -52.101976 
L 74.402432 -51.972276 
L 74.104278 -51.842576 
L 73.815411 -51.712876 
L 73.540941 -51.583176 
L 73.283954 -51.453475 
L 73.045503 -51.323775 
L 72.824767 -51.194075 
L 72.619359 -51.064375 
L 72.425761 -50.934675 
L 72.239827 -50.804975 
L 72.057312 -50.675274 
L 71.87436 -50.545574 
L 71.687911 -50.415874 
L 71.49599 -50.286174 
L 71.297848 -50.156474 
L 71.093964 -50.026774 
L 70.885914 -49.897073 
L 70.676145 -49.767373 
L 70.467675 -49.637673 
L 70.263785 -49.507973 
L 70.067708 -49.378273 
L 69.882371 -49.248573 
L 69.710201 -49.118872 
L 69.552997 -48.989172 
L 69.411882 -48.859472 
L 69.28731 -48.729772 
L 69.179133 -48.600072 
L 69.086694 -48.470372 
L 69.008942 -48.340671 
L 68.944554 -48.210971 
L 68.892045 -48.081271 
L 68.849867 -47.951571 
L 68.816496 -47.821871 
L 68.790485 -47.692171 
z
" style="stroke: #515151; stroke-width: 0.25"/>
    </defs>
    <g clip-path="url(#p24180dd6e9)">
     <use xlink:href="#mbdb2e06a17" x="0" y="94.5" style="fill: #e1812c; stroke: #515151; stroke-width: 0.25"/>
    </g>
   </g>
   <g id="PolyCollection_3">
    <defs>
     <path id="mfa3d5e35a4" d="M 91.783327 -48.180349 
L 91.645562 -48.180349 
L 91.618691 -48.286405 
L 91.584334 -48.392461 
L 91.54154 -48.498518 
L 91.489582 -48.604574 
L 91.428031 -48.710631 
L 91.356793 -48.816687 
L 91.276079 -48.922744 
L 91.186308 -49.0288 
L 91.087941 -49.134856 
L 90.981261 -49.240913 
L 90.866133 -49.346969 
L 90.741789 -49.453026 
L 90.606674 -49.559082 
L 90.458394 -49.665139 
L 90.293799 -49.771195 
L 90.109177 -49.877252 
L 89.900562 -49.983308 
L 89.664121 -50.089364 
L 89.396559 -50.195421 
L 89.095521 -50.301477 
L 88.759951 -50.407534 
L 88.390368 -50.51359 
L 87.989059 -50.619647 
L 87.560157 -50.725703 
L 87.109596 -50.83176 
L 86.644914 -50.937816 
L 86.174904 -51.043872 
L 85.709111 -51.149929 
L 85.257189 -51.255985 
L 84.828192 -51.362042 
L 84.429867 -51.468098 
L 84.068058 -51.574155 
L 83.746331 -51.680211 
L 83.465912 -51.786267 
L 83.225959 -51.892324 
L 83.024178 -51.99838 
L 82.857674 -52.104437 
L 82.723903 -52.210493 
L 82.621553 -52.31655 
L 82.551161 -52.422606 
L 82.515333 -52.528663 
L 82.518496 -52.634719 
L 82.566197 -52.740775 
L 82.664068 -52.846832 
L 82.816641 -52.952888 
L 83.02624 -53.058945 
L 83.292155 -53.165001 
L 83.610276 -53.271058 
L 83.973234 -53.377114 
L 84.371023 -53.48317 
L 84.791986 -53.589227 
L 85.223959 -53.695283 
L 85.655386 -53.80134 
L 86.076223 -53.907396 
L 86.478513 -54.013453 
L 86.856599 -54.119509 
L 87.207022 -54.225566 
L 87.528187 -54.331622 
L 87.819928 -54.437678 
L 88.083085 -54.543735 
L 88.319166 -54.649791 
L 88.53015 -54.755848 
L 88.718403 -54.861904 
L 88.886684 -54.967961 
L 89.038159 -55.074017 
L 89.176376 -55.180073 
L 89.305161 -55.28613 
L 89.428409 -55.392186 
L 89.54979 -55.498243 
L 89.672417 -55.604299 
L 89.798524 -55.710356 
L 89.929219 -55.816412 
L 90.064357 -55.922469 
L 90.202571 -56.028525 
L 90.341465 -56.134581 
L 90.477943 -56.240638 
L 90.608628 -56.346694 
L 90.730323 -56.452751 
L 90.840422 -56.558807 
L 90.937235 -56.664864 
L 91.02017 -56.77092 
L 91.089746 -56.876976 
L 91.147459 -56.983033 
L 91.195516 -57.089089 
L 91.236499 -57.195146 
L 91.272997 -57.301202 
L 91.307296 -57.407259 
L 91.341133 -57.513315 
L 91.37557 -57.619372 
L 91.41098 -57.725428 
L 91.447135 -57.831484 
L 91.483359 -57.937541 
L 91.518727 -58.043597 
L 91.552255 -58.149654 
L 91.583062 -58.25571 
L 91.610483 -58.361767 
L 91.634128 -58.467823 
L 91.653884 -58.573879 
L 91.66989 -58.679936 
L 91.758999 -58.679936 
L 91.758999 -58.679936 
L 91.775004 -58.573879 
L 91.794761 -58.467823 
L 91.818406 -58.361767 
L 91.845827 -58.25571 
L 91.876634 -58.149654 
L 91.910162 -58.043597 
L 91.94553 -57.937541 
L 91.981754 -57.831484 
L 92.017909 -57.725428 
L 92.053319 -57.619372 
L 92.087756 -57.513315 
L 92.121593 -57.407259 
L 92.155892 -57.301202 
L 92.19239 -57.195146 
L 92.233372 -57.089089 
L 92.28143 -56.983033 
L 92.339143 -56.876976 
L 92.408719 -56.77092 
L 92.491654 -56.664864 
L 92.588467 -56.558807 
L 92.698566 -56.452751 
L 92.820261 -56.346694 
L 92.950946 -56.240638 
L 93.087423 -56.134581 
L 93.226318 -56.028525 
L 93.364532 -55.922469 
L 93.49967 -55.816412 
L 93.630365 -55.710356 
L 93.756472 -55.604299 
L 93.879099 -55.498243 
L 94.00048 -55.392186 
L 94.123728 -55.28613 
L 94.252513 -55.180073 
L 94.39073 -55.074017 
L 94.542205 -54.967961 
L 94.710486 -54.861904 
L 94.898739 -54.755848 
L 95.109722 -54.649791 
L 95.345804 -54.543735 
L 95.60896 -54.437678 
L 95.900702 -54.331622 
L 96.221867 -54.225566 
L 96.57229 -54.119509 
L 96.950376 -54.013453 
L 97.352666 -53.907396 
L 97.773503 -53.80134 
L 98.20493 -53.695283 
L 98.636903 -53.589227 
L 99.057866 -53.48317 
L 99.455655 -53.377114 
L 99.818613 -53.271058 
L 100.136734 -53.165001 
L 100.402649 -53.058945 
L 100.612248 -52.952888 
L 100.764821 -52.846832 
L 100.862692 -52.740775 
L 100.910393 -52.634719 
L 100.913556 -52.528663 
L 100.877728 -52.422606 
L 100.807336 -52.31655 
L 100.704986 -52.210493 
L 100.571215 -52.104437 
L 100.404711 -51.99838 
L 100.20293 -51.892324 
L 99.962977 -51.786267 
L 99.682558 -51.680211 
L 99.360831 -51.574155 
L 98.999021 -51.468098 
L 98.600696 -51.362042 
L 98.1717 -51.255985 
L 97.719778 -51.149929 
L 97.253985 -51.043872 
L 96.783975 -50.937816 
L 96.319292 -50.83176 
L 95.868732 -50.725703 
L 95.43983 -50.619647 
L 95.038521 -50.51359 
L 94.668938 -50.407534 
L 94.333367 -50.301477 
L 94.03233 -50.195421 
L 93.764767 -50.089364 
L 93.528326 -49.983308 
L 93.319712 -49.877252 
L 93.135089 -49.771195 
L 92.970495 -49.665139 
L 92.822215 -49.559082 
L 92.6871 -49.453026 
L 92.562756 -49.346969 
L 92.447628 -49.240913 
L 92.340948 -49.134856 
L 92.242581 -49.0288 
L 92.15281 -48.922744 
L 92.072096 -48.816687 
L 92.000858 -48.710631 
L 91.939307 -48.604574 
L 91.887348 -48.498518 
L 91.844554 -48.392461 
L 91.810198 -48.286405 
L 91.783327 -48.180349 
z
" style="stroke: #515151; stroke-width: 0.25"/>
    </defs>
    <g clip-path="url(#p24180dd6e9)">
     <use xlink:href="#mfa3d5e35a4" x="0" y="94.5" style="fill: #e1812c; stroke: #515151; stroke-width: 0.25"/>
    </g>
   </g>
   <g id="PolyCollection_4">
    <defs>
     <path id="mb453663f32" d="M 114.872181 -46.725952 
L 114.552263 -46.725952 
L 114.4976 -46.937855 
L 114.42879 -47.149758 
L 114.34377 -47.36166 
L 114.240672 -47.573563 
L 114.117993 -47.785466 
L 113.974774 -47.997368 
L 113.810764 -48.209271 
L 113.626567 -48.421174 
L 113.423731 -48.633077 
L 113.204776 -48.844979 
L 112.973141 -49.056882 
L 112.733049 -49.268785 
L 112.489287 -49.480687 
L 112.246932 -49.69259 
L 112.011021 -49.904493 
L 111.786227 -50.116395 
L 111.576556 -50.328298 
L 111.385098 -50.540201 
L 111.213868 -50.752103 
L 111.063749 -50.964006 
L 110.934538 -51.175909 
L 110.82509 -51.387811 
L 110.733541 -51.599714 
L 110.657575 -51.811617 
L 110.594715 -52.02352 
L 110.542601 -52.235422 
L 110.499222 -52.447325 
L 110.463103 -52.659228 
L 110.433415 -52.87113 
L 110.410025 -53.083033 
L 110.393476 -53.294936 
L 110.384917 -53.506838 
L 110.385987 -53.718741 
L 110.398667 -53.930644 
L 110.42511 -54.142546 
L 110.46746 -54.354449 
L 110.527664 -54.566352 
L 110.607302 -54.778255 
L 110.707424 -54.990157 
L 110.828434 -55.20206 
L 110.969996 -55.413963 
L 111.131011 -55.625865 
L 111.309631 -55.837768 
L 111.503342 -56.049671 
L 111.709088 -56.261573 
L 111.923435 -56.473476 
L 112.142754 -56.685379 
L 112.363412 -56.897281 
L 112.581946 -57.109184 
L 112.795208 -57.321087 
L 113.000469 -57.532989 
L 113.195486 -57.744892 
L 113.378516 -57.956795 
L 113.548302 -58.168698 
L 113.704025 -58.3806 
L 113.845242 -58.592503 
L 113.971812 -58.804406 
L 114.083834 -59.016308 
L 114.181578 -59.228211 
L 114.265445 -59.440114 
L 114.335924 -59.652016 
L 114.393574 -59.863919 
L 114.439012 -60.075822 
L 114.472909 -60.287724 
L 114.495995 -60.499627 
L 114.509066 -60.71153 
L 114.512992 -60.923432 
L 114.50873 -61.135335 
L 114.49733 -61.347238 
L 114.479933 -61.559141 
L 114.457776 -61.771043 
L 114.432172 -61.982946 
L 114.404493 -62.194849 
L 114.376141 -62.406751 
L 114.348507 -62.618654 
L 114.322924 -62.830557 
L 114.300621 -63.042459 
L 114.282672 -63.254362 
L 114.269948 -63.466265 
L 114.26308 -63.678167 
L 114.262431 -63.89007 
L 114.268085 -64.101973 
L 114.279847 -64.313875 
L 114.297264 -64.525778 
L 114.319656 -64.737681 
L 114.346167 -64.949584 
L 114.375817 -65.161486 
L 114.407561 -65.373389 
L 114.440353 -65.585292 
L 114.4732 -65.797194 
L 114.50521 -66.009097 
L 114.535627 -66.221 
L 114.563859 -66.432902 
L 114.589483 -66.644805 
L 114.612247 -66.856708 
L 114.632056 -67.06861 
L 114.648947 -67.280513 
L 114.663068 -67.492416 
L 114.674645 -67.704319 
L 114.749799 -67.704319 
L 114.749799 -67.704319 
L 114.761376 -67.492416 
L 114.775497 -67.280513 
L 114.792389 -67.06861 
L 114.812197 -66.856708 
L 114.834962 -66.644805 
L 114.860586 -66.432902 
L 114.888817 -66.221 
L 114.919235 -66.009097 
L 114.951244 -65.797194 
L 114.984091 -65.585292 
L 115.016884 -65.373389 
L 115.048628 -65.161486 
L 115.078277 -64.949584 
L 115.104788 -64.737681 
L 115.127181 -64.525778 
L 115.144597 -64.313875 
L 115.156359 -64.101973 
L 115.162013 -63.89007 
L 115.161365 -63.678167 
L 115.154497 -63.466265 
L 115.141773 -63.254362 
L 115.123824 -63.042459 
L 115.101521 -62.830557 
L 115.075938 -62.618654 
L 115.048303 -62.406751 
L 115.019951 -62.194849 
L 114.992272 -61.982946 
L 114.966668 -61.771043 
L 114.944511 -61.559141 
L 114.927115 -61.347238 
L 114.915714 -61.135335 
L 114.911453 -60.923432 
L 114.915379 -60.71153 
L 114.928449 -60.499627 
L 114.951535 -60.287724 
L 114.985432 -60.075822 
L 115.03087 -59.863919 
L 115.088521 -59.652016 
L 115.158999 -59.440114 
L 115.242866 -59.228211 
L 115.340611 -59.016308 
L 115.452632 -58.804406 
L 115.579203 -58.592503 
L 115.720419 -58.3806 
L 115.876142 -58.168698 
L 116.045928 -57.956795 
L 116.228958 -57.744892 
L 116.423975 -57.532989 
L 116.629237 -57.321087 
L 116.842498 -57.109184 
L 117.061033 -56.897281 
L 117.281691 -56.685379 
L 117.50101 -56.473476 
L 117.715356 -56.261573 
L 117.921102 -56.049671 
L 118.114813 -55.837768 
L 118.293433 -55.625865 
L 118.454448 -55.413963 
L 118.596011 -55.20206 
L 118.71702 -54.990157 
L 118.817143 -54.778255 
L 118.89678 -54.566352 
L 118.956984 -54.354449 
L 118.999334 -54.142546 
L 119.025778 -53.930644 
L 119.038458 -53.718741 
L 119.039528 -53.506838 
L 119.030969 -53.294936 
L 119.014419 -53.083033 
L 118.991029 -52.87113 
L 118.961342 -52.659228 
L 118.925223 -52.447325 
L 118.881844 -52.235422 
L 118.829729 -52.02352 
L 118.76687 -51.811617 
L 118.690904 -51.599714 
L 118.599354 -51.387811 
L 118.489906 -51.175909 
L 118.360696 -50.964006 
L 118.210577 -50.752103 
L 118.039347 -50.540201 
L 117.847888 -50.328298 
L 117.638217 -50.116395 
L 117.413424 -49.904493 
L 117.177513 -49.69259 
L 116.935157 -49.480687 
L 116.691396 -49.268785 
L 116.451303 -49.056882 
L 116.219668 -48.844979 
L 116.000713 -48.633077 
L 115.797877 -48.421174 
L 115.61368 -48.209271 
L 115.449671 -47.997368 
L 115.306452 -47.785466 
L 115.183773 -47.573563 
L 115.080675 -47.36166 
L 114.995654 -47.149758 
L 114.926845 -46.937855 
L 114.872181 -46.725952 
z
" style="stroke: #515151; stroke-width: 0.25"/>
    </defs>
    <g clip-path="url(#p24180dd6e9)">
     <use xlink:href="#mb453663f32" x="0" y="94.5" style="fill: #e1812c; stroke: #515151; stroke-width: 0.25"/>
    </g>
   </g>
   <g id="PolyCollection_5">
    <defs>
     <path id="mb0a63b0f4e" d="M 137.785709 -47.122458 
L 137.634291 -47.122458 
L 137.572992 -47.473943 
L 137.476825 -47.825429 
L 137.336251 -48.176914 
L 137.144729 -48.528399 
L 136.901343 -48.879884 
L 136.612362 -49.231369 
L 136.290765 -49.582854 
L 135.953476 -49.934339 
L 135.617167 -50.285824 
L 135.294271 -50.637309 
L 134.99085 -50.988794 
L 134.707017 -51.34028 
L 134.439349 -51.691765 
L 134.183926 -52.04325 
L 133.938754 -52.394735 
L 133.705135 -52.74622 
L 133.488256 -53.097705 
L 133.297415 -53.44919 
L 133.145803 -53.800675 
L 133.049299 -54.15216 
L 133.023823 -54.503645 
L 133.081552 -54.855131 
L 133.227173 -55.206616 
L 133.455651 -55.558101 
L 133.752486 -55.909586 
L 134.096324 -56.261071 
L 134.462911 -56.612556 
L 134.829077 -56.964041 
L 135.175852 -57.315526 
L 135.49038 -57.667011 
L 135.766712 -58.018496 
L 136.00553 -58.369982 
L 136.212802 -58.721467 
L 136.397404 -59.072952 
L 136.568153 -59.424437 
L 136.73103 -59.775922 
L 136.887536 -60.127407 
L 137.034708 -60.478892 
L 137.166725 -60.830377 
L 137.277374 -61.181862 
L 137.362424 -61.533348 
L 137.421094 -61.884833 
L 137.456305 -62.236318 
L 137.47384 -62.587803 
L 137.480889 -62.939288 
L 137.484499 -63.290773 
L 137.490323 -63.642258 
L 137.501886 -63.993743 
L 137.520376 -64.345228 
L 137.544911 -64.696713 
L 137.57313 -65.048199 
L 137.601957 -65.399684 
L 137.628364 -65.751169 
L 137.649971 -66.102654 
L 137.665385 -66.454139 
L 137.674281 -66.805624 
L 137.677288 -67.157109 
L 137.675769 -67.508594 
L 137.671547 -67.860079 
L 137.666595 -68.211564 
L 137.662685 -68.56305 
L 137.661041 -68.914535 
L 137.662082 -69.26602 
L 137.665362 -69.617505 
L 137.669739 -69.96899 
L 137.673752 -70.320475 
L 137.676084 -70.67196 
L 137.675975 -71.023445 
L 137.673447 -71.37493 
L 137.669295 -71.726415 
L 137.664823 -72.077901 
L 137.661422 -72.429386 
L 137.660102 -72.780871 
L 137.661153 -73.132356 
L 137.664044 -73.483841 
L 137.667617 -73.835326 
L 137.670496 -74.186811 
L 137.671577 -74.538296 
L 137.670404 -74.889781 
L 137.66731 -75.241267 
L 137.663261 -75.592752 
L 137.659469 -75.944237 
L 137.65692 -76.295722 
L 137.656005 -76.647207 
L 137.656422 -76.998692 
L 137.657379 -77.350177 
L 137.658023 -77.701662 
L 137.657885 -78.053147 
L 137.657134 -78.404632 
L 137.656524 -78.756118 
L 137.657066 -79.107603 
L 137.659581 -79.459088 
L 137.664359 -79.810573 
L 137.671048 -80.162058 
L 137.678812 -80.513543 
L 137.68664 -80.865028 
L 137.693659 -81.216513 
L 137.699334 -81.567998 
L 137.703507 -81.919483 
L 137.716493 -81.919483 
L 137.716493 -81.919483 
L 137.720666 -81.567998 
L 137.726341 -81.216513 
L 137.73336 -80.865028 
L 137.741188 -80.513543 
L 137.748952 -80.162058 
L 137.755641 -79.810573 
L 137.760419 -79.459088 
L 137.762934 -79.107603 
L 137.763476 -78.756118 
L 137.762866 -78.404632 
L 137.762115 -78.053147 
L 137.761977 -77.701662 
L 137.762621 -77.350177 
L 137.763578 -76.998692 
L 137.763995 -76.647207 
L 137.76308 -76.295722 
L 137.760531 -75.944237 
L 137.756739 -75.592752 
L 137.75269 -75.241267 
L 137.749596 -74.889781 
L 137.748423 -74.538296 
L 137.749504 -74.186811 
L 137.752383 -73.835326 
L 137.755956 -73.483841 
L 137.758847 -73.132356 
L 137.759898 -72.780871 
L 137.758578 -72.429386 
L 137.755177 -72.077901 
L 137.750705 -71.726415 
L 137.746553 -71.37493 
L 137.744025 -71.023445 
L 137.743916 -70.67196 
L 137.746248 -70.320475 
L 137.750261 -69.96899 
L 137.754638 -69.617505 
L 137.757918 -69.26602 
L 137.758959 -68.914535 
L 137.757315 -68.56305 
L 137.753405 -68.211564 
L 137.748453 -67.860079 
L 137.744231 -67.508594 
L 137.742712 -67.157109 
L 137.745719 -66.805624 
L 137.754615 -66.454139 
L 137.770029 -66.102654 
L 137.791636 -65.751169 
L 137.818043 -65.399684 
L 137.84687 -65.048199 
L 137.875089 -64.696713 
L 137.899624 -64.345228 
L 137.918114 -63.993743 
L 137.929677 -63.642258 
L 137.935501 -63.290773 
L 137.939111 -62.939288 
L 137.94616 -62.587803 
L 137.963695 -62.236318 
L 137.998906 -61.884833 
L 138.057576 -61.533348 
L 138.142626 -61.181862 
L 138.253275 -60.830377 
L 138.385292 -60.478892 
L 138.532464 -60.127407 
L 138.68897 -59.775922 
L 138.851847 -59.424437 
L 139.022596 -59.072952 
L 139.207198 -58.721467 
L 139.41447 -58.369982 
L 139.653288 -58.018496 
L 139.92962 -57.667011 
L 140.244148 -57.315526 
L 140.590923 -56.964041 
L 140.957089 -56.612556 
L 141.323676 -56.261071 
L 141.667514 -55.909586 
L 141.964349 -55.558101 
L 142.192827 -55.206616 
L 142.338448 -54.855131 
L 142.396177 -54.503645 
L 142.370701 -54.15216 
L 142.274197 -53.800675 
L 142.122585 -53.44919 
L 141.931744 -53.097705 
L 141.714865 -52.74622 
L 141.481246 -52.394735 
L 141.236074 -52.04325 
L 140.980651 -51.691765 
L 140.712983 -51.34028 
L 140.42915 -50.988794 
L 140.125729 -50.637309 
L 139.802833 -50.285824 
L 139.466524 -49.934339 
L 139.129235 -49.582854 
L 138.807638 -49.231369 
L 138.518657 -48.879884 
L 138.275271 -48.528399 
L 138.083749 -48.176914 
L 137.943175 -47.825429 
L 137.847008 -47.473943 
L 137.785709 -47.122458 
z
" style="stroke: #515151; stroke-width: 0.25"/>
    </defs>
    <g clip-path="url(#p24180dd6e9)">
     <use xlink:href="#mb0a63b0f4e" x="0" y="94.5" style="fill: #e1812c; stroke: #515151; stroke-width: 0.25"/>
    </g>
   </g>
   <g id="PolyCollection_6">
    <defs>
     <path id="m705efc6eef" d="M 160.814399 -47.976802 
L 160.601156 -47.976802 
L 160.544226 -48.159473 
L 160.463687 -48.342143 
L 160.353234 -48.524814 
L 160.206405 -48.707485 
L 160.017256 -48.890155 
L 159.7812 -49.072826 
L 159.495931 -49.255496 
L 159.162311 -49.438167 
L 158.785029 -49.620838 
L 158.372894 -49.803508 
L 157.938596 -49.986179 
L 157.497884 -50.168849 
L 157.068179 -50.35152 
L 156.666771 -50.534191 
L 156.308856 -50.716861 
L 156.005716 -50.899532 
L 155.763378 -51.082202 
L 155.582015 -51.264873 
L 155.456214 -51.447544 
L 155.376106 -51.630214 
L 155.329137 -51.812885 
L 155.302169 -51.995555 
L 155.283519 -52.178226 
L 155.264567 -52.360897 
L 155.240702 -52.543567 
L 155.211492 -52.726238 
L 155.180158 -52.908908 
L 155.152553 -53.091579 
L 155.13591 -53.27425 
L 155.137621 -53.45692 
L 155.164252 -53.639591 
L 155.220887 -53.822261 
L 155.310814 -54.004932 
L 155.435478 -54.187603 
L 155.594589 -54.370273 
L 155.786308 -54.552944 
L 156.007428 -54.735614 
L 156.253553 -54.918285 
L 156.519283 -55.100956 
L 156.798467 -55.283626 
L 157.084539 -55.466297 
L 157.370951 -55.648967 
L 157.651658 -55.831638 
L 157.921587 -56.014309 
L 158.176999 -56.196979 
L 158.415671 -56.37965 
L 158.636864 -56.56232 
L 158.841081 -56.744991 
L 159.029686 -56.927662 
L 159.204451 -57.110332 
L 159.36715 -57.293003 
L 159.519243 -57.475673 
L 159.661712 -57.658344 
L 159.795029 -57.841015 
L 159.919242 -58.023685 
L 160.034116 -58.206356 
L 160.139296 -58.389026 
L 160.234443 -58.571697 
L 160.319339 -58.754368 
L 160.393948 -58.937038 
L 160.458439 -59.119709 
L 160.513189 -59.302379 
L 160.558757 -59.48505 
L 160.595861 -59.667721 
L 160.625321 -59.850391 
L 160.648017 -60.033062 
L 160.664819 -60.215732 
L 160.676526 -60.398403 
L 160.683809 -60.581074 
L 160.687166 -60.763744 
L 160.686898 -60.946415 
L 160.683116 -61.129085 
L 160.675773 -61.311756 
L 160.664732 -61.494427 
L 160.649861 -61.677097 
L 160.631137 -61.859768 
L 160.608755 -62.042438 
L 160.583222 -62.225109 
L 160.555411 -62.40778 
L 160.526562 -62.59045 
L 160.498229 -62.773121 
L 160.472154 -62.955791 
L 160.450111 -63.138462 
L 160.433706 -63.321133 
L 160.424196 -63.503803 
L 160.422329 -63.686474 
L 160.428256 -63.869144 
L 160.441505 -64.051815 
L 160.461047 -64.234486 
L 160.485421 -64.417156 
L 160.512913 -64.599827 
L 160.541749 -64.782497 
L 160.570278 -64.965168 
L 160.59712 -65.147839 
L 160.62126 -65.330509 
L 160.642078 -65.51318 
L 160.659335 -65.69585 
L 160.673104 -65.878521 
L 160.683692 -66.061192 
L 160.731863 -66.061192 
L 160.731863 -66.061192 
L 160.742451 -65.878521 
L 160.756221 -65.69585 
L 160.773478 -65.51318 
L 160.794296 -65.330509 
L 160.818436 -65.147839 
L 160.845278 -64.965168 
L 160.873806 -64.782497 
L 160.902642 -64.599827 
L 160.930134 -64.417156 
L 160.954509 -64.234486 
L 160.974051 -64.051815 
L 160.9873 -63.869144 
L 160.993226 -63.686474 
L 160.99136 -63.503803 
L 160.981849 -63.321133 
L 160.965444 -63.138462 
L 160.943401 -62.955791 
L 160.917327 -62.773121 
L 160.888993 -62.59045 
L 160.860145 -62.40778 
L 160.832334 -62.225109 
L 160.806801 -62.042438 
L 160.784419 -61.859768 
L 160.765694 -61.677097 
L 160.750823 -61.494427 
L 160.739783 -61.311756 
L 160.732439 -61.129085 
L 160.728657 -60.946415 
L 160.72839 -60.763744 
L 160.731747 -60.581074 
L 160.73903 -60.398403 
L 160.750737 -60.215732 
L 160.767538 -60.033062 
L 160.790234 -59.850391 
L 160.819695 -59.667721 
L 160.856798 -59.48505 
L 160.902367 -59.302379 
L 160.957116 -59.119709 
L 161.021607 -58.937038 
L 161.096216 -58.754368 
L 161.181112 -58.571697 
L 161.276259 -58.389026 
L 161.381439 -58.206356 
L 161.496314 -58.023685 
L 161.620527 -57.841015 
L 161.753844 -57.658344 
L 161.896312 -57.475673 
L 162.048406 -57.293003 
L 162.211104 -57.110332 
L 162.38587 -56.927662 
L 162.574474 -56.744991 
L 162.778692 -56.56232 
L 162.999884 -56.37965 
L 163.238557 -56.196979 
L 163.493969 -56.014309 
L 163.763898 -55.831638 
L 164.044605 -55.648967 
L 164.331017 -55.466297 
L 164.617089 -55.283626 
L 164.896273 -55.100956 
L 165.162003 -54.918285 
L 165.408127 -54.735614 
L 165.629247 -54.552944 
L 165.820966 -54.370273 
L 165.980077 -54.187603 
L 166.104741 -54.004932 
L 166.194669 -53.822261 
L 166.251304 -53.639591 
L 166.277934 -53.45692 
L 166.279645 -53.27425 
L 166.263002 -53.091579 
L 166.235398 -52.908908 
L 166.204064 -52.726238 
L 166.174853 -52.543567 
L 166.150988 -52.360897 
L 166.132037 -52.178226 
L 166.113386 -51.995555 
L 166.086419 -51.812885 
L 166.03945 -51.630214 
L 165.959341 -51.447544 
L 165.83354 -51.264873 
L 165.652177 -51.082202 
L 165.40984 -50.899532 
L 165.1067 -50.716861 
L 164.748785 -50.534191 
L 164.347377 -50.35152 
L 163.917671 -50.168849 
L 163.476959 -49.986179 
L 163.042662 -49.803508 
L 162.630527 -49.620838 
L 162.253245 -49.438167 
L 161.919624 -49.255496 
L 161.634356 -49.072826 
L 161.398299 -48.890155 
L 161.20915 -48.707485 
L 161.062321 -48.524814 
L 160.951868 -48.342143 
L 160.87133 -48.159473 
L 160.814399 -47.976802 
z
" style="stroke: #515151; stroke-width: 0.25"/>
    </defs>
    <g clip-path="url(#p24180dd6e9)">
     <use xlink:href="#m705efc6eef" x="0" y="94.5" style="fill: #e1812c; stroke: #515151; stroke-width: 0.25"/>
    </g>
   </g>
   <g id="PolyCollection_7">
    <defs>
     <path id="mf7da057a09" d="M 183.753068 -47.388334 
L 183.658044 -47.388334 
L 183.635611 -47.573279 
L 183.605051 -47.758223 
L 183.564508 -47.943168 
L 183.51211 -48.128112 
L 183.446114 -48.313057 
L 183.365089 -48.498001 
L 183.2681 -48.682946 
L 183.154884 -48.86789 
L 183.025987 -49.052835 
L 182.882814 -49.237779 
L 182.727595 -49.422724 
L 182.563215 -49.607668 
L 182.39294 -49.792613 
L 182.220047 -49.977557 
L 182.047416 -50.162502 
L 181.877163 -50.347446 
L 181.710363 -50.532391 
L 181.546951 -50.717335 
L 181.385814 -50.90228 
L 181.22507 -51.087224 
L 181.06249 -51.272169 
L 180.895971 -51.457113 
L 180.724001 -51.642058 
L 180.546007 -51.827002 
L 180.362571 -52.011947 
L 180.175482 -52.196891 
L 179.987647 -52.381836 
L 179.802891 -52.56678 
L 179.62569 -52.751725 
L 179.46086 -52.936669 
L 179.313217 -53.121614 
L 179.187216 -53.306558 
L 179.086577 -53.491503 
L 179.013919 -53.676447 
L 178.970438 -53.861392 
L 178.955691 -54.046336 
L 178.967553 -54.231281 
L 179.002391 -54.416225 
L 179.055494 -54.60117 
L 179.121717 -54.786114 
L 179.196264 -54.971059 
L 179.27546 -55.156003 
L 179.357376 -55.340948 
L 179.442129 -55.525892 
L 179.531778 -55.710837 
L 179.629782 -55.895781 
L 179.740104 -56.080726 
L 179.866134 -56.26567 
L 180.009647 -56.450615 
L 180.170042 -56.635559 
L 180.344041 -56.820504 
L 180.525946 -57.005448 
L 180.708421 -57.190393 
L 180.883656 -57.375337 
L 181.044677 -57.560282 
L 181.186542 -57.745226 
L 181.307171 -57.930171 
L 181.407664 -58.115115 
L 181.492043 -58.30006 
L 181.566497 -58.485004 
L 181.638292 -58.669949 
L 181.714564 -58.854893 
L 181.80123 -59.039838 
L 181.902177 -59.224782 
L 182.018855 -59.409727 
L 182.150284 -59.594671 
L 182.293412 -59.779616 
L 182.443712 -59.96456 
L 182.595883 -60.149505 
L 182.744532 -60.334449 
L 182.884739 -60.519394 
L 183.012454 -60.704338 
L 183.124722 -60.889283 
L 183.219756 -61.074227 
L 183.29689 -61.259172 
L 183.35646 -61.444116 
L 183.399659 -61.629061 
L 183.428356 -61.814005 
L 183.444934 -61.99895 
L 183.452115 -62.183894 
L 183.452778 -62.368839 
L 183.449792 -62.553783 
L 183.445831 -62.738728 
L 183.443212 -62.923672 
L 183.443753 -63.108617 
L 183.448677 -63.293561 
L 183.458561 -63.478506 
L 183.473355 -63.66345 
L 183.492462 -63.848395 
L 183.514868 -64.033339 
L 183.539302 -64.218284 
L 183.564417 -64.403228 
L 183.588945 -64.588173 
L 183.611826 -64.773117 
L 183.632288 -64.958062 
L 183.649872 -65.143006 
L 183.664421 -65.327951 
L 183.676025 -65.512895 
L 183.684958 -65.69784 
L 183.726153 -65.69784 
L 183.726153 -65.69784 
L 183.735086 -65.512895 
L 183.746691 -65.327951 
L 183.761239 -65.143006 
L 183.778823 -64.958062 
L 183.799285 -64.773117 
L 183.822166 -64.588173 
L 183.846694 -64.403228 
L 183.871809 -64.218284 
L 183.896243 -64.033339 
L 183.918649 -63.848395 
L 183.937756 -63.66345 
L 183.95255 -63.478506 
L 183.962434 -63.293561 
L 183.967358 -63.108617 
L 183.967899 -62.923672 
L 183.96528 -62.738728 
L 183.961319 -62.553783 
L 183.958333 -62.368839 
L 183.958997 -62.183894 
L 183.966177 -61.99895 
L 183.982755 -61.814005 
L 184.011453 -61.629061 
L 184.054651 -61.444116 
L 184.114222 -61.259172 
L 184.191355 -61.074227 
L 184.286389 -60.889283 
L 184.398658 -60.704338 
L 184.526372 -60.519394 
L 184.666579 -60.334449 
L 184.815228 -60.149505 
L 184.967399 -59.96456 
L 185.117699 -59.779616 
L 185.260827 -59.594671 
L 185.392257 -59.409727 
L 185.508934 -59.224782 
L 185.609881 -59.039838 
L 185.696547 -58.854893 
L 185.77282 -58.669949 
L 185.844614 -58.485004 
L 185.919068 -58.30006 
L 186.003447 -58.115115 
L 186.10394 -57.930171 
L 186.224569 -57.745226 
L 186.366434 -57.560282 
L 186.527455 -57.375337 
L 186.70269 -57.190393 
L 186.885165 -57.005448 
L 187.06707 -56.820504 
L 187.241069 -56.635559 
L 187.401464 -56.450615 
L 187.544977 -56.26567 
L 187.671007 -56.080726 
L 187.781329 -55.895781 
L 187.879333 -55.710837 
L 187.968982 -55.525892 
L 188.053736 -55.340948 
L 188.135651 -55.156003 
L 188.214847 -54.971059 
L 188.289394 -54.786114 
L 188.355617 -54.60117 
L 188.40872 -54.416225 
L 188.443558 -54.231281 
L 188.45542 -54.046336 
L 188.440673 -53.861392 
L 188.397192 -53.676447 
L 188.324534 -53.491503 
L 188.223895 -53.306558 
L 188.097894 -53.121614 
L 187.950251 -52.936669 
L 187.785422 -52.751725 
L 187.60822 -52.56678 
L 187.423464 -52.381836 
L 187.235629 -52.196891 
L 187.04854 -52.011947 
L 186.865104 -51.827002 
L 186.68711 -51.642058 
L 186.51514 -51.457113 
L 186.348621 -51.272169 
L 186.186041 -51.087224 
L 186.025297 -50.90228 
L 185.86416 -50.717335 
L 185.700748 -50.532391 
L 185.533948 -50.347446 
L 185.363695 -50.162502 
L 185.191064 -49.977557 
L 185.018171 -49.792613 
L 184.847896 -49.607668 
L 184.683516 -49.422724 
L 184.528297 -49.237779 
L 184.385125 -49.052835 
L 184.256227 -48.86789 
L 184.143011 -48.682946 
L 184.046022 -48.498001 
L 183.964997 -48.313057 
L 183.899001 -48.128112 
L 183.846603 -47.943168 
L 183.80606 -47.758223 
L 183.7755 -47.573279 
L 183.753068 -47.388334 
z
" style="stroke: #515151; stroke-width: 0.25"/>
    </defs>
    <g clip-path="url(#p24180dd6e9)">
     <use xlink:href="#mf7da057a09" x="0" y="94.5" style="fill: #e1812c; stroke: #515151; stroke-width: 0.25"/>
    </g>
   </g>
   <g id="PolyCollection_8">
    <defs>
     <path id="m2b49fa539a" d="M 206.733813 -47.682089 
L 206.672854 -47.682089 
L 206.654768 -47.970645 
L 206.628094 -48.259202 
L 206.589876 -48.547758 
L 206.536612 -48.836314 
L 206.464317 -49.124871 
L 206.368642 -49.413427 
L 206.24507 -49.701984 
L 206.089178 -49.99054 
L 205.89701 -50.279096 
L 205.665529 -50.567653 
L 205.393178 -50.856209 
L 205.08048 -51.144766 
L 204.730634 -51.433322 
L 204.349996 -51.721878 
L 203.948317 -52.010435 
L 203.538631 -52.298991 
L 203.136716 -52.587547 
L 202.760118 -52.876104 
L 202.426818 -53.16466 
L 202.15368 -53.453217 
L 201.95488 -53.741773 
L 201.840501 -54.030329 
L 201.815476 -54.318886 
L 201.878997 -54.607442 
L 202.024484 -54.895999 
L 202.240108 -55.184555 
L 202.509866 -55.473111 
L 202.815091 -55.761668 
L 203.136246 -56.050224 
L 203.454787 -56.33878 
L 203.75483 -56.627337 
L 204.024407 -56.915893 
L 204.256123 -57.20445 
L 204.447166 -57.493006 
L 204.598733 -57.781562 
L 204.715041 -58.070119 
L 204.802159 -58.358675 
L 204.866892 -58.647232 
L 204.9159 -58.935788 
L 204.955142 -59.224344 
L 204.989627 -59.512901 
L 205.023407 -59.801457 
L 205.05966 -60.090013 
L 205.10078 -60.37857 
L 205.14841 -60.667126 
L 205.203412 -60.955683 
L 205.265854 -61.244239 
L 205.335059 -61.532795 
L 205.409789 -61.821352 
L 205.488526 -62.109908 
L 205.569813 -62.398465 
L 205.65253 -62.687021 
L 205.736036 -62.975577 
L 205.820125 -63.264134 
L 205.904815 -63.55269 
L 205.990052 -63.841246 
L 206.075438 -64.129803 
L 206.160063 -64.418359 
L 206.242512 -64.706916 
L 206.32102 -64.995472 
L 206.393749 -65.284028 
L 206.459074 -65.572585 
L 206.515832 -65.861141 
L 206.563465 -66.149698 
L 206.602042 -66.438254 
L 206.632176 -66.72681 
L 206.654872 -67.015367 
L 206.671347 -67.303923 
L 206.682866 -67.592479 
L 206.690606 -67.881036 
L 206.695574 -68.169592 
L 206.698558 -68.458149 
L 206.700126 -68.746705 
L 206.700633 -69.035261 
L 206.700248 -69.323818 
L 206.698982 -69.612374 
L 206.696727 -69.900931 
L 206.693297 -70.189487 
L 206.688479 -70.478043 
L 206.682099 -70.7666 
L 206.674091 -71.055156 
L 206.664572 -71.343712 
L 206.653893 -71.632269 
L 206.642654 -71.920825 
L 206.631676 -72.209382 
L 206.621911 -72.497938 
L 206.614315 -72.786494 
L 206.60969 -73.075051 
L 206.608551 -73.363607 
L 206.611025 -73.652164 
L 206.616835 -73.94072 
L 206.625344 -74.229276 
L 206.635676 -74.517833 
L 206.646858 -74.806389 
L 206.657975 -75.094945 
L 206.668281 -75.383502 
L 206.67727 -75.672058 
L 206.684687 -75.960615 
L 206.690497 -76.249171 
L 206.716169 -76.249171 
L 206.716169 -76.249171 
L 206.72198 -75.960615 
L 206.729397 -75.672058 
L 206.738385 -75.383502 
L 206.748692 -75.094945 
L 206.759809 -74.806389 
L 206.770991 -74.517833 
L 206.781322 -74.229276 
L 206.789832 -73.94072 
L 206.795641 -73.652164 
L 206.798116 -73.363607 
L 206.796976 -73.075051 
L 206.792352 -72.786494 
L 206.784755 -72.497938 
L 206.774991 -72.209382 
L 206.764013 -71.920825 
L 206.752774 -71.632269 
L 206.742094 -71.343712 
L 206.732576 -71.055156 
L 206.724568 -70.7666 
L 206.718187 -70.478043 
L 206.713369 -70.189487 
L 206.709939 -69.900931 
L 206.707685 -69.612374 
L 206.706419 -69.323818 
L 206.706033 -69.035261 
L 206.70654 -68.746705 
L 206.708109 -68.458149 
L 206.711093 -68.169592 
L 206.71606 -67.881036 
L 206.7238 -67.592479 
L 206.735319 -67.303923 
L 206.751795 -67.015367 
L 206.77449 -66.72681 
L 206.804625 -66.438254 
L 206.843202 -66.149698 
L 206.890835 -65.861141 
L 206.947593 -65.572585 
L 207.012918 -65.284028 
L 207.085646 -64.995472 
L 207.164155 -64.706916 
L 207.246603 -64.418359 
L 207.331229 -64.129803 
L 207.416614 -63.841246 
L 207.501852 -63.55269 
L 207.586541 -63.264134 
L 207.67063 -62.975577 
L 207.754137 -62.687021 
L 207.836854 -62.398465 
L 207.918141 -62.109908 
L 207.996878 -61.821352 
L 208.071607 -61.532795 
L 208.140813 -61.244239 
L 208.203254 -60.955683 
L 208.258257 -60.667126 
L 208.305887 -60.37857 
L 208.347007 -60.090013 
L 208.383259 -59.801457 
L 208.417039 -59.512901 
L 208.451525 -59.224344 
L 208.490767 -58.935788 
L 208.539775 -58.647232 
L 208.604508 -58.358675 
L 208.691626 -58.070119 
L 208.807934 -57.781562 
L 208.959501 -57.493006 
L 209.150544 -57.20445 
L 209.38226 -56.915893 
L 209.651837 -56.627337 
L 209.95188 -56.33878 
L 210.27042 -56.050224 
L 210.591576 -55.761668 
L 210.8968 -55.473111 
L 211.166558 -55.184555 
L 211.382183 -54.895999 
L 211.527669 -54.607442 
L 211.591191 -54.318886 
L 211.566165 -54.030329 
L 211.451787 -53.741773 
L 211.252987 -53.453217 
L 210.979849 -53.16466 
L 210.646549 -52.876104 
L 210.269951 -52.587547 
L 209.868035 -52.298991 
L 209.45835 -52.010435 
L 209.056671 -51.721878 
L 208.676033 -51.433322 
L 208.326187 -51.144766 
L 208.013488 -50.856209 
L 207.741137 -50.567653 
L 207.509657 -50.279096 
L 207.317488 -49.99054 
L 207.161597 -49.701984 
L 207.038024 -49.413427 
L 206.94235 -49.124871 
L 206.870055 -48.836314 
L 206.816791 -48.547758 
L 206.778573 -48.259202 
L 206.751899 -47.970645 
L 206.733813 -47.682089 
z
" style="stroke: #515151; stroke-width: 0.25"/>
    </defs>
    <g clip-path="url(#p24180dd6e9)">
     <use xlink:href="#m2b49fa539a" x="0" y="94.5" style="fill: #e1812c; stroke: #515151; stroke-width: 0.25"/>
    </g>
   </g>
   <g id="PolyCollection_9">
    <defs>
     <path id="m736839798d" d="M 230.081482 -46.309153 
L 229.32074 -46.309153 
L 229.206988 -46.527524 
L 229.06839 -46.745896 
L 228.902457 -46.964267 
L 228.707317 -47.182638 
L 228.481984 -47.401009 
L 228.22662 -47.619381 
L 227.942761 -47.837752 
L 227.63349 -48.056123 
L 227.303517 -48.274495 
L 226.959152 -48.492866 
L 226.608154 -48.711237 
L 226.259445 -48.929609 
L 225.922711 -49.14798 
L 225.607895 -49.366351 
L 225.32464 -49.584723 
L 225.081694 -49.803094 
L 224.886365 -50.021465 
L 224.744038 -50.239837 
L 224.657828 -50.458208 
L 224.628382 -50.676579 
L 224.653859 -50.894951 
L 224.730091 -51.113322 
L 224.850901 -51.331693 
L 225.008564 -51.550065 
L 225.194353 -51.768436 
L 225.399135 -51.986807 
L 225.61396 -52.205179 
L 225.830607 -52.42355 
L 226.042025 -52.641921 
L 226.242672 -52.860293 
L 226.428702 -53.078664 
L 226.598025 -53.297035 
L 226.750223 -53.515407 
L 226.886356 -53.733778 
L 227.008677 -53.952149 
L 227.120283 -54.170521 
L 227.224744 -54.388892 
L 227.325728 -54.607263 
L 227.426666 -54.825635 
L 227.530471 -55.044006 
L 227.639326 -55.262377 
L 227.754559 -55.480749 
L 227.876601 -55.69912 
L 228.005025 -55.917491 
L 228.138646 -56.135863 
L 228.275675 -56.354234 
L 228.413905 -56.572605 
L 228.550907 -56.790977 
L 228.684219 -57.009348 
L 228.811518 -57.227719 
L 228.930749 -57.446091 
L 229.040229 -57.664462 
L 229.138697 -57.882833 
L 229.225332 -58.101205 
L 229.29974 -58.319576 
L 229.361906 -58.537947 
L 229.412137 -58.756319 
L 229.450991 -58.97469 
L 229.479207 -59.193061 
L 229.497634 -59.411433 
L 229.507174 -59.629804 
L 229.508732 -59.848175 
L 229.503184 -60.066547 
L 229.491353 -60.284918 
L 229.474002 -60.503289 
L 229.451835 -60.721661 
L 229.42552 -60.940032 
L 229.3957 -61.158403 
L 229.363031 -61.376774 
L 229.328203 -61.595146 
L 229.291973 -61.813517 
L 229.25518 -62.031888 
L 229.218756 -62.25026 
L 229.183723 -62.468631 
L 229.151171 -62.687002 
L 229.122222 -62.905374 
L 229.097982 -63.123745 
L 229.079478 -63.342116 
L 229.067594 -63.560488 
L 229.063006 -63.778859 
L 229.06613 -63.99723 
L 229.077079 -64.215602 
L 229.095645 -64.433973 
L 229.121303 -64.652344 
L 229.153239 -64.870716 
L 229.190395 -65.089087 
L 229.231543 -65.307458 
L 229.27535 -65.52583 
L 229.320469 -65.744201 
L 229.365608 -65.962572 
L 229.409596 -66.180944 
L 229.45144 -66.399315 
L 229.490352 -66.617686 
L 229.52577 -66.836058 
L 229.55735 -67.054429 
L 229.584957 -67.2728 
L 229.608632 -67.491172 
L 229.628558 -67.709543 
L 229.645024 -67.927914 
L 229.757198 -67.927914 
L 229.757198 -67.927914 
L 229.773665 -67.709543 
L 229.79359 -67.491172 
L 229.817265 -67.2728 
L 229.844872 -67.054429 
L 229.876453 -66.836058 
L 229.91187 -66.617686 
L 229.950782 -66.399315 
L 229.992626 -66.180944 
L 230.036615 -65.962572 
L 230.081753 -65.744201 
L 230.126872 -65.52583 
L 230.17068 -65.307458 
L 230.211827 -65.089087 
L 230.248984 -64.870716 
L 230.280919 -64.652344 
L 230.306577 -64.433973 
L 230.325143 -64.215602 
L 230.336092 -63.99723 
L 230.339216 -63.778859 
L 230.334628 -63.560488 
L 230.322744 -63.342116 
L 230.30424 -63.123745 
L 230.28 -62.905374 
L 230.251051 -62.687002 
L 230.218499 -62.468631 
L 230.183466 -62.25026 
L 230.147042 -62.031888 
L 230.110249 -61.813517 
L 230.074019 -61.595146 
L 230.039191 -61.376774 
L 230.006522 -61.158403 
L 229.976703 -60.940032 
L 229.950387 -60.721661 
L 229.928221 -60.503289 
L 229.910869 -60.284918 
L 229.899038 -60.066547 
L 229.89349 -59.848175 
L 229.895049 -59.629804 
L 229.904589 -59.411433 
L 229.923015 -59.193061 
L 229.951231 -58.97469 
L 229.990086 -58.756319 
L 230.040316 -58.537947 
L 230.102482 -58.319576 
L 230.17689 -58.101205 
L 230.263525 -57.882833 
L 230.361993 -57.664462 
L 230.471473 -57.446091 
L 230.590704 -57.227719 
L 230.718003 -57.009348 
L 230.851316 -56.790977 
L 230.988317 -56.572605 
L 231.126547 -56.354234 
L 231.263576 -56.135863 
L 231.397197 -55.917491 
L 231.525621 -55.69912 
L 231.647664 -55.480749 
L 231.762896 -55.262377 
L 231.871751 -55.044006 
L 231.975556 -54.825635 
L 232.076495 -54.607263 
L 232.177479 -54.388892 
L 232.281939 -54.170521 
L 232.393545 -53.952149 
L 232.515866 -53.733778 
L 232.652 -53.515407 
L 232.804197 -53.297035 
L 232.97352 -53.078664 
L 233.159551 -52.860293 
L 233.360197 -52.641921 
L 233.571615 -52.42355 
L 233.788262 -52.205179 
L 234.003088 -51.986807 
L 234.207869 -51.768436 
L 234.393658 -51.550065 
L 234.551321 -51.331693 
L 234.672132 -51.113322 
L 234.748363 -50.894951 
L 234.77384 -50.676579 
L 234.744394 -50.458208 
L 234.658184 -50.239837 
L 234.515857 -50.021465 
L 234.320528 -49.803094 
L 234.077583 -49.584723 
L 233.794327 -49.366351 
L 233.479512 -49.14798 
L 233.142777 -48.929609 
L 232.794068 -48.711237 
L 232.44307 -48.492866 
L 232.098706 -48.274495 
L 231.768732 -48.056123 
L 231.459461 -47.837752 
L 231.175602 -47.619381 
L 230.920238 -47.401009 
L 230.694905 -47.182638 
L 230.499765 -46.964267 
L 230.333832 -46.745896 
L 230.195234 -46.527524 
L 230.081482 -46.309153 
z
" style="stroke: #515151; stroke-width: 0.25"/>
    </defs>
    <g clip-path="url(#p24180dd6e9)">
     <use xlink:href="#m736839798d" x="0" y="94.5" style="fill: #e1812c; stroke: #515151; stroke-width: 0.25"/>
    </g>
   </g>
   <g id="matplotlib.axis_1">
    <g id="xtick_1">
     <g id="line2d_1">
      <defs>
       <path id="mce3ad949ed" d="M 0 0 
L 0 3.5 
" style="stroke: #000000; stroke-width: 0.8"/>
      </defs>
      <g>
       <use xlink:href="#mce3ad949ed" x="45.718889" y="49.971364" style="stroke: #000000; stroke-width: 0.8"/>
      </g>
     </g>
     <g id="text_1">
      <!-- Bone marrow -->
      <g transform="translate(21.424247 83.217179) rotate(-45) scale(0.05 -0.05)">
       <defs>
        <path id="DejaVuSans-42" d="M 1259 2228 
L 1259 519 
L 2272 519 
Q 2781 519 3026 730 
Q 3272 941 3272 1375 
Q 3272 1813 3026 2020 
Q 2781 2228 2272 2228 
L 1259 2228 
z
M 1259 4147 
L 1259 2741 
L 2194 2741 
Q 2656 2741 2882 2914 
Q 3109 3088 3109 3444 
Q 3109 3797 2882 3972 
Q 2656 4147 2194 4147 
L 1259 4147 
z
M 628 4666 
L 2241 4666 
Q 2963 4666 3353 4366 
Q 3744 4066 3744 3513 
Q 3744 3084 3544 2831 
Q 3344 2578 2956 2516 
Q 3422 2416 3680 2098 
Q 3938 1781 3938 1306 
Q 3938 681 3513 340 
Q 3088 0 2303 0 
L 628 0 
L 628 4666 
z
" transform="scale(0.015625)"/>
        <path id="DejaVuSans-6f" d="M 1959 3097 
Q 1497 3097 1228 2736 
Q 959 2375 959 1747 
Q 959 1119 1226 758 
Q 1494 397 1959 397 
Q 2419 397 2687 759 
Q 2956 1122 2956 1747 
Q 2956 2369 2687 2733 
Q 2419 3097 1959 3097 
z
M 1959 3584 
Q 2709 3584 3137 3096 
Q 3566 2609 3566 1747 
Q 3566 888 3137 398 
Q 2709 -91 1959 -91 
Q 1206 -91 779 398 
Q 353 888 353 1747 
Q 353 2609 779 3096 
Q 1206 3584 1959 3584 
z
" transform="scale(0.015625)"/>
        <path id="DejaVuSans-6e" d="M 3513 2113 
L 3513 0 
L 2938 0 
L 2938 2094 
Q 2938 2591 2744 2837 
Q 2550 3084 2163 3084 
Q 1697 3084 1428 2787 
Q 1159 2491 1159 1978 
L 1159 0 
L 581 0 
L 581 3500 
L 1159 3500 
L 1159 2956 
Q 1366 3272 1645 3428 
Q 1925 3584 2291 3584 
Q 2894 3584 3203 3211 
Q 3513 2838 3513 2113 
z
" transform="scale(0.015625)"/>
        <path id="DejaVuSans-65" d="M 3597 1894 
L 3597 1613 
L 953 1613 
Q 991 1019 1311 708 
Q 1631 397 2203 397 
Q 2534 397 2845 478 
Q 3156 559 3463 722 
L 3463 178 
Q 3153 47 2828 -22 
Q 2503 -91 2169 -91 
Q 1331 -91 842 396 
Q 353 884 353 1716 
Q 353 2575 817 3079 
Q 1281 3584 2069 3584 
Q 2775 3584 3186 3129 
Q 3597 2675 3597 1894 
z
M 3022 2063 
Q 3016 2534 2758 2815 
Q 2500 3097 2075 3097 
Q 1594 3097 1305 2825 
Q 1016 2553 972 2059 
L 3022 2063 
z
" transform="scale(0.015625)"/>
        <path id="DejaVuSans-20" transform="scale(0.015625)"/>
        <path id="DejaVuSans-6d" d="M 3328 2828 
Q 3544 3216 3844 3400 
Q 4144 3584 4550 3584 
Q 5097 3584 5394 3201 
Q 5691 2819 5691 2113 
L 5691 0 
L 5113 0 
L 5113 2094 
Q 5113 2597 4934 2840 
Q 4756 3084 4391 3084 
Q 3944 3084 3684 2787 
Q 3425 2491 3425 1978 
L 3425 0 
L 2847 0 
L 2847 2094 
Q 2847 2600 2669 2842 
Q 2491 3084 2119 3084 
Q 1678 3084 1418 2786 
Q 1159 2488 1159 1978 
L 1159 0 
L 581 0 
L 581 3500 
L 1159 3500 
L 1159 2956 
Q 1356 3278 1631 3431 
Q 1906 3584 2284 3584 
Q 2666 3584 2933 3390 
Q 3200 3197 3328 2828 
z
" transform="scale(0.015625)"/>
        <path id="DejaVuSans-61" d="M 2194 1759 
Q 1497 1759 1228 1600 
Q 959 1441 959 1056 
Q 959 750 1161 570 
Q 1363 391 1709 391 
Q 2188 391 2477 730 
Q 2766 1069 2766 1631 
L 2766 1759 
L 2194 1759 
z
M 3341 1997 
L 3341 0 
L 2766 0 
L 2766 531 
Q 2569 213 2275 61 
Q 1981 -91 1556 -91 
Q 1019 -91 701 211 
Q 384 513 384 1019 
Q 384 1609 779 1909 
Q 1175 2209 1959 2209 
L 2766 2209 
L 2766 2266 
Q 2766 2663 2505 2880 
Q 2244 3097 1772 3097 
Q 1472 3097 1187 3025 
Q 903 2953 641 2809 
L 641 3341 
Q 956 3463 1253 3523 
Q 1550 3584 1831 3584 
Q 2591 3584 2966 3190 
Q 3341 2797 3341 1997 
z
" transform="scale(0.015625)"/>
        <path id="DejaVuSans-72" d="M 2631 2963 
Q 2534 3019 2420 3045 
Q 2306 3072 2169 3072 
Q 1681 3072 1420 2755 
Q 1159 2438 1159 1844 
L 1159 0 
L 581 0 
L 581 3500 
L 1159 3500 
L 1159 2956 
Q 1341 3275 1631 3429 
Q 1922 3584 2338 3584 
Q 2397 3584 2469 3576 
Q 2541 3569 2628 3553 
L 2631 2963 
z
" transform="scale(0.015625)"/>
        <path id="DejaVuSans-77" d="M 269 3500 
L 844 3500 
L 1563 769 
L 2278 3500 
L 2956 3500 
L 3675 769 
L 4391 3500 
L 4966 3500 
L 4050 0 
L 3372 0 
L 2619 2869 
L 1863 0 
L 1184 0 
L 269 3500 
z
" transform="scale(0.015625)"/>
       </defs>
       <use xlink:href="#DejaVuSans-42"/>
       <use xlink:href="#DejaVuSans-6f" x="68.603516"/>
       <use xlink:href="#DejaVuSans-6e" x="129.785156"/>
       <use xlink:href="#DejaVuSans-65" x="193.164062"/>
       <use xlink:href="#DejaVuSans-20" x="254.6875"/>
       <use xlink:href="#DejaVuSans-6d" x="286.474609"/>
       <use xlink:href="#DejaVuSans-61" x="383.886719"/>
       <use xlink:href="#DejaVuSans-72" x="445.166016"/>
       <use xlink:href="#DejaVuSans-72" x="484.529297"/>
       <use xlink:href="#DejaVuSans-6f" x="523.392578"/>
       <use xlink:href="#DejaVuSans-77" x="584.574219"/>
      </g>
     </g>
    </g>
    <g id="xtick_2">
     <g id="line2d_2">
      <g>
       <use xlink:href="#mce3ad949ed" x="68.716667" y="49.971364" style="stroke: #000000; stroke-width: 0.8"/>
      </g>
     </g>
     <g id="text_2">
      <!-- PBMC -->
      <g transform="translate(57.904562 69.734641) rotate(-45) scale(0.05 -0.05)">
       <defs>
        <path id="DejaVuSans-50" d="M 1259 4147 
L 1259 2394 
L 2053 2394 
Q 2494 2394 2734 2622 
Q 2975 2850 2975 3272 
Q 2975 3691 2734 3919 
Q 2494 4147 2053 4147 
L 1259 4147 
z
M 628 4666 
L 2053 4666 
Q 2838 4666 3239 4311 
Q 3641 3956 3641 3272 
Q 3641 2581 3239 2228 
Q 2838 1875 2053 1875 
L 1259 1875 
L 1259 0 
L 628 0 
L 628 4666 
z
" transform="scale(0.015625)"/>
        <path id="DejaVuSans-4d" d="M 628 4666 
L 1569 4666 
L 2759 1491 
L 3956 4666 
L 4897 4666 
L 4897 0 
L 4281 0 
L 4281 4097 
L 3078 897 
L 2444 897 
L 1241 4097 
L 1241 0 
L 628 0 
L 628 4666 
z
" transform="scale(0.015625)"/>
        <path id="DejaVuSans-43" d="M 4122 4306 
L 4122 3641 
Q 3803 3938 3442 4084 
Q 3081 4231 2675 4231 
Q 1875 4231 1450 3742 
Q 1025 3253 1025 2328 
Q 1025 1406 1450 917 
Q 1875 428 2675 428 
Q 3081 428 3442 575 
Q 3803 722 4122 1019 
L 4122 359 
Q 3791 134 3420 21 
Q 3050 -91 2638 -91 
Q 1578 -91 968 557 
Q 359 1206 359 2328 
Q 359 3453 968 4101 
Q 1578 4750 2638 4750 
Q 3056 4750 3426 4639 
Q 3797 4528 4122 4306 
z
" transform="scale(0.015625)"/>
       </defs>
       <use xlink:href="#DejaVuSans-50"/>
       <use xlink:href="#DejaVuSans-42" x="60.302734"/>
       <use xlink:href="#DejaVuSans-4d" x="128.90625"/>
       <use xlink:href="#DejaVuSans-43" x="215.185547"/>
      </g>
     </g>
    </g>
    <g id="xtick_3">
     <g id="line2d_3">
      <g>
       <use xlink:href="#mce3ad949ed" x="91.714444" y="49.971364" style="stroke: #000000; stroke-width: 0.8"/>
      </g>
     </g>
     <g id="text_3">
      <!-- Kidney -->
      <g transform="translate(78.925203 71.711778) rotate(-45) scale(0.05 -0.05)">
       <defs>
        <path id="DejaVuSans-4b" d="M 628 4666 
L 1259 4666 
L 1259 2694 
L 3353 4666 
L 4166 4666 
L 1850 2491 
L 4331 0 
L 3500 0 
L 1259 2247 
L 1259 0 
L 628 0 
L 628 4666 
z
" transform="scale(0.015625)"/>
        <path id="DejaVuSans-69" d="M 603 3500 
L 1178 3500 
L 1178 0 
L 603 0 
L 603 3500 
z
M 603 4863 
L 1178 4863 
L 1178 4134 
L 603 4134 
L 603 4863 
z
" transform="scale(0.015625)"/>
        <path id="DejaVuSans-64" d="M 2906 2969 
L 2906 4863 
L 3481 4863 
L 3481 0 
L 2906 0 
L 2906 525 
Q 2725 213 2448 61 
Q 2172 -91 1784 -91 
Q 1150 -91 751 415 
Q 353 922 353 1747 
Q 353 2572 751 3078 
Q 1150 3584 1784 3584 
Q 2172 3584 2448 3432 
Q 2725 3281 2906 2969 
z
M 947 1747 
Q 947 1113 1208 752 
Q 1469 391 1925 391 
Q 2381 391 2643 752 
Q 2906 1113 2906 1747 
Q 2906 2381 2643 2742 
Q 2381 3103 1925 3103 
Q 1469 3103 1208 2742 
Q 947 2381 947 1747 
z
" transform="scale(0.015625)"/>
        <path id="DejaVuSans-79" d="M 2059 -325 
Q 1816 -950 1584 -1140 
Q 1353 -1331 966 -1331 
L 506 -1331 
L 506 -850 
L 844 -850 
Q 1081 -850 1212 -737 
Q 1344 -625 1503 -206 
L 1606 56 
L 191 3500 
L 800 3500 
L 1894 763 
L 2988 3500 
L 3597 3500 
L 2059 -325 
z
" transform="scale(0.015625)"/>
       </defs>
       <use xlink:href="#DejaVuSans-4b"/>
       <use xlink:href="#DejaVuSans-69" x="65.576172"/>
       <use xlink:href="#DejaVuSans-64" x="93.359375"/>
       <use xlink:href="#DejaVuSans-6e" x="156.835938"/>
       <use xlink:href="#DejaVuSans-65" x="220.214844"/>
       <use xlink:href="#DejaVuSans-79" x="281.738281"/>
      </g>
     </g>
    </g>
    <g id="xtick_4">
     <g id="line2d_4">
      <g>
       <use xlink:href="#mce3ad949ed" x="114.712222" y="49.971364" style="stroke: #000000; stroke-width: 0.8"/>
      </g>
     </g>
     <g id="text_4">
      <!-- Pancreas -->
      <g transform="translate(98.095213 75.539546) rotate(-45) scale(0.05 -0.05)">
       <defs>
        <path id="DejaVuSans-63" d="M 3122 3366 
L 3122 2828 
Q 2878 2963 2633 3030 
Q 2388 3097 2138 3097 
Q 1578 3097 1268 2742 
Q 959 2388 959 1747 
Q 959 1106 1268 751 
Q 1578 397 2138 397 
Q 2388 397 2633 464 
Q 2878 531 3122 666 
L 3122 134 
Q 2881 22 2623 -34 
Q 2366 -91 2075 -91 
Q 1284 -91 818 406 
Q 353 903 353 1747 
Q 353 2603 823 3093 
Q 1294 3584 2113 3584 
Q 2378 3584 2631 3529 
Q 2884 3475 3122 3366 
z
" transform="scale(0.015625)"/>
        <path id="DejaVuSans-73" d="M 2834 3397 
L 2834 2853 
Q 2591 2978 2328 3040 
Q 2066 3103 1784 3103 
Q 1356 3103 1142 2972 
Q 928 2841 928 2578 
Q 928 2378 1081 2264 
Q 1234 2150 1697 2047 
L 1894 2003 
Q 2506 1872 2764 1633 
Q 3022 1394 3022 966 
Q 3022 478 2636 193 
Q 2250 -91 1575 -91 
Q 1294 -91 989 -36 
Q 684 19 347 128 
L 347 722 
Q 666 556 975 473 
Q 1284 391 1588 391 
Q 1994 391 2212 530 
Q 2431 669 2431 922 
Q 2431 1156 2273 1281 
Q 2116 1406 1581 1522 
L 1381 1569 
Q 847 1681 609 1914 
Q 372 2147 372 2553 
Q 372 3047 722 3315 
Q 1072 3584 1716 3584 
Q 2034 3584 2315 3537 
Q 2597 3491 2834 3397 
z
" transform="scale(0.015625)"/>
       </defs>
       <use xlink:href="#DejaVuSans-50"/>
       <use xlink:href="#DejaVuSans-61" x="55.802734"/>
       <use xlink:href="#DejaVuSans-6e" x="117.082031"/>
       <use xlink:href="#DejaVuSans-63" x="180.460938"/>
       <use xlink:href="#DejaVuSans-72" x="235.441406"/>
       <use xlink:href="#DejaVuSans-65" x="274.304688"/>
       <use xlink:href="#DejaVuSans-61" x="335.828125"/>
       <use xlink:href="#DejaVuSans-73" x="397.107422"/>
      </g>
     </g>
    </g>
    <g id="xtick_5">
     <g id="line2d_5">
      <g>
       <use xlink:href="#mce3ad949ed" x="137.71" y="49.971364" style="stroke: #000000; stroke-width: 0.8"/>
      </g>
     </g>
     <g id="text_5">
      <!-- Merged -->
      <g transform="translate(123.692713 72.939824) rotate(-45) scale(0.05 -0.05)">
       <defs>
        <path id="DejaVuSans-67" d="M 2906 1791 
Q 2906 2416 2648 2759 
Q 2391 3103 1925 3103 
Q 1463 3103 1205 2759 
Q 947 2416 947 1791 
Q 947 1169 1205 825 
Q 1463 481 1925 481 
Q 2391 481 2648 825 
Q 2906 1169 2906 1791 
z
M 3481 434 
Q 3481 -459 3084 -895 
Q 2688 -1331 1869 -1331 
Q 1566 -1331 1297 -1286 
Q 1028 -1241 775 -1147 
L 775 -588 
Q 1028 -725 1275 -790 
Q 1522 -856 1778 -856 
Q 2344 -856 2625 -561 
Q 2906 -266 2906 331 
L 2906 616 
Q 2728 306 2450 153 
Q 2172 0 1784 0 
Q 1141 0 747 490 
Q 353 981 353 1791 
Q 353 2603 747 3093 
Q 1141 3584 1784 3584 
Q 2172 3584 2450 3431 
Q 2728 3278 2906 2969 
L 2906 3500 
L 3481 3500 
L 3481 434 
z
" transform="scale(0.015625)"/>
       </defs>
       <use xlink:href="#DejaVuSans-4d"/>
       <use xlink:href="#DejaVuSans-65" x="86.279297"/>
       <use xlink:href="#DejaVuSans-72" x="147.802734"/>
       <use xlink:href="#DejaVuSans-67" x="187.166016"/>
       <use xlink:href="#DejaVuSans-65" x="250.642578"/>
       <use xlink:href="#DejaVuSans-64" x="312.166016"/>
      </g>
     </g>
    </g>
    <g id="xtick_6">
     <g id="line2d_6">
      <g>
       <use xlink:href="#mce3ad949ed" x="160.707778" y="49.971364" style="stroke: #000000; stroke-width: 0.8"/>
      </g>
     </g>
     <g id="text_6">
      <!-- Baron -->
      <g transform="translate(149.602334 70.02798) rotate(-45) scale(0.05 -0.05)">
       <use xlink:href="#DejaVuSans-42"/>
       <use xlink:href="#DejaVuSans-61" x="68.603516"/>
       <use xlink:href="#DejaVuSans-72" x="129.882812"/>
       <use xlink:href="#DejaVuSans-6f" x="168.746094"/>
       <use xlink:href="#DejaVuSans-6e" x="229.927734"/>
      </g>
     </g>
    </g>
    <g id="xtick_7">
     <g id="line2d_7">
      <g>
       <use xlink:href="#mce3ad949ed" x="183.705556" y="49.971364" style="stroke: #000000; stroke-width: 0.8"/>
      </g>
     </g>
     <g id="text_7">
      <!-- MacParland -->
      <g transform="translate(162.582398 80.045694) rotate(-45) scale(0.05 -0.05)">
       <defs>
        <path id="DejaVuSans-6c" d="M 603 4863 
L 1178 4863 
L 1178 0 
L 603 0 
L 603 4863 
z
" transform="scale(0.015625)"/>
       </defs>
       <use xlink:href="#DejaVuSans-4d"/>
       <use xlink:href="#DejaVuSans-61" x="86.279297"/>
       <use xlink:href="#DejaVuSans-63" x="147.558594"/>
       <use xlink:href="#DejaVuSans-50" x="202.539062"/>
       <use xlink:href="#DejaVuSans-61" x="258.341797"/>
       <use xlink:href="#DejaVuSans-72" x="319.621094"/>
       <use xlink:href="#DejaVuSans-6c" x="360.734375"/>
       <use xlink:href="#DejaVuSans-61" x="388.517578"/>
       <use xlink:href="#DejaVuSans-6e" x="449.796875"/>
       <use xlink:href="#DejaVuSans-64" x="513.175781"/>
      </g>
     </g>
    </g>
    <g id="xtick_8">
     <g id="line2d_8">
      <g>
       <use xlink:href="#mce3ad949ed" x="206.703333" y="49.971364" style="stroke: #000000; stroke-width: 0.8"/>
      </g>
     </g>
     <g id="text_8">
      <!-- Segerstolpe -->
      <g transform="translate(184.881355 80.744515) rotate(-45) scale(0.05 -0.05)">
       <defs>
        <path id="DejaVuSans-53" d="M 3425 4513 
L 3425 3897 
Q 3066 4069 2747 4153 
Q 2428 4238 2131 4238 
Q 1616 4238 1336 4038 
Q 1056 3838 1056 3469 
Q 1056 3159 1242 3001 
Q 1428 2844 1947 2747 
L 2328 2669 
Q 3034 2534 3370 2195 
Q 3706 1856 3706 1288 
Q 3706 609 3251 259 
Q 2797 -91 1919 -91 
Q 1588 -91 1214 -16 
Q 841 59 441 206 
L 441 856 
Q 825 641 1194 531 
Q 1563 422 1919 422 
Q 2459 422 2753 634 
Q 3047 847 3047 1241 
Q 3047 1584 2836 1778 
Q 2625 1972 2144 2069 
L 1759 2144 
Q 1053 2284 737 2584 
Q 422 2884 422 3419 
Q 422 4038 858 4394 
Q 1294 4750 2059 4750 
Q 2388 4750 2728 4690 
Q 3069 4631 3425 4513 
z
" transform="scale(0.015625)"/>
        <path id="DejaVuSans-74" d="M 1172 4494 
L 1172 3500 
L 2356 3500 
L 2356 3053 
L 1172 3053 
L 1172 1153 
Q 1172 725 1289 603 
Q 1406 481 1766 481 
L 2356 481 
L 2356 0 
L 1766 0 
Q 1100 0 847 248 
Q 594 497 594 1153 
L 594 3053 
L 172 3053 
L 172 3500 
L 594 3500 
L 594 4494 
L 1172 4494 
z
" transform="scale(0.015625)"/>
        <path id="DejaVuSans-70" d="M 1159 525 
L 1159 -1331 
L 581 -1331 
L 581 3500 
L 1159 3500 
L 1159 2969 
Q 1341 3281 1617 3432 
Q 1894 3584 2278 3584 
Q 2916 3584 3314 3078 
Q 3713 2572 3713 1747 
Q 3713 922 3314 415 
Q 2916 -91 2278 -91 
Q 1894 -91 1617 61 
Q 1341 213 1159 525 
z
M 3116 1747 
Q 3116 2381 2855 2742 
Q 2594 3103 2138 3103 
Q 1681 3103 1420 2742 
Q 1159 2381 1159 1747 
Q 1159 1113 1420 752 
Q 1681 391 2138 391 
Q 2594 391 2855 752 
Q 3116 1113 3116 1747 
z
" transform="scale(0.015625)"/>
       </defs>
       <use xlink:href="#DejaVuSans-53"/>
       <use xlink:href="#DejaVuSans-65" x="63.476562"/>
       <use xlink:href="#DejaVuSans-67" x="125"/>
       <use xlink:href="#DejaVuSans-65" x="188.476562"/>
       <use xlink:href="#DejaVuSans-72" x="250"/>
       <use xlink:href="#DejaVuSans-73" x="291.113281"/>
       <use xlink:href="#DejaVuSans-74" x="343.212891"/>
       <use xlink:href="#DejaVuSans-6f" x="382.421875"/>
       <use xlink:href="#DejaVuSans-6c" x="443.603516"/>
       <use xlink:href="#DejaVuSans-70" x="471.386719"/>
       <use xlink:href="#DejaVuSans-65" x="534.863281"/>
      </g>
     </g>
    </g>
    <g id="xtick_9">
     <g id="line2d_9">
      <g>
       <use xlink:href="#mce3ad949ed" x="229.701111" y="49.971364" style="stroke: #000000; stroke-width: 0.8"/>
      </g>
     </g>
     <g id="text_9">
      <!-- Zheng68k -->
      <g transform="translate(211.096469 77.527179) rotate(-45) scale(0.05 -0.05)">
       <defs>
        <path id="DejaVuSans-5a" d="M 359 4666 
L 4025 4666 
L 4025 4184 
L 1075 531 
L 4097 531 
L 4097 0 
L 288 0 
L 288 481 
L 3238 4134 
L 359 4134 
L 359 4666 
z
" transform="scale(0.015625)"/>
        <path id="DejaVuSans-68" d="M 3513 2113 
L 3513 0 
L 2938 0 
L 2938 2094 
Q 2938 2591 2744 2837 
Q 2550 3084 2163 3084 
Q 1697 3084 1428 2787 
Q 1159 2491 1159 1978 
L 1159 0 
L 581 0 
L 581 4863 
L 1159 4863 
L 1159 2956 
Q 1366 3272 1645 3428 
Q 1925 3584 2291 3584 
Q 2894 3584 3203 3211 
Q 3513 2838 3513 2113 
z
" transform="scale(0.015625)"/>
        <path id="DejaVuSans-36" d="M 2113 2584 
Q 1688 2584 1439 2293 
Q 1191 2003 1191 1497 
Q 1191 994 1439 701 
Q 1688 409 2113 409 
Q 2538 409 2786 701 
Q 3034 994 3034 1497 
Q 3034 2003 2786 2293 
Q 2538 2584 2113 2584 
z
M 3366 4563 
L 3366 3988 
Q 3128 4100 2886 4159 
Q 2644 4219 2406 4219 
Q 1781 4219 1451 3797 
Q 1122 3375 1075 2522 
Q 1259 2794 1537 2939 
Q 1816 3084 2150 3084 
Q 2853 3084 3261 2657 
Q 3669 2231 3669 1497 
Q 3669 778 3244 343 
Q 2819 -91 2113 -91 
Q 1303 -91 875 529 
Q 447 1150 447 2328 
Q 447 3434 972 4092 
Q 1497 4750 2381 4750 
Q 2619 4750 2861 4703 
Q 3103 4656 3366 4563 
z
" transform="scale(0.015625)"/>
        <path id="DejaVuSans-38" d="M 2034 2216 
Q 1584 2216 1326 1975 
Q 1069 1734 1069 1313 
Q 1069 891 1326 650 
Q 1584 409 2034 409 
Q 2484 409 2743 651 
Q 3003 894 3003 1313 
Q 3003 1734 2745 1975 
Q 2488 2216 2034 2216 
z
M 1403 2484 
Q 997 2584 770 2862 
Q 544 3141 544 3541 
Q 544 4100 942 4425 
Q 1341 4750 2034 4750 
Q 2731 4750 3128 4425 
Q 3525 4100 3525 3541 
Q 3525 3141 3298 2862 
Q 3072 2584 2669 2484 
Q 3125 2378 3379 2068 
Q 3634 1759 3634 1313 
Q 3634 634 3220 271 
Q 2806 -91 2034 -91 
Q 1263 -91 848 271 
Q 434 634 434 1313 
Q 434 1759 690 2068 
Q 947 2378 1403 2484 
z
M 1172 3481 
Q 1172 3119 1398 2916 
Q 1625 2713 2034 2713 
Q 2441 2713 2670 2916 
Q 2900 3119 2900 3481 
Q 2900 3844 2670 4047 
Q 2441 4250 2034 4250 
Q 1625 4250 1398 4047 
Q 1172 3844 1172 3481 
z
" transform="scale(0.015625)"/>
        <path id="DejaVuSans-6b" d="M 581 4863 
L 1159 4863 
L 1159 1991 
L 2875 3500 
L 3609 3500 
L 1753 1863 
L 3688 0 
L 2938 0 
L 1159 1709 
L 1159 0 
L 581 0 
L 581 4863 
z
" transform="scale(0.015625)"/>
       </defs>
       <use xlink:href="#DejaVuSans-5a"/>
       <use xlink:href="#DejaVuSans-68" x="68.505859"/>
       <use xlink:href="#DejaVuSans-65" x="131.884766"/>
       <use xlink:href="#DejaVuSans-6e" x="193.408203"/>
       <use xlink:href="#DejaVuSans-67" x="256.787109"/>
       <use xlink:href="#DejaVuSans-36" x="320.263672"/>
       <use xlink:href="#DejaVuSans-38" x="383.886719"/>
       <use xlink:href="#DejaVuSans-6b" x="447.509766"/>
      </g>
     </g>
    </g>
   </g>
   <g id="matplotlib.axis_2">
    <g id="ytick_1">
     <g id="line2d_10">
      <defs>
       <path id="mb7c2faa8d8" d="M 0 0 
L -3.5 0 
" style="stroke: #000000; stroke-width: 0.8"/>
      </defs>
      <g>
       <use xlink:href="#mb7c2faa8d8" x="34.22" y="45.041003" style="stroke: #000000; stroke-width: 0.8"/>
      </g>
     </g>
     <g id="text_10">
      <!-- 0.0 -->
      <g transform="translate(19.268437 46.940612) scale(0.05 -0.05)">
       <defs>
        <path id="DejaVuSans-30" d="M 2034 4250 
Q 1547 4250 1301 3770 
Q 1056 3291 1056 2328 
Q 1056 1369 1301 889 
Q 1547 409 2034 409 
Q 2525 409 2770 889 
Q 3016 1369 3016 2328 
Q 3016 3291 2770 3770 
Q 2525 4250 2034 4250 
z
M 2034 4750 
Q 2819 4750 3233 4129 
Q 3647 3509 3647 2328 
Q 3647 1150 3233 529 
Q 2819 -91 2034 -91 
Q 1250 -91 836 529 
Q 422 1150 422 2328 
Q 422 3509 836 4129 
Q 1250 4750 2034 4750 
z
" transform="scale(0.015625)"/>
        <path id="DejaVuSans-2e" d="M 684 794 
L 1344 794 
L 1344 0 
L 684 0 
L 684 794 
z
" transform="scale(0.015625)"/>
       </defs>
       <use xlink:href="#DejaVuSans-30"/>
       <use xlink:href="#DejaVuSans-2e" x="63.623047"/>
       <use xlink:href="#DejaVuSans-30" x="95.410156"/>
      </g>
     </g>
    </g>
    <g id="ytick_2">
     <g id="line2d_11">
      <g>
       <use xlink:href="#mb7c2faa8d8" x="34.22" y="39.932944" style="stroke: #000000; stroke-width: 0.8"/>
      </g>
     </g>
     <g id="text_11">
      <!-- 0.1 -->
      <g transform="translate(19.268437 41.832554) scale(0.05 -0.05)">
       <defs>
        <path id="DejaVuSans-31" d="M 794 531 
L 1825 531 
L 1825 4091 
L 703 3866 
L 703 4441 
L 1819 4666 
L 2450 4666 
L 2450 531 
L 3481 531 
L 3481 0 
L 794 0 
L 794 531 
z
" transform="scale(0.015625)"/>
       </defs>
       <use xlink:href="#DejaVuSans-30"/>
       <use xlink:href="#DejaVuSans-2e" x="63.623047"/>
       <use xlink:href="#DejaVuSans-31" x="95.410156"/>
      </g>
     </g>
    </g>
    <g id="ytick_3">
     <g id="line2d_12">
      <g>
       <use xlink:href="#mb7c2faa8d8" x="34.22" y="34.824885" style="stroke: #000000; stroke-width: 0.8"/>
      </g>
     </g>
     <g id="text_12">
      <!-- 0.2 -->
      <g transform="translate(19.268437 36.724495) scale(0.05 -0.05)">
       <defs>
        <path id="DejaVuSans-32" d="M 1228 531 
L 3431 531 
L 3431 0 
L 469 0 
L 469 531 
Q 828 903 1448 1529 
Q 2069 2156 2228 2338 
Q 2531 2678 2651 2914 
Q 2772 3150 2772 3378 
Q 2772 3750 2511 3984 
Q 2250 4219 1831 4219 
Q 1534 4219 1204 4116 
Q 875 4013 500 3803 
L 500 4441 
Q 881 4594 1212 4672 
Q 1544 4750 1819 4750 
Q 2544 4750 2975 4387 
Q 3406 4025 3406 3419 
Q 3406 3131 3298 2873 
Q 3191 2616 2906 2266 
Q 2828 2175 2409 1742 
Q 1991 1309 1228 531 
z
" transform="scale(0.015625)"/>
       </defs>
       <use xlink:href="#DejaVuSans-30"/>
       <use xlink:href="#DejaVuSans-2e" x="63.623047"/>
       <use xlink:href="#DejaVuSans-32" x="95.410156"/>
      </g>
     </g>
    </g>
    <g id="ytick_4">
     <g id="line2d_13">
      <g>
       <use xlink:href="#mb7c2faa8d8" x="34.22" y="29.716826" style="stroke: #000000; stroke-width: 0.8"/>
      </g>
     </g>
     <g id="text_13">
      <!-- 0.3 -->
      <g transform="translate(19.268437 31.616436) scale(0.05 -0.05)">
       <defs>
        <path id="DejaVuSans-33" d="M 2597 2516 
Q 3050 2419 3304 2112 
Q 3559 1806 3559 1356 
Q 3559 666 3084 287 
Q 2609 -91 1734 -91 
Q 1441 -91 1130 -33 
Q 819 25 488 141 
L 488 750 
Q 750 597 1062 519 
Q 1375 441 1716 441 
Q 2309 441 2620 675 
Q 2931 909 2931 1356 
Q 2931 1769 2642 2001 
Q 2353 2234 1838 2234 
L 1294 2234 
L 1294 2753 
L 1863 2753 
Q 2328 2753 2575 2939 
Q 2822 3125 2822 3475 
Q 2822 3834 2567 4026 
Q 2313 4219 1838 4219 
Q 1578 4219 1281 4162 
Q 984 4106 628 3988 
L 628 4550 
Q 988 4650 1302 4700 
Q 1616 4750 1894 4750 
Q 2613 4750 3031 4423 
Q 3450 4097 3450 3541 
Q 3450 3153 3228 2886 
Q 3006 2619 2597 2516 
z
" transform="scale(0.015625)"/>
       </defs>
       <use xlink:href="#DejaVuSans-30"/>
       <use xlink:href="#DejaVuSans-2e" x="63.623047"/>
       <use xlink:href="#DejaVuSans-33" x="95.410156"/>
      </g>
     </g>
    </g>
    <g id="ytick_5">
     <g id="line2d_14">
      <g>
       <use xlink:href="#mb7c2faa8d8" x="34.22" y="24.608768" style="stroke: #000000; stroke-width: 0.8"/>
      </g>
     </g>
     <g id="text_14">
      <!-- 0.4 -->
      <g transform="translate(19.268437 26.508377) scale(0.05 -0.05)">
       <defs>
        <path id="DejaVuSans-34" d="M 2419 4116 
L 825 1625 
L 2419 1625 
L 2419 4116 
z
M 2253 4666 
L 3047 4666 
L 3047 1625 
L 3713 1625 
L 3713 1100 
L 3047 1100 
L 3047 0 
L 2419 0 
L 2419 1100 
L 313 1100 
L 313 1709 
L 2253 4666 
z
" transform="scale(0.015625)"/>
       </defs>
       <use xlink:href="#DejaVuSans-30"/>
       <use xlink:href="#DejaVuSans-2e" x="63.623047"/>
       <use xlink:href="#DejaVuSans-34" x="95.410156"/>
      </g>
     </g>
    </g>
    <g id="ytick_6">
     <g id="line2d_15">
      <g>
       <use xlink:href="#mb7c2faa8d8" x="34.22" y="19.500709" style="stroke: #000000; stroke-width: 0.8"/>
      </g>
     </g>
     <g id="text_15">
      <!-- 0.5 -->
      <g transform="translate(19.268437 21.400318) scale(0.05 -0.05)">
       <defs>
        <path id="DejaVuSans-35" d="M 691 4666 
L 3169 4666 
L 3169 4134 
L 1269 4134 
L 1269 2991 
Q 1406 3038 1543 3061 
Q 1681 3084 1819 3084 
Q 2600 3084 3056 2656 
Q 3513 2228 3513 1497 
Q 3513 744 3044 326 
Q 2575 -91 1722 -91 
Q 1428 -91 1123 -41 
Q 819 9 494 109 
L 494 744 
Q 775 591 1075 516 
Q 1375 441 1709 441 
Q 2250 441 2565 725 
Q 2881 1009 2881 1497 
Q 2881 1984 2565 2268 
Q 2250 2553 1709 2553 
Q 1456 2553 1204 2497 
Q 953 2441 691 2322 
L 691 4666 
z
" transform="scale(0.015625)"/>
       </defs>
       <use xlink:href="#DejaVuSans-30"/>
       <use xlink:href="#DejaVuSans-2e" x="63.623047"/>
       <use xlink:href="#DejaVuSans-35" x="95.410156"/>
      </g>
     </g>
    </g>
    <g id="text_16">
     <!-- CV Score -->
     <g transform="translate(14.228594 41.637244) rotate(-90) scale(0.05 -0.05)">
      <defs>
       <path id="DejaVuSans-56" d="M 1831 0 
L 50 4666 
L 709 4666 
L 2188 738 
L 3669 4666 
L 4325 4666 
L 2547 0 
L 1831 0 
z
" transform="scale(0.015625)"/>
      </defs>
      <use xlink:href="#DejaVuSans-43"/>
      <use xlink:href="#DejaVuSans-56" x="69.824219"/>
      <use xlink:href="#DejaVuSans-20" x="138.232422"/>
      <use xlink:href="#DejaVuSans-53" x="170.019531"/>
      <use xlink:href="#DejaVuSans-63" x="233.496094"/>
      <use xlink:href="#DejaVuSans-6f" x="288.476562"/>
      <use xlink:href="#DejaVuSans-72" x="349.658203"/>
      <use xlink:href="#DejaVuSans-65" x="388.521484"/>
     </g>
    </g>
   </g>
   <g id="line2d_16">
    <path d="M 45.718889 44.735993 
L 45.718889 37.365874 
" clip-path="url(#p24180dd6e9)" style="fill: none; stroke: #515151; stroke-width: 0.25; stroke-linecap: square"/>
   </g>
   <g id="line2d_17">
    <path d="M 45.718889 43.356973 
L 45.718889 40.349869 
" clip-path="url(#p24180dd6e9)" style="fill: none; stroke: #515151; stroke-width: 0.75; stroke-linecap: square"/>
   </g>
   <g id="line2d_18">
    <path d="M 68.716667 44.841233 
L 68.716667 37.635568 
" clip-path="url(#p24180dd6e9)" style="fill: none; stroke: #515151; stroke-width: 0.25; stroke-linecap: square"/>
   </g>
   <g id="line2d_19">
    <path d="M 68.716667 42.321041 
L 68.716667 40.36719 
" clip-path="url(#p24180dd6e9)" style="fill: none; stroke: #515151; stroke-width: 0.75; stroke-linecap: square"/>
   </g>
   <g id="line2d_20">
    <path d="M 91.714444 44.984714 
L 91.714444 38.444325 
" clip-path="url(#p24180dd6e9)" style="fill: none; stroke: #515151; stroke-width: 0.25; stroke-linecap: square"/>
   </g>
   <g id="line2d_21">
    <path d="M 91.714444 42.803703 
L 91.714444 40.957701 
" clip-path="url(#p24180dd6e9)" style="fill: none; stroke: #515151; stroke-width: 0.75; stroke-linecap: square"/>
   </g>
   <g id="line2d_22">
    <path d="M 114.712222 44.561912 
L 114.712222 36.473964 
" clip-path="url(#p24180dd6e9)" style="fill: none; stroke: #515151; stroke-width: 0.25; stroke-linecap: square"/>
   </g>
   <g id="line2d_23">
    <path d="M 114.712222 43.247949 
L 114.712222 39.218874 
" clip-path="url(#p24180dd6e9)" style="fill: none; stroke: #515151; stroke-width: 0.75; stroke-linecap: square"/>
   </g>
   <g id="line2d_24">
    <path d="M 137.71 44.728758 
L 137.71 33.721294 
" clip-path="url(#p24180dd6e9)" style="fill: none; stroke: #515151; stroke-width: 0.25; stroke-linecap: square"/>
   </g>
   <g id="line2d_25">
    <path d="M 137.71 42.054394 
L 137.71 38.284565 
" clip-path="url(#p24180dd6e9)" style="fill: none; stroke: #515151; stroke-width: 0.75; stroke-linecap: square"/>
   </g>
   <g id="line2d_26">
    <path d="M 160.707778 44.496984 
L 160.707778 36.101527 
" clip-path="url(#p24180dd6e9)" style="fill: none; stroke: #515151; stroke-width: 0.25; stroke-linecap: square"/>
   </g>
   <g id="line2d_27">
    <path d="M 160.707778 43.039872 
L 160.707778 39.693915 
" clip-path="url(#p24180dd6e9)" style="fill: none; stroke: #515151; stroke-width: 0.75; stroke-linecap: square"/>
   </g>
   <g id="line2d_28">
    <path d="M 183.705556 44.998226 
L 183.705556 33.814269 
" clip-path="url(#p24180dd6e9)" style="fill: none; stroke: #515151; stroke-width: 0.25; stroke-linecap: square"/>
   </g>
   <g id="line2d_29">
    <path d="M 183.705556 41.625547 
L 183.705556 37.980258 
" clip-path="url(#p24180dd6e9)" style="fill: none; stroke: #515151; stroke-width: 0.75; stroke-linecap: square"/>
   </g>
   <g id="line2d_30">
    <path d="M 206.703333 43.878609 
L 206.703333 29.921066 
" clip-path="url(#p24180dd6e9)" style="fill: none; stroke: #515151; stroke-width: 0.25; stroke-linecap: square"/>
   </g>
   <g id="line2d_31">
    <path d="M 206.703333 40.771313 
L 206.703333 36.042216 
" clip-path="url(#p24180dd6e9)" style="fill: none; stroke: #515151; stroke-width: 0.75; stroke-linecap: square"/>
   </g>
   <g id="line2d_32">
    <path d="M 229.701111 44.640226 
L 229.701111 32.937582 
" clip-path="url(#p24180dd6e9)" style="fill: none; stroke: #515151; stroke-width: 0.25; stroke-linecap: square"/>
   </g>
   <g id="line2d_33">
    <path d="M 229.701111 44.323095 
L 229.701111 39.700231 
" clip-path="url(#p24180dd6e9)" style="fill: none; stroke: #515151; stroke-width: 0.75; stroke-linecap: square"/>
   </g>
   <g id="patch_3">
    <path d="M 34.22 49.971364 
L 34.22 10.8 
" style="fill: none; stroke: #000000; stroke-width: 0.8; stroke-linejoin: miter; stroke-linecap: square"/>
   </g>
   <g id="patch_4">
    <path d="M 241.2 49.971364 
L 241.2 10.8 
" style="fill: none; stroke: #000000; stroke-width: 0.8; stroke-linejoin: miter; stroke-linecap: square"/>
   </g>
   <g id="patch_5">
    <path d="M 34.22 49.971364 
L 241.2 49.971364 
" style="fill: none; stroke: #000000; stroke-width: 0.8; stroke-linejoin: miter; stroke-linecap: square"/>
   </g>
   <g id="patch_6">
    <path d="M 34.22 10.8 
L 241.2 10.8 
" style="fill: none; stroke: #000000; stroke-width: 0.8; stroke-linejoin: miter; stroke-linecap: square"/>
   </g>
   <g id="PathCollection_1">
    <defs>
     <path id="me971251bb0" d="M 0 0.25 
C 0.066301 0.25 0.129895 0.223658 0.176777 0.176777 
C 0.223658 0.129895 0.25 0.066301 0.25 0 
C 0.25 -0.066301 0.223658 -0.129895 0.176777 -0.176777 
C 0.129895 -0.223658 0.066301 -0.25 0 -0.25 
C -0.066301 -0.25 -0.129895 -0.223658 -0.176777 -0.176777 
C -0.223658 -0.129895 -0.25 -0.066301 -0.25 0 
C -0.25 0.066301 -0.223658 0.129895 -0.176777 0.176777 
C -0.129895 0.223658 -0.066301 0.25 0 0.25 
z
" style="stroke: #515151"/>
    </defs>
    <g clip-path="url(#p24180dd6e9)">
     <use xlink:href="#me971251bb0" x="45.718889" y="41.992416" style="fill: #ffffff; stroke: #515151"/>
    </g>
   </g>
   <g id="PathCollection_2">
    <g clip-path="url(#p24180dd6e9)">
     <use xlink:href="#me971251bb0" x="68.716667" y="41.400888" style="fill: #ffffff; stroke: #515151"/>
    </g>
   </g>
   <g id="PathCollection_3">
    <g clip-path="url(#p24180dd6e9)">
     <use xlink:href="#me971251bb0" x="91.714444" y="41.746448" style="fill: #ffffff; stroke: #515151"/>
    </g>
   </g>
   <g id="PathCollection_4">
    <g clip-path="url(#p24180dd6e9)">
     <use xlink:href="#me971251bb0" x="114.712222" y="41.041553" style="fill: #ffffff; stroke: #515151"/>
    </g>
   </g>
   <g id="PathCollection_5">
    <g clip-path="url(#p24180dd6e9)">
     <use xlink:href="#me971251bb0" x="137.71" y="39.927343" style="fill: #ffffff; stroke: #515151"/>
    </g>
   </g>
   <g id="PathCollection_6">
    <g clip-path="url(#p24180dd6e9)">
     <use xlink:href="#me971251bb0" x="160.707778" y="41.371628" style="fill: #ffffff; stroke: #515151"/>
    </g>
   </g>
   <g id="PathCollection_7">
    <g clip-path="url(#p24180dd6e9)">
     <use xlink:href="#me971251bb0" x="183.705556" y="39.926444" style="fill: #ffffff; stroke: #515151"/>
    </g>
   </g>
   <g id="PathCollection_8">
    <g clip-path="url(#p24180dd6e9)">
     <use xlink:href="#me971251bb0" x="206.703333" y="39.376627" style="fill: #ffffff; stroke: #515151"/>
    </g>
   </g>
   <g id="PathCollection_9">
    <g clip-path="url(#p24180dd6e9)">
     <use xlink:href="#me971251bb0" x="229.701111" y="43.57545" style="fill: #ffffff; stroke: #515151"/>
    </g>
   </g>
  </g>
 </g>
 <defs>
  <clipPath id="p24180dd6e9">
   <rect x="34.22" y="10.8" width="206.98" height="39.171364"/>
  </clipPath>
 </defs>
</svg>
